<svg xmlns="http://www.w3.org/2000/svg" xmlns:xlink="http://www.w3.org/1999/xlink" width="42" height="36" viewBox="0 0 42 36" fill="none"><path d="M27.4361 35.9998L2.88801 35.9998C2.84076 35.9998 2.79352 35.9987 2.74632 35.9964C2.69909 35.9941 2.65196 35.9906 2.60494 35.986C2.55789 35.9813 2.51099 35.9756 2.46424 35.9687C2.41749 35.9618 2.37094 35.9537 2.32458 35.9445C2.27822 35.9353 2.23212 35.925 2.18627 35.9135C2.14042 35.9021 2.09489 35.8895 2.04968 35.8758C2.00443 35.8621 1.95956 35.8474 1.91507 35.8315C1.87058 35.8156 1.82649 35.7986 1.78281 35.7806C1.73916 35.7626 1.69596 35.7435 1.65321 35.7233C1.6105 35.7032 1.5683 35.682 1.52661 35.6598C1.48493 35.6375 1.44382 35.6143 1.40328 35.5901C1.36274 35.5659 1.32282 35.5407 1.28352 35.5145C1.24422 35.4883 1.20559 35.4611 1.16762 35.4331C1.12966 35.405 1.09241 35.376 1.05588 35.3461C1.01934 35.3162 0.983563 35.2854 0.948541 35.2538C0.91352 35.2221 0.879301 35.1897 0.845881 35.1563C0.812457 35.123 0.779877 35.0889 0.748136 35.0539C0.716395 35.019 0.685533 34.9833 0.655548 34.9469C0.625562 34.9105 0.596492 34.8733 0.568339 34.8355C0.540185 34.7976 0.512975 34.7591 0.486716 34.7199C0.460458 34.6807 0.435182 34.6409 0.410883 34.6004C0.386585 34.56 0.363294 34.519 0.341011 34.4774C0.318731 34.4359 0.297488 34.3938 0.277281 34.3512C0.257071 34.3086 0.237923 34.2655 0.219837 34.222C0.20175 34.1784 0.184746 34.1345 0.168823 34.0901C0.1529 34.0457 0.138077 34.001 0.124356 33.9558C0.110635 33.9108 0.0980332 33.8654 0.0865502 33.8196C0.0750645 33.7739 0.0647114 33.7279 0.0554905 33.6817C0.0462701 33.6355 0.0381925 33.5891 0.0312584 33.5424C0.0243239 33.4958 0.0185404 33.4491 0.0139075 33.4021C0.00927486 33.3552 0.00579868 33.3083 0.00347928 33.2611C0.00115987 33.2141 0 33.167 0 33.1198C0.000261651 32.9656 0.00327615 32.8114 0.00904314 32.6572C0.0148101 32.5031 0.0233252 32.3491 0.0345886 32.1952C0.0458549 32.0414 0.0598618 31.8878 0.0766091 31.7344C0.0933596 31.5811 0.11284 31.4281 0.135051 31.2754C0.157261 31.1227 0.182189 30.9705 0.209832 30.8188C0.237476 30.667 0.267821 30.5157 0.300868 30.365C0.333912 30.2143 0.369634 30.0643 0.408036 29.9148C0.446437 29.7654 0.487492 29.6167 0.531201 29.4688C0.574914 29.3208 0.621248 29.1736 0.670214 29.0273C0.719174 28.881 0.770734 28.7356 0.824889 28.5911C0.879044 28.4466 0.935757 28.3031 0.995034 28.1606C1.05431 28.0181 1.11611 27.8767 1.18044 27.7364C1.24477 27.5962 1.31157 27.4571 1.38086 27.3192C1.45015 27.1812 1.52188 27.0446 1.59605 26.9092C1.67022 26.7738 1.74678 26.6398 1.82572 26.5072C1.90469 26.3745 1.98599 26.2433 2.06962 26.1136C2.15325 25.9838 2.23917 25.8555 2.32738 25.7288C2.41561 25.6021 2.50607 25.477 2.59876 25.3535C2.69142 25.23 2.78627 25.1082 2.88332 24.988C2.98034 24.8679 3.07948 24.7495 3.18074 24.6329C3.282 24.5163 3.38531 24.4015 3.49066 24.2885C3.59602 24.1756 3.70335 24.0646 3.81268 23.9554C3.922 23.8463 4.03323 23.7391 4.14638 23.6339C4.25952 23.5288 4.3745 23.4256 4.49131 23.3245C4.60814 23.2234 4.72678 23.1244 4.84713 23.0275C4.96748 22.9306 5.08954 22.8358 5.21327 22.7433C5.33701 22.6507 5.46236 22.5604 5.58935 22.4723C5.71628 22.3841 5.8448 22.2983 5.97485 22.2148C6.10486 22.1312 6.23635 22.05 6.36929 21.9711C6.50223 21.8922 6.63652 21.8157 6.77217 21.7416C6.90786 21.6675 7.04477 21.5958 7.18299 21.5266C7.32121 21.4573 7.46064 21.3905 7.60125 21.3262C7.73826 21.3996 7.87643 21.4707 8.01573 21.5396C8.15503 21.6085 8.29542 21.6751 8.43688 21.7395C8.57835 21.8039 8.72081 21.8659 8.86427 21.9257C9.00776 21.9855 9.15216 22.043 9.29747 22.0982C9.44282 22.1533 9.58898 22.2061 9.73604 22.2565C9.8831 22.307 10.0309 22.3551 10.1795 22.4007C10.3281 22.4464 10.4774 22.4897 10.6274 22.5306C10.7774 22.5715 10.928 22.6099 11.0792 22.646C11.2305 22.682 11.3823 22.7156 11.5346 22.7468C11.6869 22.7779 11.8397 22.8066 11.9929 22.8328C12.1462 22.859 12.2999 22.8828 12.4539 22.9041C12.6079 22.9254 12.7622 22.9442 12.9169 22.9605C13.0715 22.9769 13.2263 22.9907 13.3814 23.002C13.5365 23.0134 13.6917 23.0222 13.8471 23.0285C14.0024 23.0349 14.1579 23.0388 14.3134 23.0401C14.4689 23.0415 14.6243 23.0403 14.7798 23.0366C14.9352 23.033 15.0906 23.0268 15.2458 23.0182C15.4011 23.0095 15.5562 22.9984 15.7111 22.9847C15.866 22.9711 16.0206 22.955 16.175 22.9363C16.3293 22.9177 16.4834 22.8966 16.637 22.873C16.7907 22.8495 16.944 22.8234 17.0969 22.7949C17.2497 22.7664 17.4021 22.7354 17.5539 22.702C17.7057 22.6686 17.857 22.6328 18.0077 22.5945C18.1583 22.5562 18.3084 22.5155 18.4578 22.4724C18.6071 22.4293 18.7558 22.3838 18.9037 22.336C19.0516 22.2881 19.1987 22.2378 19.3449 22.1852C19.4912 22.1326 19.6366 22.0776 19.781 22.0203C19.9255 21.963 20.0691 21.9034 20.2116 21.8415C20.3542 21.7796 20.4957 21.7154 20.6362 21.6489C20.7767 21.5825 20.9161 21.5137 21.0543 21.4428C21.1926 21.3718 21.3297 21.2987 21.4656 21.2233C21.6014 21.148 21.7361 21.0704 21.8695 20.9907C21.8347 21.1586 21.8043 21.3272 21.7782 21.4966C21.752 21.666 21.7303 21.8359 21.7128 22.0064C21.6954 22.1769 21.6823 22.3477 21.6736 22.5189C21.6648 22.6901 21.6605 22.8613 21.6605 23.0327C21.6606 23.2041 21.6649 23.3754 21.6737 23.5465C21.6825 23.7177 21.6956 23.8885 21.7131 24.059C21.7306 24.2295 21.7525 24.3994 21.7787 24.5688C21.8049 24.7382 21.8354 24.9068 21.8702 25.0747C21.905 25.2425 21.944 25.4093 21.9874 25.5752C22.0307 25.741 22.0782 25.9057 22.13 26.0691C22.1817 26.2325 22.2376 26.3945 22.2976 26.5552C22.3576 26.7158 22.4217 26.8747 22.4898 27.032C22.558 27.1894 22.6301 27.3449 22.7062 27.4985C22.7822 27.6522 22.8622 27.8039 22.946 27.9535C23.0298 28.1031 23.1174 28.2505 23.2088 28.3956C23.3001 28.5408 23.3951 28.6836 23.4938 28.8239C23.5925 28.9642 23.6946 29.102 23.8003 29.2371C23.906 29.3722 24.0151 29.5046 24.1276 29.6342C24.24 29.7638 24.3557 29.8905 24.4746 30.0142C24.5935 30.1379 24.7155 30.2586 24.8406 30.3761C24.9657 30.4936 25.0937 30.6079 25.2246 30.7189C25.3556 30.8299 25.4893 30.9376 25.6257 31.0418C25.7621 31.146 25.9011 31.2468 26.0427 31.3439C26.1842 31.4411 26.3282 31.5346 26.4745 31.6244C26.6209 31.7143 26.7694 31.8003 26.9202 31.8827C27.0709 31.965 27.2237 32.0434 27.3784 32.118C27.5332 32.1925 27.6897 32.2631 27.8481 32.3296C28.0064 32.3962 28.1664 32.4588 28.328 32.5172C28.4895 32.5757 28.6524 32.6301 28.8167 32.6802C28.9811 32.7304 29.1466 32.7764 29.3133 32.8182C29.4799 32.86 29.6475 32.8974 29.8162 32.9307C29.9848 32.964 30.1541 32.9929 30.3242 33.0176L30.3242 33.1198C30.3242 33.167 30.323 33.2141 30.3207 33.2611C30.3184 33.3083 30.3149 33.3552 30.3103 33.4021C30.3056 33.4491 30.2998 33.4958 30.2929 33.5424C30.286 33.5891 30.2779 33.6355 30.2687 33.6817C30.2594 33.7279 30.2491 33.7739 30.2376 33.8196C30.2261 33.8654 30.2135 33.9108 30.1998 33.9558C30.1861 34.001 30.1713 34.0457 30.1553 34.0901C30.1394 34.1345 30.1224 34.1784 30.1043 34.222C30.0862 34.2655 30.0671 34.3086 30.0469 34.3512C30.0267 34.3938 30.0054 34.4359 29.9831 34.4774C29.9609 34.519 29.9376 34.56 29.9133 34.6004C29.889 34.6409 29.8637 34.6807 29.8374 34.7199C29.8112 34.7591 29.784 34.7976 29.7558 34.8355C29.7276 34.8733 29.6986 34.9105 29.6686 34.9469C29.6386 34.9833 29.6077 35.019 29.576 35.0539C29.5443 35.0889 29.5117 35.123 29.4783 35.1563C29.4448 35.1897 29.4106 35.2221 29.3756 35.2538C29.3406 35.2854 29.3048 35.3162 29.2683 35.3461C29.2318 35.376 29.1945 35.405 29.1565 35.4331C29.1186 35.4611 29.0799 35.4883 29.0406 35.5145C29.0013 35.5407 28.9614 35.5659 28.9209 35.5901C28.8803 35.6143 28.8392 35.6375 28.7975 35.6598C28.7559 35.682 28.7136 35.7032 28.6709 35.7233C28.6282 35.7435 28.585 35.7626 28.5413 35.7806C28.4977 35.7986 28.4536 35.8156 28.4091 35.8315C28.3646 35.8474 28.3197 35.8621 28.2745 35.8758C28.2293 35.8895 28.1837 35.9021 28.1379 35.9135C28.092 35.925 28.0459 35.9353 27.9996 35.9445C27.9532 35.9537 27.9067 35.9618 27.8599 35.9687C27.8132 35.9756 27.7663 35.9813 27.7192 35.986C27.6722 35.9906 27.6251 35.9941 27.5778 35.9964C27.5306 35.9987 27.4834 35.9998 27.4361 35.9998Z"   fill="#1191FF" ></path><path d="M4.33203 10.08C4.33203 10.245 4.33609 10.4098 4.34422 10.5746C4.35234 10.7393 4.36451 10.9038 4.38072 11.068C4.39694 11.2322 4.41717 11.3958 4.44141 11.5591C4.46569 11.7222 4.49397 11.8847 4.52625 12.0465C4.55853 12.2083 4.59477 12.3692 4.63496 12.5293C4.67515 12.6893 4.71925 12.8482 4.76726 13.0061C4.81531 13.1639 4.86718 13.3205 4.9229 13.4758C4.97864 13.6312 5.03816 13.785 5.10146 13.9374C5.16476 14.0899 5.23177 14.2406 5.30249 14.3897C5.37322 14.5389 5.44759 14.6862 5.52559 14.8317C5.60357 14.9772 5.68508 15.1206 5.77013 15.2621C5.85517 15.4037 5.94365 15.543 6.03555 15.6802C6.12746 15.8173 6.22269 15.9521 6.32124 16.0847C6.41976 16.2171 6.52151 16.3471 6.62647 16.4747C6.7314 16.6022 6.83941 16.7271 6.95051 16.8493C7.06161 16.9716 7.17564 17.091 7.29261 17.2076C7.40957 17.3243 7.52935 17.438 7.65194 17.5488C7.7745 17.6596 7.89972 17.7673 8.02761 17.8719C8.15549 17.9766 8.28586 18.0781 8.41871 18.1763C8.55159 18.2746 8.6868 18.3695 8.82434 18.4612C8.96188 18.5529 9.10159 18.6411 9.24351 18.7259C9.38542 18.8107 9.52928 18.892 9.67517 18.9697C9.82106 19.0475 9.9688 19.1217 10.1183 19.1922C10.2679 19.2627 10.4191 19.3296 10.5719 19.3927C10.7247 19.4558 10.879 19.5152 11.0348 19.5708C11.1905 19.6263 11.3476 19.678 11.5059 19.726C11.6642 19.7738 11.8235 19.8178 11.984 19.8579C12.1445 19.898 12.3059 19.9341 12.4681 19.9663C12.6303 19.9985 12.7933 20.0267 12.9569 20.0509C13.1206 20.0751 13.2847 20.0953 13.4493 20.1114C13.614 20.1276 13.7789 20.1397 13.9441 20.1478C14.1093 20.1559 14.2747 20.16 14.4401 20.16C14.6055 20.16 14.7709 20.1559 14.9361 20.1478C15.1013 20.1397 15.2662 20.1276 15.4309 20.1114C15.5955 20.0953 15.7596 20.0751 15.9233 20.0509C16.0869 20.0267 16.2498 19.9985 16.4121 19.9663C16.5743 19.9341 16.7356 19.898 16.8962 19.8579C17.0566 19.8178 17.216 19.7738 17.3743 19.726C17.5326 19.678 17.6896 19.6263 17.8454 19.5708C18.0011 19.5152 18.1554 19.4558 18.3083 19.3927C18.4611 19.3296 18.6123 19.2627 18.7618 19.1922C18.9114 19.1217 19.0591 19.0475 19.205 18.9697C19.3509 18.892 19.4947 18.8107 19.6367 18.7259C19.7786 18.6411 19.9183 18.5529 20.0558 18.4612C20.1934 18.3695 20.3286 18.2746 20.4615 18.1763C20.5943 18.0781 20.7247 17.9766 20.8526 17.8719C20.9804 17.7673 21.1057 17.6596 21.2282 17.5488C21.3508 17.438 21.4706 17.3243 21.5876 17.2076C21.7045 17.091 21.8186 16.9716 21.9296 16.8493C22.0407 16.7271 22.1488 16.6022 22.2537 16.4747C22.3587 16.3471 22.4604 16.2171 22.5589 16.0847C22.6575 15.9521 22.7527 15.8173 22.8446 15.6802C22.9365 15.5429 23.025 15.4036 23.11 15.2621C23.1951 15.1206 23.2766 14.9772 23.3546 14.8317C23.4326 14.6862 23.507 14.5389 23.5777 14.3897C23.6484 14.2406 23.7154 14.0899 23.7787 13.9374C23.842 13.785 23.9015 13.6312 23.9573 13.4758C24.013 13.3205 24.0648 13.1639 24.1129 13.0061C24.1609 12.8482 24.205 12.6893 24.2452 12.5292C24.2854 12.3692 24.3216 12.2083 24.3539 12.0465C24.3862 11.8847 24.4145 11.7222 24.4387 11.5591C24.463 11.3958 24.4832 11.2322 24.4994 11.068C24.5156 10.9038 24.5278 10.7393 24.5359 10.5746C24.5441 10.4098 24.5481 10.245 24.5481 10.08C24.5481 9.91503 24.5441 9.75015 24.5359 9.5854C24.5278 9.42066 24.5156 9.25618 24.4994 9.09198C24.4832 8.92782 24.463 8.76415 24.4387 8.60094C24.4145 8.43777 24.3862 8.27527 24.3539 8.1135C24.3216 7.95172 24.2854 7.7908 24.2452 7.63074C24.205 7.47072 24.1609 7.31178 24.1129 7.15392C24.0648 6.99606 24.013 6.83946 23.9573 6.68416C23.9015 6.52882 23.842 6.37497 23.7787 6.22255C23.7154 6.07014 23.6484 5.91939 23.5777 5.77026C23.507 5.62113 23.4326 5.4738 23.3546 5.32831C23.2766 5.18283 23.1951 5.03937 23.11 4.89784C23.025 4.75632 22.9365 4.617 22.8446 4.47984C22.7527 4.34268 22.6575 4.20785 22.5589 4.07533C22.4604 3.94285 22.3587 3.81285 22.2537 3.68532C22.1488 3.55779 22.0407 3.43291 21.9296 3.31069C21.8186 3.18844 21.7045 3.069 21.5876 2.95236C21.4706 2.83572 21.3508 2.722 21.2282 2.61121C21.1057 2.50042 20.9804 2.39271 20.8526 2.28807C20.7247 2.1834 20.5943 2.08194 20.4615 1.98369C20.3286 1.88541 20.1934 1.79045 20.0558 1.69879C19.9183 1.60714 19.7786 1.51892 19.6367 1.4341C19.4947 1.34929 19.3509 1.26801 19.205 1.19025C19.0591 1.11246 18.9114 1.0383 18.7618 0.96777C18.6123 0.897241 18.4611 0.830416 18.3083 0.767295C18.1554 0.704173 18.0011 0.644818 17.8454 0.58923C17.6896 0.533668 17.5326 0.481936 17.3743 0.434025C17.216 0.386145 17.0566 0.342165 16.8962 0.302085C16.7356 0.262005 16.5743 0.22587 16.4121 0.19368C16.2498 0.161499 16.0869 0.133306 15.9233 0.109102C15.7596 0.0848956 15.5955 0.0647068 15.4309 0.048537C15.2662 0.0323671 15.1013 0.0202351 14.9361 0.0121409C14.7709 0.00404709 14.6055 0 14.4401 0C14.2747 0 14.1093 0.00404709 13.9441 0.0121409C13.7789 0.0202351 13.614 0.0323671 13.4493 0.048537C13.2847 0.0647068 13.1206 0.0848956 12.9569 0.109102C12.7933 0.133306 12.6303 0.161499 12.4681 0.19368C12.3059 0.22587 12.1445 0.262005 11.984 0.302085C11.8235 0.342165 11.6642 0.386145 11.5059 0.434025C11.3476 0.481936 11.1905 0.533668 11.0348 0.58923C10.879 0.644818 10.7247 0.704173 10.5719 0.767295C10.4191 0.830416 10.2679 0.897241 10.1183 0.96777C9.9688 1.0383 9.82106 1.11246 9.67517 1.19025C9.52928 1.26801 9.38542 1.34929 9.24351 1.4341C9.10159 1.51892 8.96188 1.60714 8.82434 1.69879C8.6868 1.79045 8.55159 1.88541 8.41871 1.98369C8.28586 2.08194 8.15549 2.1834 8.02761 2.28807C7.89972 2.39271 7.7745 2.50042 7.65194 2.61121C7.52935 2.722 7.40957 2.83572 7.29261 2.95236C7.17564 3.069 7.06161 3.18844 6.95051 3.31069C6.83941 3.43291 6.7314 3.55779 6.62647 3.68532C6.52151 3.81285 6.41976 3.94285 6.32124 4.07533C6.22269 4.20785 6.12746 4.34268 6.03555 4.47984C5.94365 4.617 5.85517 4.75632 5.77013 4.89784C5.68508 5.03937 5.60357 5.18283 5.52559 5.32831C5.44759 5.4738 5.37322 5.62113 5.30249 5.77026C5.23177 5.91939 5.16476 6.07014 5.10146 6.22255C5.03816 6.37497 4.97864 6.52882 4.9229 6.68416C4.86718 6.83946 4.81531 6.99606 4.76726 7.15392C4.71925 7.31178 4.67515 7.47072 4.63496 7.63074C4.59477 7.7908 4.55853 7.95172 4.52625 8.1135C4.49397 8.27527 4.46569 8.43777 4.44141 8.60094C4.41717 8.76415 4.39694 8.92782 4.38072 9.09198C4.36451 9.25618 4.35234 9.42066 4.34422 9.5854C4.33609 9.75015 4.33203 9.91503 4.33203 10.08Z"   fill="#1191FF" ></path><path d="M32.7583 31.2132C27.6624 31.2132 23.5166 27.079 23.5166 21.9972C23.5166 16.9155 27.6624 12.7812 32.7583 12.7812C37.8541 12.7812 41.9999 16.9155 41.9999 21.9972C41.9999 27.079 37.8541 31.2132 32.7583 31.2132Z"   fill="#47CBC4" ></path><path d="M36.9832 20.944C37.1259 20.944 37.2611 20.9668 37.3925 21.023C37.5239 21.0791 37.6419 21.1532 37.7358 21.2468C37.8296 21.3404 37.9039 21.4581 37.9602 21.5891C38.0165 21.7201 38.0394 21.855 38.0394 21.9972C38.0394 22.147 38.0165 22.2913 37.9602 22.4185C37.9039 22.5458 37.8296 22.6541 37.7358 22.7477C37.6419 22.8413 37.5239 22.9154 37.3925 22.9715C37.2611 23.0276 37.1259 23.0505 36.9832 23.0505L33.8147 23.0505L33.8147 26.2103C33.8147 26.36 33.7918 26.4911 33.7355 26.6184C33.6792 26.7457 33.6048 26.8671 33.511 26.9607C33.4172 27.0543 33.2991 27.1284 33.1678 27.1845C33.0364 27.2407 32.9011 27.2635 32.7585 27.2635C32.6084 27.2635 32.4636 27.2407 32.336 27.1845C32.2084 27.1284 32.0998 27.0543 32.0059 26.9607C31.9121 26.8671 31.8378 26.7457 31.7815 26.6184C31.7252 26.4911 31.7023 26.36 31.7023 26.2103L31.7023 23.0505L28.5337 23.0505C28.3836 23.0505 28.2521 23.0276 28.1245 22.9715C27.9968 22.9154 27.875 22.8413 27.7812 22.7477C27.6874 22.6541 27.6131 22.5458 27.5568 22.4185C27.5005 22.2913 27.4775 22.147 27.4775 21.9972C27.4775 21.855 27.5005 21.7201 27.5568 21.5891C27.6131 21.4581 27.6874 21.3404 27.7812 21.2468C27.875 21.1532 27.9968 21.0791 28.1245 21.023C28.2521 20.9668 28.3836 20.944 28.5337 20.944L31.7023 20.944L31.7023 17.7842C31.7023 17.642 31.7252 17.5071 31.7815 17.3761C31.8378 17.2451 31.9121 17.1273 32.0059 17.0338C32.0998 16.9402 32.2084 16.8661 32.336 16.81C32.4636 16.7538 32.6084 16.731 32.7585 16.731C33.0512 16.731 33.3046 16.8279 33.511 17.0338C33.7174 17.2396 33.8147 17.4923 33.8147 17.7842L33.8147 20.944L36.9832 20.944Z"   fill="#FFFFFF" ></path></svg>