<svg xmlns="http://www.w3.org/2000/svg" xmlns:xlink="http://www.w3.org/1999/xlink" width="42" height="36" viewBox="0 0 42 36" fill="none"><path d="M27.4361 35.9993L2.88801 35.9993C2.84076 35.9993 2.79352 35.9982 2.74632 35.9959C2.69909 35.9936 2.65196 35.9901 2.60494 35.9855C2.55789 35.9809 2.51099 35.9751 2.46424 35.9682C2.41749 35.9613 2.37094 35.9532 2.32458 35.944C2.27822 35.9348 2.23212 35.9245 2.18627 35.913C2.14042 35.9016 2.09489 35.889 2.04968 35.8753C2.00443 35.8616 1.95956 35.8469 1.91507 35.831C1.87058 35.8151 1.82649 35.7982 1.78281 35.7801C1.73916 35.7621 1.69596 35.743 1.65321 35.7228C1.6105 35.7027 1.5683 35.6815 1.52661 35.6593C1.48493 35.6371 1.44382 35.6138 1.40328 35.5896C1.36274 35.5654 1.32282 35.5402 1.28352 35.514C1.24422 35.4878 1.20559 35.4607 1.16762 35.4326C1.12966 35.4045 1.09241 35.3755 1.05588 35.3456C1.01934 35.3157 0.983563 35.2849 0.948541 35.2533C0.91352 35.2217 0.879301 35.1892 0.845881 35.1558C0.812457 35.1225 0.779877 35.0884 0.748136 35.0535C0.716395 35.0185 0.685533 34.9828 0.655548 34.9464C0.625562 34.91 0.596492 34.8728 0.568339 34.835C0.540185 34.7971 0.512975 34.7586 0.486716 34.7194C0.460458 34.6802 0.435182 34.6404 0.410883 34.5999C0.386585 34.5595 0.363294 34.5185 0.341011 34.477C0.318731 34.4354 0.297488 34.3933 0.277281 34.3507C0.257071 34.3081 0.237923 34.265 0.219837 34.2215C0.20175 34.1779 0.184746 34.134 0.168823 34.0896C0.1529 34.0452 0.138077 34.0005 0.124356 33.9554C0.110635 33.9103 0.0980332 33.8649 0.0865502 33.8191C0.0750645 33.7734 0.0647114 33.7274 0.0554905 33.6812C0.0462701 33.635 0.0381925 33.5886 0.0312584 33.5419C0.0243239 33.4953 0.0185404 33.4486 0.0139075 33.4016C0.00927486 33.3547 0.00579868 33.3078 0.00347928 33.2607C0.00115987 33.2136 0 33.1665 0 33.1194C0.000261651 32.9651 0.00327615 32.8109 0.00904314 32.6567C0.0148101 32.5026 0.0233252 32.3486 0.0345886 32.1947C0.0458549 32.0409 0.0598618 31.8873 0.0766091 31.7339C0.0933596 31.5806 0.11284 31.4276 0.135051 31.2749C0.157261 31.1222 0.182189 30.9701 0.209832 30.8183C0.237476 30.6665 0.267821 30.5152 0.300868 30.3645C0.333912 30.2138 0.369634 30.0638 0.408036 29.9144C0.446437 29.7649 0.487492 29.6162 0.531201 29.4683C0.574914 29.3203 0.621248 29.1731 0.670214 29.0268C0.719174 28.8805 0.770734 28.7351 0.824889 28.5906C0.879044 28.4461 0.935757 28.3026 0.995034 28.1601C1.05431 28.0176 1.11611 27.8762 1.18044 27.736C1.24477 27.5957 1.31157 27.4566 1.38086 27.3187C1.45015 27.1807 1.52188 27.0441 1.59605 26.9087C1.67022 26.7734 1.74678 26.6394 1.82572 26.5067C1.90469 26.374 1.98599 26.2428 2.06962 26.1131C2.15325 25.9833 2.23917 25.855 2.32738 25.7283C2.41561 25.6016 2.50607 25.4765 2.59876 25.353C2.69142 25.2295 2.78627 25.1077 2.88332 24.9875C2.98034 24.8674 3.07948 24.749 3.18074 24.6324C3.282 24.5158 3.38531 24.401 3.49066 24.2881C3.59602 24.1751 3.70335 24.0641 3.81268 23.9549C3.922 23.8458 4.03323 23.7386 4.14638 23.6334C4.25952 23.5283 4.3745 23.4251 4.49131 23.324C4.60814 23.2229 4.72678 23.1239 4.84713 23.027C4.96748 22.9301 5.08954 22.8354 5.21327 22.7428C5.33701 22.6503 5.46236 22.5599 5.58935 22.4718C5.71628 22.3837 5.8448 22.2978 5.97485 22.2143C6.10486 22.1307 6.23635 22.0495 6.36929 21.9706C6.50223 21.8918 6.63652 21.8153 6.77217 21.7411C6.90786 21.667 7.04477 21.5953 7.18299 21.5261C7.32121 21.4568 7.46064 21.39 7.60125 21.3258C7.73826 21.3991 7.87643 21.4702 8.01573 21.5391C8.15503 21.608 8.29542 21.6746 8.43688 21.739C8.57835 21.8034 8.72081 21.8655 8.86427 21.9252C9.00776 21.985 9.15216 22.0425 9.29747 22.0977C9.44282 22.1528 9.58898 22.2056 9.73604 22.256C9.8831 22.3065 10.0309 22.3546 10.1795 22.4002C10.3281 22.4459 10.4774 22.4892 10.6274 22.5301C10.7774 22.571 10.928 22.6094 11.0792 22.6455C11.2305 22.6815 11.3823 22.7151 11.5346 22.7463C11.6869 22.7774 11.8397 22.8061 11.9929 22.8323C12.1462 22.8586 12.2999 22.8823 12.4539 22.9036C12.6079 22.9249 12.7622 22.9437 12.9169 22.96C13.0715 22.9764 13.2263 22.9902 13.3814 23.0016C13.5365 23.0129 13.6917 23.0217 13.8471 23.0281C14.0024 23.0344 14.1579 23.0383 14.3134 23.0396C14.4689 23.041 14.6243 23.0398 14.7798 23.0362C14.9352 23.0325 15.0906 23.0263 15.2458 23.0177C15.4011 23.009 15.5562 22.9979 15.7111 22.9842C15.866 22.9706 16.0206 22.9545 16.175 22.9359C16.3293 22.9172 16.4834 22.8961 16.637 22.8725C16.7907 22.849 16.944 22.8229 17.0969 22.7944C17.2497 22.7659 17.4021 22.735 17.5539 22.7015C17.7057 22.6681 17.857 22.6323 18.0077 22.594C18.1583 22.5558 18.3084 22.5151 18.4578 22.4719C18.6071 22.4288 18.7558 22.3833 18.9037 22.3355C19.0516 22.2876 19.1987 22.2373 19.3449 22.1847C19.4912 22.1321 19.6366 22.0771 19.781 22.0198C19.9255 21.9625 20.0691 21.9029 20.2116 21.841C20.3542 21.7791 20.4957 21.7149 20.6362 21.6484C20.7767 21.582 20.9161 21.5133 21.0543 21.4423C21.1926 21.3714 21.3297 21.2982 21.4656 21.2228C21.6014 21.1475 21.7361 21.0699 21.8695 20.9902C21.8347 21.1581 21.8043 21.3267 21.7782 21.4961C21.752 21.6655 21.7303 21.8354 21.7128 22.0059C21.6954 22.1764 21.6823 22.3473 21.6736 22.5184C21.6648 22.6896 21.6605 22.8609 21.6605 23.0322C21.6606 23.2036 21.6649 23.3749 21.6737 23.5461C21.6825 23.7172 21.6956 23.888 21.7131 24.0585C21.7306 24.229 21.7525 24.3989 21.7787 24.5683C21.8049 24.7377 21.8354 24.9063 21.8702 25.0742C21.905 25.242 21.944 25.4088 21.9874 25.5747C22.0307 25.7405 22.0782 25.9052 22.13 26.0686C22.1817 26.232 22.2376 26.3941 22.2976 26.5547C22.3576 26.7153 22.4217 26.8742 22.4898 27.0315C22.558 27.1889 22.6301 27.3444 22.7062 27.498C22.7822 27.6517 22.8622 27.8034 22.946 27.953C23.0298 28.1026 23.1174 28.25 23.2088 28.3952C23.3001 28.5403 23.3951 28.6831 23.4938 28.8234C23.5925 28.9637 23.6946 29.1015 23.8003 29.2366C23.906 29.3717 24.0151 29.5041 24.1276 29.6337C24.24 29.7633 24.3557 29.89 24.4746 30.0137C24.5935 30.1374 24.7155 30.2581 24.8406 30.3756C24.9657 30.4931 25.0937 30.6074 25.2246 30.7184C25.3556 30.8294 25.4893 30.9371 25.6257 31.0413C25.7621 31.1456 25.9011 31.2463 26.0427 31.3434C26.1842 31.4406 26.3282 31.5341 26.4745 31.624C26.6209 31.7138 26.7694 31.7999 26.9202 31.8822C27.0709 31.9645 27.2237 32.0429 27.3784 32.1175C27.5332 32.192 27.6897 32.2626 27.8481 32.3291C28.0064 32.3958 28.1664 32.4583 28.328 32.5168C28.4895 32.5752 28.6524 32.6296 28.8167 32.6797C28.9811 32.7299 29.1466 32.7759 29.3133 32.8177C29.4799 32.8595 29.6475 32.897 29.8162 32.9302C29.9848 32.9635 30.1541 32.9924 30.3242 33.0171L30.3242 33.1194C30.3242 33.1665 30.323 33.2136 30.3207 33.2607C30.3184 33.3078 30.3149 33.3547 30.3103 33.4016C30.3056 33.4486 30.2998 33.4953 30.2929 33.5419C30.286 33.5886 30.2779 33.635 30.2687 33.6812C30.2594 33.7274 30.2491 33.7734 30.2376 33.8191C30.2261 33.8649 30.2135 33.9103 30.1998 33.9554C30.1861 34.0005 30.1713 34.0452 30.1553 34.0896C30.1394 34.134 30.1224 34.1779 30.1043 34.2215C30.0862 34.265 30.0671 34.3081 30.0469 34.3507C30.0267 34.3933 30.0054 34.4354 29.9831 34.477C29.9609 34.5185 29.9376 34.5595 29.9133 34.5999C29.889 34.6404 29.8637 34.6802 29.8374 34.7194C29.8112 34.7586 29.784 34.7971 29.7558 34.835C29.7276 34.8728 29.6986 34.91 29.6686 34.9464C29.6386 34.9828 29.6077 35.0185 29.576 35.0535C29.5443 35.0884 29.5117 35.1225 29.4783 35.1558C29.4448 35.1892 29.4106 35.2217 29.3756 35.2533C29.3406 35.2849 29.3048 35.3157 29.2683 35.3456C29.2318 35.3755 29.1945 35.4045 29.1565 35.4326C29.1186 35.4607 29.0799 35.4878 29.0406 35.514C29.0013 35.5402 28.9614 35.5654 28.9209 35.5896C28.8803 35.6138 28.8392 35.6371 28.7975 35.6593C28.7559 35.6815 28.7136 35.7027 28.6709 35.7228C28.6282 35.743 28.585 35.7621 28.5413 35.7801C28.4977 35.7982 28.4536 35.8151 28.4091 35.831C28.3646 35.8469 28.3197 35.8616 28.2745 35.8753C28.2293 35.889 28.1837 35.9016 28.1379 35.913C28.092 35.9245 28.0459 35.9348 27.9996 35.944C27.9532 35.9532 27.9067 35.9613 27.8599 35.9682C27.8132 35.9751 27.7663 35.9809 27.7192 35.9855C27.6722 35.9901 27.6251 35.9936 27.5778 35.9959C27.5306 35.9982 27.4834 35.9993 27.4361 35.9993Z"   fill="#1191FF" ></path><path d="M4.33203 10.08C4.33203 10.245 4.33609 10.4098 4.34422 10.5746C4.35234 10.7393 4.36451 10.9038 4.38072 11.068C4.39694 11.2322 4.41717 11.3958 4.44141 11.5591C4.46569 11.7222 4.49397 11.8847 4.52625 12.0465C4.55853 12.2083 4.59477 12.3692 4.63496 12.5293C4.67515 12.6893 4.71925 12.8482 4.76726 13.0061C4.81531 13.1639 4.86718 13.3205 4.9229 13.4758C4.97864 13.6312 5.03816 13.785 5.10146 13.9374C5.16476 14.0899 5.23177 14.2406 5.30249 14.3897C5.37322 14.5389 5.44759 14.6862 5.52559 14.8317C5.60357 14.9772 5.68508 15.1206 5.77013 15.2621C5.85517 15.4037 5.94365 15.543 6.03555 15.6802C6.12746 15.8173 6.22269 15.9521 6.32124 16.0847C6.41976 16.2171 6.52151 16.3471 6.62647 16.4747C6.7314 16.6022 6.83941 16.7271 6.95051 16.8493C7.06161 16.9716 7.17564 17.091 7.29261 17.2076C7.40957 17.3243 7.52935 17.438 7.65194 17.5488C7.7745 17.6596 7.89972 17.7673 8.02761 17.8719C8.15549 17.9766 8.28586 18.0781 8.41871 18.1763C8.55159 18.2746 8.6868 18.3695 8.82434 18.4612C8.96188 18.5529 9.10159 18.6411 9.24351 18.7259C9.38542 18.8107 9.52928 18.892 9.67517 18.9697C9.82106 19.0475 9.9688 19.1217 10.1183 19.1922C10.2679 19.2627 10.4191 19.3296 10.5719 19.3927C10.7247 19.4558 10.879 19.5152 11.0348 19.5708C11.1905 19.6263 11.3476 19.678 11.5059 19.726C11.6642 19.7738 11.8235 19.8178 11.984 19.8579C12.1445 19.898 12.3059 19.9341 12.4681 19.9663C12.6303 19.9985 12.7933 20.0267 12.9569 20.0509C13.1206 20.0751 13.2847 20.0953 13.4493 20.1114C13.614 20.1276 13.7789 20.1397 13.9441 20.1478C14.1093 20.1559 14.2747 20.16 14.4401 20.16C14.6055 20.16 14.7709 20.1559 14.9361 20.1478C15.1013 20.1397 15.2662 20.1276 15.4309 20.1114C15.5955 20.0953 15.7596 20.0751 15.9233 20.0509C16.0869 20.0267 16.2498 19.9985 16.4121 19.9663C16.5743 19.9341 16.7356 19.898 16.8962 19.8579C17.0566 19.8178 17.216 19.7738 17.3743 19.726C17.5326 19.678 17.6896 19.6263 17.8454 19.5708C18.0011 19.5152 18.1554 19.4558 18.3083 19.3927C18.4611 19.3296 18.6123 19.2627 18.7618 19.1922C18.9114 19.1217 19.0591 19.0475 19.205 18.9697C19.3509 18.892 19.4947 18.8107 19.6367 18.7259C19.7786 18.6411 19.9183 18.5529 20.0558 18.4612C20.1934 18.3695 20.3286 18.2746 20.4615 18.1763C20.5943 18.0781 20.7247 17.9766 20.8526 17.8719C20.9804 17.7673 21.1057 17.6596 21.2282 17.5488C21.3508 17.438 21.4706 17.3243 21.5876 17.2076C21.7045 17.091 21.8186 16.9716 21.9296 16.8493C22.0407 16.7271 22.1488 16.6022 22.2537 16.4747C22.3587 16.3471 22.4604 16.2171 22.5589 16.0847C22.6575 15.9521 22.7527 15.8173 22.8446 15.6802C22.9365 15.5429 23.025 15.4036 23.11 15.2621C23.1951 15.1206 23.2766 14.9772 23.3546 14.8317C23.4326 14.6862 23.507 14.5389 23.5777 14.3897C23.6484 14.2406 23.7154 14.0899 23.7787 13.9374C23.842 13.785 23.9015 13.6312 23.9573 13.4758C24.013 13.3205 24.0648 13.1639 24.1129 13.0061C24.1609 12.8482 24.205 12.6893 24.2452 12.5292C24.2854 12.3692 24.3216 12.2083 24.3539 12.0465C24.3862 11.8847 24.4145 11.7222 24.4387 11.5591C24.463 11.3958 24.4832 11.2322 24.4994 11.068C24.5156 10.9038 24.5278 10.7393 24.5359 10.5746C24.5441 10.4098 24.5481 10.245 24.5481 10.08C24.5481 9.91503 24.5441 9.75015 24.5359 9.5854C24.5278 9.42066 24.5156 9.25618 24.4994 9.09198C24.4832 8.92782 24.463 8.76415 24.4387 8.60094C24.4145 8.43777 24.3862 8.27527 24.3539 8.1135C24.3216 7.95172 24.2854 7.7908 24.2452 7.63074C24.205 7.47072 24.1609 7.31178 24.1129 7.15392C24.0648 6.99606 24.013 6.83946 23.9573 6.68416C23.9015 6.52882 23.842 6.37497 23.7787 6.22255C23.7154 6.07014 23.6484 5.91939 23.5777 5.77026C23.507 5.62113 23.4326 5.4738 23.3546 5.32831C23.2766 5.18283 23.1951 5.03937 23.11 4.89784C23.025 4.75632 22.9365 4.617 22.8446 4.47984C22.7527 4.34268 22.6575 4.20785 22.5589 4.07533C22.4604 3.94285 22.3587 3.81285 22.2537 3.68532C22.1488 3.55779 22.0407 3.43291 21.9296 3.31069C21.8186 3.18844 21.7045 3.069 21.5876 2.95236C21.4706 2.83572 21.3508 2.722 21.2282 2.61121C21.1057 2.50042 20.9804 2.39271 20.8526 2.28807C20.7247 2.1834 20.5943 2.08194 20.4615 1.98369C20.3286 1.88541 20.1934 1.79045 20.0558 1.69879C19.9183 1.60714 19.7786 1.51892 19.6367 1.4341C19.4947 1.34929 19.3509 1.26801 19.205 1.19025C19.0591 1.11246 18.9114 1.0383 18.7618 0.96777C18.6123 0.897241 18.4611 0.830416 18.3083 0.767295C18.1554 0.704173 18.0011 0.644818 17.8454 0.58923C17.6896 0.533668 17.5326 0.481936 17.3743 0.434025C17.216 0.386145 17.0566 0.342165 16.8962 0.302085C16.7356 0.262005 16.5743 0.22587 16.4121 0.19368C16.2498 0.161499 16.0869 0.133306 15.9233 0.109102C15.7596 0.0848956 15.5955 0.0647068 15.4309 0.048537C15.2662 0.0323671 15.1013 0.0202351 14.9361 0.0121409C14.7709 0.00404709 14.6055 0 14.4401 0C14.2747 0 14.1093 0.00404709 13.9441 0.0121409C13.7789 0.0202351 13.614 0.0323671 13.4493 0.048537C13.2847 0.0647068 13.1206 0.0848956 12.9569 0.109102C12.7933 0.133306 12.6303 0.161499 12.4681 0.19368C12.3059 0.22587 12.1445 0.262005 11.984 0.302085C11.8235 0.342165 11.6642 0.386145 11.5059 0.434025C11.3476 0.481936 11.1905 0.533668 11.0348 0.58923C10.879 0.644818 10.7247 0.704173 10.5719 0.767295C10.4191 0.830416 10.2679 0.897241 10.1183 0.96777C9.9688 1.0383 9.82106 1.11246 9.67517 1.19025C9.52928 1.26801 9.38542 1.34929 9.24351 1.4341C9.10159 1.51892 8.96188 1.60714 8.82434 1.69879C8.6868 1.79045 8.55159 1.88541 8.41871 1.98369C8.28586 2.08194 8.15549 2.1834 8.02761 2.28807C7.89972 2.39271 7.7745 2.50042 7.65194 2.61121C7.52935 2.722 7.40957 2.83572 7.29261 2.95236C7.17564 3.069 7.06161 3.18844 6.95051 3.31069C6.83941 3.43291 6.7314 3.55779 6.62647 3.68532C6.52151 3.81285 6.41976 3.94285 6.32124 4.07533C6.22269 4.20785 6.12746 4.34268 6.03555 4.47984C5.94365 4.617 5.85517 4.75632 5.77013 4.89784C5.68508 5.03937 5.60357 5.18283 5.52559 5.32831C5.44759 5.4738 5.37322 5.62113 5.30249 5.77026C5.23177 5.91939 5.16476 6.07014 5.10146 6.22255C5.03816 6.37497 4.97864 6.52882 4.9229 6.68416C4.86718 6.83946 4.81531 6.99606 4.76726 7.15392C4.71925 7.31178 4.67515 7.47072 4.63496 7.63074C4.59477 7.7908 4.55853 7.95172 4.52625 8.1135C4.49397 8.27527 4.46569 8.43777 4.44141 8.60094C4.41717 8.76415 4.39694 8.92782 4.38072 9.09198C4.36451 9.25618 4.35234 9.42066 4.34422 9.5854C4.33609 9.75015 4.33203 9.91503 4.33203 10.08Z"   fill="#1191FF" ></path><path d="M32.7583 31.2132C27.6624 31.2132 23.5166 27.079 23.5166 21.9972C23.5166 16.9155 27.6624 12.7812 32.7583 12.7812C37.8541 12.7812 41.9999 16.9155 41.9999 21.9972C41.9999 27.079 37.8541 31.2132 32.7583 31.2132Z"   fill="#47CBC4" ></path><path d="M38.1816 20.6798C38.4665 20.6798 38.7235 20.5017 38.8326 20.2283C38.9418 19.9553 38.8813 19.6406 38.68 19.4313L35.4538 16.0831C35.347 15.9723 35.1741 15.9723 35.0672 16.0831L34.4572 16.7163C34.3504 16.8271 34.3504 17.0068 34.4572 17.1175L36.4805 19.2174L26.2701 19.2174C26.121 19.2174 26 19.3428 26 19.4977L26 20.3996C26 20.5544 26.1209 20.68 26.2701 20.68L38.1816 20.68L38.1816 20.6798ZM38.7267 23.32L26.8185 23.32C26.5336 23.32 26.2767 23.4982 26.1675 23.7715C26.0584 24.0446 26.1188 24.3592 26.3201 24.5685L29.5463 27.9169C29.6531 28.0277 29.8261 28.0277 29.9329 27.9169L30.5429 27.2837C30.6497 27.1729 30.6497 26.9932 30.5429 26.8825L28.5196 24.7825L38.7267 24.7825C38.8777 24.7825 39 24.6554 39 24.4988L39 23.6039C39 23.4471 38.8777 23.32 38.7267 23.32Z"   fill="#FFFFFF" ></path></svg>