<?xml version="1.0" standalone="no"?><!DOCTYPE svg PUBLIC "-//W3C//DTD SVG 1.1//EN" "http://www.w3.org/Graphics/SVG/1.1/DTD/svg11.dtd"><svg t="1780503950475" class="icon" viewBox="0 0 1024 1024" version="1.1" xmlns="http://www.w3.org/2000/svg" p-id="2117" width="128" height="128" xmlns:xlink="http://www.w3.org/1999/xlink"><path d="M129.578667 89.045333a12.501333 12.501333 0 0 1 0 17.92 201.685333 201.685333 0 0 0 0 289.109334 12.501333 12.501333 0 0 1 0 17.92 13.098667 13.098667 0 0 1-18.346667-0.042667 226.688 226.688 0 0 1 0.042667-324.906667 13.141333 13.141333 0 0 1 18.304 0z m31.402666 54.698667a11.434667 11.434667 0 0 1 0 16.341333 127.018667 127.018667 0 0 0 0 182.101334 11.434667 11.434667 0 0 1 0 16.384 11.989333 11.989333 0 0 1-16.725333 0 149.888 149.888 0 0 1 0-214.826667 11.989333 11.989333 0 0 1 16.725333 0z m54.058667 29.013333a12.501333 12.501333 0 0 1 0 17.92 84.821333 84.821333 0 0 0 0 121.642667 12.501333 12.501333 0 0 1 0 17.92 13.141333 13.141333 0 0 1-18.346667 0 109.824 109.824 0 0 1 0-157.44 13.141333 13.141333 0 0 1 18.346667 0zM622.677333 87.253333a12.8 12.8 0 0 0 0.213334 18.090667c81.408 81.408 82.773333 212.48 3.072 292.181333a12.757333 12.757333 0 0 0-1.92 15.36l2.133333 2.730667c5.034667 5.077333 13.184 5.12 18.090667 0.128 89.557333-89.557333 88.021333-236.842667-3.456-328.32a12.8 12.8 0 0 0-18.133334-0.170667z m-30.805333 55.253334a11.690667 11.690667 0 0 0 0.170667 16.554666c51.285333 51.242667 52.138667 133.845333 1.92 183.978667a11.690667 11.690667 0 0 0 0.170666 16.554667c4.608 4.608 12.032 4.693333 16.554667 0.170666 59.221333-59.221333 58.197333-156.586667-2.261333-217.088a11.690667 11.690667 0 0 0-16.554667-0.170666z m-52.864 28.458666a12.8 12.8 0 0 0 0.213333 18.133334c34.218667 34.261333 34.816 89.386667 1.28 122.88a12.8 12.8 0 0 0 0.170667 18.133333 12.8 12.8 0 0 0 18.133333 0.170667c43.434667-43.392 42.666667-114.773333-1.706666-159.146667a12.8 12.8 0 0 0-18.090667-0.170667zM484.352 239.36l190.805333 391.125333a17.066667 17.066667 0 0 1-7.893333 22.826667l-58.837333 28.672-18.688-38.4 35.84-17.450667-168.32-345.130666-230.101334 112.213333 168.32 345.173333 125.866667-61.44 18.773333 38.4-148.906666 72.618667a17.066667 17.066667 0 0 1-22.869334-7.850667L177.578667 388.949333a17.066667 17.066667 0 0 1 7.850666-22.826666l276.096-134.656a17.066667 17.066667 0 0 1 22.826667 7.850666z" fill="#4C8CFF" p-id="2118"></path><path d="M347.306667 420.864c2.986667 5.845333 7.210667 10.026667 12.672 12.501333a26.88 26.88 0 0 0 19.242666 0.896l-4.394666-8.661333a18.858667 18.858667 0 0 1-12.074667-0.725333 17.408 17.408 0 0 1-7.68-8.106667c-2.986667-5.930667-3.370667-11.306667-1.152-15.957333 2.133333-4.352 6.4-8.106667 12.8-11.392 6.229333-3.2 11.733333-4.352 16.64-3.498667 5.376 0.853333 9.472 4.181333 12.373333 9.856 1.92 3.84 2.773333 7.338667 2.304 10.624a14.208 14.208 0 0 1-5.205333 9.088l4.394667 8.661333a22.485333 22.485333 0 0 0 9.429333-13.824 27.306667 27.306667 0 0 0-2.986667-18.346666c-4.437333-8.704-10.666667-13.866667-18.773333-15.488-7.04-1.493333-14.677333-0.085333-22.741333 4.010666-8.192 4.181333-13.781333 9.429333-16.64 15.786667-3.413333 7.253333-2.816 15.530667 1.792 24.576z m23.338666 43.178667l16.128-2.005334 11.562667 22.741334-11.093333 11.861333 4.864 9.514667 43.690666-48.426667-5.12-10.112-64.853333 6.912 4.821333 9.514667z m33.621334 14.336l-8.832-17.408 28.16-3.541334 0.170666 0.298667-19.498666 20.650667z m-1.066667 49.578666l22.144-11.264 7.168 14.08c1.536 3.029333 2.133333 5.717333 1.578667 7.978667-0.512 2.176-2.176 4.181333-4.992 5.973333l-6.357334 4.138667a15.317333 15.317333 0 0 0-5.845333 5.973333l4.906667 9.642667a14.805333 14.805333 0 0 1 6.314666-7.338667l8.277334-5.376c5.034667-3.328 6.784-7.552 5.461333-12.8l0.128-0.085333a13.226667 13.226667 0 0 0 8.32 4.437333 14.506667 14.506667 0 0 0 8.704-1.536 16.256 16.256 0 0 0 9.258667-11.136 23.338667 23.338667 0 0 0-2.986667-15.061333l-12.330667-24.149333-54.272 27.648 4.522667 8.874666z m36.906667-1.066666l-7.168-14.08 16.938666-8.618667 7.168 14.08c1.877333 3.626667 2.645333 6.613333 2.133334 8.96-0.426667 2.346667-2.133333 4.266667-5.12 5.76a9.216 9.216 0 0 1-7.68 0.768 14.208 14.208 0 0 1-6.272-6.869333z m-0.426667 72.618666c4.48 8.832 10.282667 14.208 17.493333 16.298667 6.826667 1.962667 14.549333 0.810667 23.168-3.584 8.661333-4.437333 14.165333-9.984 16.512-16.64 2.56-7.04 1.578667-14.933333-2.901333-23.722667l-10.112-19.84-54.272 27.648 10.112 19.84z m6.741333-5.546666l-4.693333-9.258667 39.04-19.925333 4.693333 9.301333c3.498667 6.741333 4.48 12.458667 2.986667 17.152-1.536 4.608-5.76 8.704-12.629333 12.16-6.656 3.413333-12.373333 4.437333-17.109334 2.986667-4.693333-1.493333-8.832-5.632-12.288-12.373334z" fill="#4C8CFF" p-id="2119"></path><path d="M632.533333 489.557333c-27.989333-4.437333-48.426667 0.810667-55.594666 21.504l-2.858667 8.234667 19.797333 34.858667 13.994667 25.386666 12.586667 23.509334 11.178666 21.674666 5.034667 10.112 8.96 18.773334c1.408 2.986667 2.730667 5.930667 3.968 8.746666l6.826667 15.957334 2.773333 6.912c4.266667 11.136 7.125333 20.266667 8.533333 27.264l0.64 3.669333-0.853333-0.426667c-12.544-6.698667-42.837333-31.829333-59.52-53.930666l-15.402667-20.181334-5.845333-6.912c-14.208-16.554667-28.074667-29.098667-42.794667-36.992-22.698667-12.16-46.08-12.032-66.432 3.754667-19.669333 15.274667-22.485333 36.522667-11.946666 58.88l2.901333 5.717333 3.114667 5.418667 1.792 2.773333 4.309333 6.058667 5.589333 7.253333 21.930667 26.752 8.874667 11.264c7.722667 10.282667 12.245333 17.834667 14.677333 24.618667l1.024 3.285333c13.226667 50.048 88.917333 102.698667 182.272 140.629334 22.357333 9.130667 38.826667 20.565333 51.925333 34.389333l3.157334 4.010667 9.301333 12.288c10.069333 12.928 23.68 29.013333 32 31.061333l2.090667 0.426667c8.149333 1.28 28.458667-6.997333 51.285333-18.773334l15.488-8.277333 7.808-4.394667 15.36-9.130666 14.506667-9.130667c18.56-12.032 33.066667-23.125333 36.821333-29.013333 9.856-15.488 4.693333-23.552-11.392-35.882667l-10.24-7.424-24.32-16.725333c-15.872-11.306667-25.728-20.394667-29.610667-27.52-1.706667-3.157333-2.986667-8.96-3.84-18.176l-0.810666-10.453334a440.746667 440.746667 0 0 1-0.298667-6.101333l-0.64-22.272-0.597333-45.525333a822.912 822.912 0 0 0-0.298667-9.301334l-0.853333-16.64c-2.005333-28.16-6.272-44.416-15.573334-56.661333-8.021333-10.538667-29.909333-27.733333-57.173333-46.336l-18.858667-12.544a1207.04 1207.04 0 0 0-19.882666-12.672l-20.352-12.416-20.266667-11.818667-19.541333-10.922666c-28.586667-15.530667-52.992-26.752-64.725334-28.586667z m-9.898666 37.333334l3.925333 0.597333c4.906667 0.768 14.08 4.565333 25.856 10.325333l15.36 7.850667 8.405333 4.522667 17.92 10.069333 18.944 11.050667 19.242667 11.648 18.986667 11.946666 18.090666 11.776 8.490667 5.717334 15.530667 10.88c14.421333 10.453333 25.173333 19.285333 29.354666 24.832 2.816 3.669333 4.906667 11.093333 6.4 22.741333l1.109334 11.093333 0.853333 13.226667 0.768 24.192 0.554667 43.221333 0.469333 15.274667 0.341333 6.741333 0.938667 11.818667c1.450667 14.421333 3.968 23.850667 8.32 31.872 6.528 12.117333 17.493333 22.912 33.706667 35.157333l9.984 7.253334 21.717333 14.848-10.154667 6.570666-13.653333 8.533334-14.933333 8.96-22.186667 13.056-13.013333 7.253333-10.154667 5.418667-3.626667 1.749333-1.408 0.554667-7.509333-11.178667-6.698667-9.386667a148.309333 148.309333 0 0 0-5.973333-7.509333l-6.698667-7.424c-16.768-17.792-37.845333-32.384-65.365333-43.562667-82.346667-33.493333-150.656-81.024-159.616-114.901333-4.394667-16.512-13.013333-30.293333-31.061333-52.565333l-21.930667-26.752-4.992-6.485334-3.669333-5.205333a77.226667 77.226667 0 0 1-1.450667-2.261333l-2.432-4.352-1.066667-2.133334c-3.456-7.338667-3.242667-9.002667 0.725334-12.117333 7.381333-5.674667 14.549333-5.717333 24.746666-0.256 8.106667 4.352 16.896 11.818667 26.197334 21.845333l8.746666 9.984 8.448 10.666667 8.149334 10.837333c33.621333 44.586667 85.034667 84.522667 116.053333 64.810667l2.645333-1.877333c13.738667-10.965333 14.506667-32.213333 2.688-67.072l-5.034666-13.696a417.024 417.024 0 0 0-2.944-7.338667l-6.826667-15.701333-7.936-17.066667-9.130667-18.432-10.325333-19.925333-11.477333-21.376-22.4-40.32z" fill="#4C8CFF" p-id="2120"></path></svg>