<svg xmlns="http://www.w3.org/2000/svg" xmlns:xlink="http://www.w3.org/1999/xlink" width="287" height="422" viewBox="0 0 287 422" fill="none"><g  clip-path="url(#clip-path-zuyBY5LXA2994aMFUJKVh)"><g filter="url(#filter_QMcRn4lahgXs3XKfJ8ajw)"><rect  x="4.5" y="2" width="279" height="414" rx="34"    fill="url(#linear_fill_Rf4gFvjrFmLcqsoTeWV-V_0)" ></rect><path   fill="url(#linear_border_jx92M1OS9OME9u8bST1RR_0)"  d="M40.5 3L247.5 3C265.725 3 280.5 17.7746 280.5 36L280.5 380C280.5 398.225 265.725 413 247.5 413L40.5 413C22.2746 413 7.5 398.225 7.5 380L7.5 36C7.5 17.7746 22.2746 3 40.5 3ZM40.5 5C23.3792 5 9.5 18.8792 9.5 36L9.5 380C9.5 397.121 23.3792 411 40.5 411L247.5 411C264.621 411 278.5 397.121 278.5 380L278.5 36C278.5 18.8792 264.621 5 247.5 5L40.5 5Z"></path><rect  x="16.5" y="31" width="255" height="282" rx="11"    fill="url(#linear_fill_TcDhEdaSVq9LHQ-HrEPVu_0)" ></rect><path   fill="rgba(17, 24, 39, 1.00)"  d="M27.5 31L260.5 31C266.575 31 271.5 35.9249 271.5 42L271.5 302C271.5 308.075 266.575 313 260.5 313L27.5 313C21.4249 313 16.5 308.075 16.5 302L16.5 42C16.5 35.9249 21.4249 31 27.5 31ZM27.5 33C22.5294 33 18.5 37.0294 18.5 42L18.5 302C18.5 306.971 22.5294 311 27.5 311L260.5 311C265.471 311 269.5 306.971 269.5 302L269.5 42C269.5 37.0294 265.471 33 260.5 33L27.5 33Z"></path><g opacity="0.7"><path    stroke="rgba(236, 239, 237, 1.00)" stroke-width="13"  stroke-linecap="round"  d="M94.5 348L193.5 348"></path></g><g opacity="0.42"><path    stroke="rgba(255, 255, 255, 1.00)" stroke-width="5"  stroke-linecap="round"  d="M100.5 349L187.5 349"></path></g></g><g filter="url(#filter_ej6w3sT8oat6TF4knhfEy)"></g><path d="M96.6974 120.131C96.716 120.149 96.7342 120.167 96.7519 120.186C96.7697 120.205 96.7869 120.225 96.8037 120.245C96.8204 120.265 96.8366 120.285 96.8523 120.306C96.868 120.327 96.8832 120.348 96.8979 120.369C96.9126 120.391 96.9267 120.412 96.9404 120.435C96.954 120.457 96.967 120.479 96.9794 120.502C96.9919 120.525 97.0038 120.548 97.015 120.572C97.0264 120.595 97.0371 120.619 97.0472 120.643C97.0573 120.667 97.0669 120.691 97.0758 120.715C97.0847 120.74 97.093 120.764 97.1007 120.789C97.1083 120.814 97.1154 120.839 97.1218 120.864C97.1283 120.89 97.1341 120.915 97.1392 120.94C97.1443 120.966 97.1489 120.992 97.1528 121.017C97.1567 121.043 97.1599 121.069 97.1625 121.095C97.1651 121.121 97.1671 121.147 97.1684 121.173C97.1697 121.199 97.1703 121.225 97.1703 121.251C97.1703 121.277 97.1697 121.303 97.1684 121.329C97.1671 121.355 97.1651 121.381 97.1625 121.406C97.1599 121.432 97.1567 121.458 97.1528 121.484C97.1489 121.51 97.1443 121.535 97.1392 121.561C97.1341 121.586 97.1283 121.612 97.1218 121.637C97.1154 121.662 97.1083 121.687 97.1007 121.712C97.093 121.737 97.0847 121.761 97.0758 121.786C97.0669 121.81 97.0573 121.834 97.0472 121.858C97.0371 121.882 97.0264 121.906 97.015 121.93C97.0038 121.953 96.9919 121.976 96.9794 121.999C96.967 122.022 96.954 122.044 96.9404 122.067C96.9267 122.089 96.9126 122.111 96.8979 122.132C96.8832 122.154 96.868 122.175 96.8523 122.195C96.8366 122.216 96.8204 122.236 96.8037 122.256C96.7869 122.276 96.7697 122.296 96.7519 122.315C96.7342 122.334 96.716 122.352 96.6974 122.371C96.3965 122.663 96.1031 122.963 95.8172 123.271C95.5313 123.578 95.2533 123.893 94.983 124.214C94.7129 124.535 94.4509 124.863 94.197 125.197C93.9433 125.532 93.698 125.872 93.4612 126.219C93.2243 126.565 92.9963 126.918 92.7772 127.276C92.5579 127.634 92.3478 127.997 92.1468 128.366C91.9457 128.734 91.754 129.107 91.5716 129.486C91.3892 129.864 91.2163 130.246 91.053 130.633C90.8897 131.02 90.7362 131.41 90.5924 131.805C90.4486 132.199 90.3147 132.597 90.1908 132.998C90.0669 133.399 89.953 133.803 89.8493 134.21C89.7455 134.616 89.652 135.025 89.5687 135.437C89.4854 135.848 89.4124 136.262 89.3497 136.677C89.2871 137.092 89.2348 137.508 89.1929 137.926C89.1511 138.344 89.1197 138.762 89.0987 139.181C89.0778 139.601 89.0673 140.02 89.0673 140.44C89.0673 140.86 89.0778 141.279 89.0987 141.699C89.1197 142.118 89.1511 142.536 89.1929 142.954C89.2348 143.372 89.2871 143.788 89.3497 144.203C89.4124 144.618 89.4854 145.032 89.5687 145.443C89.652 145.854 89.7455 146.264 89.8493 146.67C89.953 147.077 90.0669 147.481 90.1908 147.882C90.3147 148.283 90.4486 148.681 90.5924 149.075C90.7361 149.47 90.8897 149.86 91.053 150.247C91.2163 150.634 91.3892 151.016 91.5716 151.394C91.754 151.772 91.9457 152.146 92.1468 152.514C92.3478 152.883 92.5579 153.246 92.7772 153.604C92.9963 153.962 93.2243 154.314 93.4612 154.661C93.698 155.008 93.9433 155.348 94.197 155.683C94.4509 156.017 94.7129 156.345 94.983 156.666C95.2533 156.987 95.5313 157.302 95.8172 157.609C96.1031 157.916 96.3965 158.217 96.6974 158.509C96.716 158.527 96.7342 158.546 96.7519 158.565C96.7697 158.584 96.7869 158.604 96.8037 158.624C96.8204 158.643 96.8366 158.664 96.8523 158.684C96.868 158.705 96.8832 158.726 96.8979 158.748C96.9126 158.769 96.9267 158.791 96.9404 158.813C96.954 158.835 96.967 158.858 96.9794 158.881C96.9919 158.904 97.0038 158.927 97.015 158.95C97.0264 158.974 97.0371 158.997 97.0472 159.021C97.0573 159.045 97.0669 159.07 97.0758 159.094C97.0847 159.118 97.093 159.143 97.1007 159.168C97.1083 159.193 97.1154 159.218 97.1218 159.243C97.1283 159.268 97.1341 159.294 97.1392 159.319C97.1443 159.345 97.1489 159.37 97.1528 159.396C97.1567 159.422 97.1599 159.448 97.1625 159.473C97.1651 159.499 97.1671 159.525 97.1684 159.551C97.1697 159.577 97.1703 159.603 97.1703 159.629C97.1703 159.655 97.1697 159.681 97.1684 159.707C97.1671 159.733 97.1651 159.759 97.1625 159.785C97.1599 159.811 97.1567 159.837 97.1528 159.863C97.1489 159.888 97.1443 159.914 97.1392 159.939C97.1341 159.965 97.1283 159.99 97.1218 160.015C97.1154 160.041 97.1083 160.066 97.1007 160.091C97.093 160.115 97.0847 160.14 97.0758 160.165C97.0669 160.189 97.0573 160.213 97.0472 160.237C97.0371 160.261 97.0264 160.285 97.015 160.308C97.0038 160.332 96.9919 160.355 96.9794 160.378C96.967 160.401 96.954 160.423 96.9404 160.445C96.9267 160.467 96.9126 160.489 96.8979 160.511C96.8832 160.532 96.868 160.553 96.8523 160.574C96.8366 160.595 96.8204 160.615 96.8037 160.635C96.7869 160.655 96.7697 160.674 96.7519 160.693C96.7342 160.713 96.716 160.731 96.6974 160.749C96.6784 160.768 96.659 160.786 96.6393 160.803C96.6194 160.821 96.5992 160.838 96.5785 160.855C96.5579 160.871 96.5369 160.887 96.5155 160.903C96.494 160.918 96.4722 160.933 96.4502 160.948C96.428 160.962 96.4055 160.976 96.3827 160.99C96.3598 161.003 96.3367 161.016 96.3133 161.028C96.2898 161.04 96.266 161.052 96.242 161.063C96.218 161.074 96.1938 161.085 96.1693 161.095C96.1447 161.105 96.1199 161.114 96.095 161.123C96.07 161.132 96.0448 161.14 96.0194 161.147C95.9941 161.155 95.9685 161.162 95.9428 161.168C95.9171 161.175 95.8913 161.18 95.8653 161.185C95.8393 161.19 95.8132 161.195 95.787 161.198C95.7608 161.202 95.7345 161.205 95.7082 161.208C95.6818 161.21 95.6554 161.212 95.629 161.213C95.6025 161.215 95.5761 161.215 95.5497 161.215C95.5232 161.215 95.4967 161.214 95.4703 161.213C95.4438 161.212 95.4174 161.21 95.391 161.207C95.3647 161.204 95.3384 161.201 95.3123 161.197C95.2861 161.193 95.26 161.189 95.234 161.184C95.2081 161.179 95.1823 161.173 95.1567 161.166C95.131 161.16 95.1054 161.153 95.08 161.145C95.0547 161.138 95.0296 161.129 95.0047 161.12C94.9797 161.112 94.955 161.102 94.9305 161.092C94.906 161.082 94.8818 161.071 94.8579 161.06C94.8339 161.049 94.8102 161.037 94.7868 161.025C94.7634 161.012 94.7404 160.999 94.7177 160.986C94.6949 160.972 94.6725 160.958 94.6504 160.944C94.6283 160.929 94.6066 160.914 94.5852 160.898C94.5638 160.883 94.5429 160.866 94.5224 160.85C94.5018 160.833 94.4817 160.816 94.4619 160.798C94.4422 160.781 94.4229 160.763 94.404 160.744C94.066 160.415 93.7364 160.078 93.4152 159.732C93.094 159.386 92.7816 159.033 92.4781 158.672C92.1746 158.311 91.8802 157.942 91.5951 157.567C91.3099 157.191 91.0344 156.808 90.7683 156.418C90.5023 156.029 90.2462 155.633 89.9999 155.23C89.7537 154.828 89.5177 154.42 89.2918 154.006C89.0659 153.591 88.8506 153.172 88.6457 152.747C88.4408 152.322 88.2466 151.892 88.0632 151.458C87.8798 151.023 87.7073 150.584 87.5458 150.141C87.3843 149.697 87.2339 149.25 87.0948 148.8C86.9556 148.349 86.8277 147.895 86.7112 147.438C86.5947 146.981 86.4897 146.521 86.3961 146.059C86.3026 145.596 86.2207 145.132 86.1503 144.665C86.08 144.199 86.0213 143.731 85.9743 143.261C85.9273 142.792 85.8921 142.322 85.8686 141.851C85.8452 141.379 85.8334 140.908 85.8335 140.436C85.8336 139.964 85.8454 139.493 85.869 139.022C85.8926 138.551 85.928 138.08 85.9751 137.611C86.0222 137.142 86.0809 136.674 86.1514 136.207C86.2219 135.741 86.304 135.276 86.3976 134.814C86.4913 134.352 86.5964 133.892 86.7131 133.435C86.8297 132.978 86.9577 132.524 87.0969 132.073C87.2362 131.622 87.3867 131.175 87.5483 130.732C87.71 130.289 87.8825 129.85 88.0661 129.415C88.2496 128.981 88.4439 128.551 88.6489 128.126C88.8539 127.701 89.0694 127.282 89.2954 126.868C89.5213 126.453 89.7575 126.045 90.0038 125.643C90.2502 125.241 90.5064 124.845 90.7725 124.455C91.0387 124.066 91.3143 123.683 91.5996 123.307C91.8848 122.931 92.1793 122.563 92.4829 122.202C92.7865 121.841 93.099 121.488 93.4203 121.142C93.7415 120.797 94.0712 120.46 94.4094 120.131C94.4283 120.112 94.4477 120.094 94.4674 120.077C94.4872 120.059 94.5074 120.043 94.528 120.026C94.5486 120.01 94.5696 119.994 94.591 119.978C94.6124 119.963 94.6341 119.948 94.6562 119.933C94.6782 119.919 94.7007 119.905 94.7234 119.892C94.7462 119.878 94.7692 119.866 94.7927 119.854C94.816 119.841 94.8396 119.83 94.8635 119.819C94.8875 119.808 94.9117 119.797 94.9362 119.787C94.9606 119.777 94.9852 119.768 95.0102 119.759C95.035 119.75 95.0601 119.742 95.0854 119.735C95.1107 119.727 95.1361 119.72 95.1617 119.714C95.1873 119.708 95.2131 119.702 95.2389 119.697C95.2648 119.692 95.2908 119.688 95.3169 119.684C95.343 119.68 95.3692 119.677 95.3954 119.674C95.4217 119.672 95.4479 119.67 95.4743 119.669C95.5006 119.667 95.527 119.667 95.5534 119.667C95.5797 119.667 95.6061 119.667 95.6324 119.669C95.6587 119.67 95.685 119.672 95.7113 119.674C95.7375 119.677 95.7637 119.68 95.7898 119.684C95.8159 119.688 95.8419 119.692 95.8678 119.697C95.8937 119.702 95.9194 119.708 95.945 119.714C95.9706 119.72 95.9961 119.727 96.0214 119.735C96.0467 119.742 96.0717 119.75 96.0967 119.759C96.1215 119.768 96.1462 119.777 96.1707 119.787C96.1951 119.797 96.2192 119.808 96.2432 119.819C96.2671 119.83 96.2907 119.841 96.3142 119.854C96.3375 119.866 96.3605 119.878 96.3833 119.892C96.406 119.905 96.4284 119.919 96.4505 119.933C96.4726 119.948 96.4944 119.963 96.5158 119.978C96.5371 119.994 96.5581 120.01 96.5788 120.026C96.5994 120.043 96.6195 120.059 96.6393 120.077C96.6591 120.094 96.6785 120.112 96.6974 120.131ZM100.623 126.968C100.64 126.984 100.656 127.001 100.672 127.019C100.688 127.036 100.704 127.054 100.719 127.072C100.734 127.09 100.749 127.109 100.763 127.128C100.778 127.147 100.792 127.166 100.805 127.186C100.818 127.205 100.831 127.225 100.843 127.246C100.856 127.266 100.867 127.286 100.879 127.307C100.89 127.328 100.901 127.349 100.911 127.37C100.921 127.392 100.931 127.413 100.94 127.435C100.95 127.457 100.958 127.479 100.966 127.502C100.974 127.524 100.982 127.546 100.989 127.569C100.996 127.592 101.002 127.614 101.008 127.637C101.014 127.66 101.019 127.683 101.024 127.707C101.029 127.73 101.033 127.753 101.036 127.777C101.04 127.8 101.043 127.824 101.045 127.847C101.047 127.871 101.049 127.894 101.05 127.918C101.051 127.942 101.052 127.966 101.052 127.989C101.052 128.013 101.051 128.037 101.05 128.06C101.049 128.084 101.047 128.108 101.045 128.131C101.043 128.155 101.04 128.178 101.036 128.202C101.033 128.225 101.029 128.249 101.024 128.272C101.019 128.295 101.014 128.318 101.008 128.341C101.002 128.364 100.996 128.387 100.989 128.41C100.982 128.432 100.974 128.455 100.966 128.477C100.958 128.499 100.95 128.521 100.94 128.543C100.931 128.565 100.921 128.587 100.911 128.608C100.901 128.629 100.89 128.651 100.879 128.671C100.867 128.692 100.856 128.713 100.843 128.733C100.831 128.753 100.818 128.773 100.805 128.793C100.792 128.812 100.778 128.832 100.763 128.851C100.749 128.869 100.734 128.888 100.719 128.906C100.704 128.924 100.688 128.942 100.672 128.96C100.656 128.977 100.64 128.994 100.623 129.011C100.433 129.195 100.248 129.384 100.068 129.578C99.8881 129.771 99.713 129.969 99.5427 130.172C99.3725 130.374 99.2075 130.58 99.0475 130.791C98.8876 131.001 98.7331 131.216 98.5839 131.434C98.4347 131.653 98.2911 131.875 98.153 132.1C98.0149 132.326 97.8826 132.554 97.7559 132.787C97.6292 133.019 97.5084 133.254 97.3935 133.492C97.2786 133.73 97.1697 133.971 97.0668 134.215C96.9639 134.458 96.8672 134.704 96.7767 134.953C96.6861 135.201 96.6017 135.452 96.5237 135.704C96.4456 135.957 96.3739 136.211 96.3085 136.467C96.2431 136.724 96.1842 136.981 96.1317 137.241C96.0792 137.5 96.0333 137.76 95.9938 138.021C95.9543 138.283 95.9214 138.545 95.895 138.808C95.8686 139.071 95.8488 139.335 95.8357 139.599C95.8224 139.863 95.8158 140.128 95.8158 140.392C95.8158 140.656 95.8224 140.921 95.8357 141.185C95.8488 141.449 95.8686 141.712 95.895 141.976C95.9214 142.239 95.9543 142.501 95.9938 142.762C96.0333 143.024 96.0792 143.284 96.1317 143.543C96.1842 143.802 96.2431 144.06 96.3085 144.316C96.3739 144.573 96.4456 144.827 96.5237 145.08C96.6017 145.332 96.6861 145.583 96.7767 145.831C96.8672 146.08 96.9639 146.326 97.0668 146.569C97.1697 146.813 97.2786 147.054 97.3935 147.292C97.5084 147.53 97.6292 147.765 97.7559 147.997C97.8826 148.229 98.0149 148.458 98.153 148.684C98.2911 148.909 98.4347 149.131 98.5839 149.35C98.7331 149.568 98.8876 149.782 99.0475 149.993C99.2075 150.204 99.3725 150.41 99.5427 150.612C99.713 150.815 99.8881 151.013 100.068 151.206C100.248 151.4 100.433 151.589 100.623 151.773C100.64 151.79 100.656 151.807 100.672 151.824C100.689 151.842 100.704 151.86 100.72 151.878C100.735 151.896 100.75 151.915 100.764 151.934C100.779 151.952 100.793 151.972 100.806 151.991C100.819 152.011 100.832 152.031 100.845 152.051C100.857 152.072 100.869 152.092 100.88 152.113C100.892 152.134 100.903 152.155 100.913 152.177C100.923 152.198 100.933 152.22 100.942 152.242C100.952 152.263 100.96 152.286 100.968 152.308C100.977 152.33 100.984 152.353 100.991 152.376C100.998 152.398 101.005 152.421 101.01 152.444C101.016 152.467 101.022 152.49 101.026 152.514C101.031 152.537 101.035 152.561 101.039 152.584C101.042 152.608 101.045 152.631 101.048 152.655C101.05 152.678 101.052 152.702 101.053 152.726C101.054 152.75 101.055 152.773 101.055 152.797C101.055 152.821 101.054 152.845 101.053 152.869C101.052 152.892 101.05 152.916 101.048 152.94C101.045 152.963 101.042 152.987 101.039 153.011C101.035 153.034 101.031 153.057 101.026 153.081C101.022 153.104 101.016 153.127 101.01 153.15C101.005 153.173 100.998 153.196 100.991 153.219C100.984 153.242 100.977 153.264 100.968 153.287C100.96 153.309 100.952 153.331 100.942 153.353C100.933 153.375 100.923 153.397 100.913 153.418C100.903 153.439 100.892 153.461 100.88 153.481C100.869 153.502 100.857 153.523 100.845 153.543C100.832 153.564 100.819 153.584 100.806 153.603C100.793 153.623 100.779 153.642 100.764 153.661C100.75 153.68 100.735 153.699 100.72 153.717C100.704 153.735 100.689 153.753 100.672 153.77C100.656 153.788 100.64 153.805 100.623 153.821C100.605 153.838 100.588 153.854 100.57 153.87C100.552 153.886 100.533 153.902 100.514 153.917C100.496 153.932 100.476 153.947 100.457 153.961C100.437 153.975 100.417 153.989 100.397 154.002C100.377 154.015 100.357 154.028 100.336 154.04C100.315 154.052 100.294 154.064 100.273 154.075C100.251 154.086 100.23 154.097 100.208 154.107C100.186 154.117 100.164 154.127 100.141 154.136C100.119 154.145 100.097 154.153 100.074 154.161C100.051 154.169 100.028 154.177 100.005 154.184C99.9821 154.191 99.9589 154.197 99.9354 154.203C99.912 154.208 99.8885 154.214 99.8647 154.218C99.8411 154.223 99.8174 154.227 99.7935 154.23C99.7697 154.234 99.7457 154.237 99.7217 154.239C99.6977 154.241 99.6737 154.243 99.6496 154.244C99.6256 154.245 99.6015 154.246 99.5774 154.246C99.5532 154.246 99.5291 154.245 99.505 154.244C99.481 154.243 99.457 154.241 99.433 154.239C99.409 154.237 99.3851 154.234 99.3611 154.23C99.3374 154.227 99.3136 154.223 99.2899 154.218C99.2662 154.214 99.2427 154.208 99.2194 154.203C99.196 154.197 99.1727 154.191 99.1495 154.184C99.1265 154.177 99.1035 154.169 99.0807 154.161C99.058 154.153 99.0355 154.145 99.0131 154.136C98.9909 154.127 98.9688 154.117 98.9469 154.107C98.925 154.097 98.9034 154.086 98.882 154.075C98.8607 154.064 98.8396 154.052 98.8189 154.04C98.7981 154.028 98.7776 154.015 98.7574 154.002C98.7372 153.989 98.7174 153.975 98.6979 153.961C98.6784 153.947 98.6591 153.932 98.6404 153.917C98.6216 153.902 98.6031 153.886 98.585 153.87C98.567 153.854 98.5492 153.838 98.532 153.821C98.3085 153.604 98.0906 153.381 97.8782 153.152C97.6657 152.924 97.4592 152.69 97.2584 152.451C97.0577 152.213 96.8631 151.969 96.6745 151.721C96.4859 151.472 96.3037 151.219 96.1278 150.962C95.9519 150.704 95.7825 150.442 95.6197 150.176C95.4568 149.91 95.3007 149.64 95.1514 149.366C95.002 149.092 94.8595 148.815 94.724 148.534C94.5885 148.253 94.4601 147.969 94.3388 147.682C94.2174 147.394 94.1034 147.104 93.9967 146.811C93.8898 146.518 93.7904 146.222 93.6983 145.924C93.6062 145.626 93.5216 145.326 93.4445 145.024C93.3674 144.722 93.298 144.418 93.2362 144.112C93.1742 143.806 93.12 143.499 93.0734 143.191C93.0269 142.882 92.9881 142.573 92.957 142.263C92.9259 141.952 92.9026 141.641 92.887 141.33C92.8714 141.018 92.8636 140.706 92.8636 140.395C92.8636 140.083 92.8714 139.771 92.887 139.459C92.9026 139.148 92.9259 138.837 92.957 138.527C92.9881 138.216 93.0269 137.907 93.0734 137.598C93.12 137.29 93.1742 136.983 93.2362 136.677C93.298 136.371 93.3674 136.067 93.4445 135.765C93.5216 135.463 93.6062 135.163 93.6983 134.865C93.7904 134.567 93.8898 134.271 93.9967 133.978C94.1034 133.685 94.2174 133.395 94.3388 133.108C94.4601 132.82 94.5885 132.536 94.724 132.255C94.8595 131.974 95.002 131.697 95.1514 131.423C95.3007 131.149 95.4568 130.879 95.6197 130.613C95.7825 130.347 95.9519 130.085 96.1278 129.828C96.3037 129.57 96.4859 129.317 96.6745 129.069C96.8631 128.82 97.0577 128.576 97.2584 128.338C97.4592 128.099 97.6657 127.865 97.8782 127.637C98.0906 127.408 98.3085 127.185 98.532 126.968C98.5492 126.951 98.567 126.935 98.585 126.919C98.6031 126.903 98.6216 126.887 98.6404 126.872C98.6591 126.857 98.6784 126.842 98.6979 126.828C98.7174 126.814 98.7372 126.801 98.7574 126.787C98.7776 126.774 98.7981 126.761 98.8189 126.749C98.8396 126.737 98.8607 126.725 98.882 126.714C98.9034 126.703 98.925 126.692 98.9469 126.682C98.9688 126.672 98.9909 126.662 99.0131 126.653C99.0355 126.644 99.058 126.636 99.0807 126.628C99.1035 126.62 99.1265 126.612 99.1495 126.606C99.1727 126.599 99.196 126.592 99.2194 126.587C99.2427 126.581 99.2662 126.576 99.2899 126.571C99.3136 126.566 99.3374 126.562 99.3611 126.559C99.3851 126.555 99.409 126.552 99.433 126.55C99.457 126.548 99.481 126.546 99.505 126.545C99.5291 126.544 99.5532 126.543 99.5774 126.543C99.6015 126.543 99.6256 126.544 99.6496 126.545C99.6737 126.546 99.6977 126.548 99.7217 126.55C99.7457 126.552 99.7697 126.555 99.7935 126.559C99.8174 126.562 99.8411 126.566 99.8647 126.571C99.8885 126.576 99.912 126.581 99.9354 126.587C99.9589 126.592 99.9821 126.599 100.005 126.606C100.028 126.612 100.051 126.62 100.074 126.628C100.097 126.636 100.119 126.644 100.141 126.653C100.164 126.662 100.186 126.672 100.208 126.682C100.23 126.692 100.251 126.703 100.273 126.714C100.294 126.725 100.315 126.737 100.336 126.749C100.357 126.761 100.377 126.774 100.397 126.787C100.417 126.801 100.437 126.814 100.457 126.828C100.476 126.842 100.496 126.857 100.514 126.872C100.533 126.887 100.552 126.903 100.57 126.919C100.588 126.935 100.605 126.951 100.623 126.968ZM107.38 130.595C107.399 130.613 107.417 130.631 107.434 130.65C107.452 130.669 107.469 130.689 107.486 130.709C107.503 130.729 107.519 130.749 107.535 130.77C107.551 130.791 107.566 130.812 107.581 130.833C107.595 130.855 107.609 130.876 107.623 130.899C107.637 130.921 107.65 130.943 107.662 130.966C107.674 130.989 107.686 131.012 107.698 131.036C107.709 131.059 107.72 131.083 107.73 131.107C107.74 131.131 107.749 131.155 107.758 131.179C107.767 131.204 107.776 131.228 107.783 131.253C107.791 131.278 107.798 131.303 107.804 131.328C107.811 131.354 107.817 131.379 107.822 131.404C107.827 131.43 107.832 131.456 107.835 131.481C107.839 131.507 107.843 131.533 107.845 131.559C107.848 131.585 107.85 131.611 107.851 131.637C107.852 131.663 107.853 131.689 107.853 131.715C107.853 131.741 107.852 131.767 107.851 131.793C107.85 131.819 107.848 131.844 107.845 131.87C107.843 131.896 107.839 131.922 107.835 131.948C107.832 131.974 107.827 131.999 107.822 132.025C107.817 132.05 107.811 132.076 107.804 132.101C107.798 132.126 107.791 132.151 107.783 132.176C107.776 132.201 107.767 132.225 107.758 132.25C107.749 132.274 107.74 132.299 107.73 132.322C107.72 132.346 107.709 132.37 107.698 132.394C107.686 132.417 107.674 132.44 107.662 132.463C107.65 132.486 107.637 132.508 107.623 132.531C107.609 132.553 107.595 132.575 107.581 132.596C107.566 132.618 107.551 132.639 107.535 132.659C107.519 132.68 107.503 132.7 107.486 132.72C107.469 132.74 107.452 132.76 107.434 132.779C107.417 132.798 107.399 132.816 107.38 132.835C107.253 132.958 107.13 133.084 107.009 133.213C106.889 133.343 106.772 133.475 106.658 133.61C106.544 133.745 106.434 133.883 106.327 134.024C106.221 134.164 106.117 134.308 106.017 134.453C105.918 134.599 105.822 134.747 105.73 134.898C105.637 135.049 105.549 135.202 105.464 135.357C105.38 135.512 105.299 135.669 105.222 135.828C105.145 135.987 105.072 136.148 105.004 136.311C104.935 136.473 104.87 136.638 104.81 136.804C104.749 136.969 104.693 137.137 104.641 137.306C104.588 137.474 104.541 137.644 104.497 137.816C104.453 137.987 104.414 138.159 104.379 138.332C104.344 138.505 104.313 138.679 104.286 138.854C104.26 139.028 104.238 139.204 104.22 139.379C104.203 139.555 104.19 139.731 104.181 139.908C104.172 140.084 104.168 140.261 104.168 140.437C104.168 140.614 104.172 140.79 104.181 140.967C104.19 141.143 104.203 141.319 104.22 141.495C104.238 141.671 104.26 141.846 104.286 142.021C104.313 142.195 104.344 142.369 104.379 142.543C104.414 142.716 104.453 142.888 104.497 143.059C104.541 143.23 104.588 143.4 104.641 143.569C104.693 143.738 104.749 143.905 104.81 144.071C104.87 144.237 104.935 144.401 105.004 144.564C105.072 144.727 105.145 144.888 105.222 145.047C105.299 145.206 105.379 145.363 105.464 145.518C105.549 145.673 105.637 145.826 105.73 145.976C105.822 146.127 105.918 146.275 106.017 146.421C106.117 146.567 106.221 146.71 106.327 146.851C106.434 146.991 106.544 147.129 106.658 147.265C106.772 147.4 106.889 147.532 107.009 147.661C107.13 147.791 107.253 147.917 107.38 148.04C107.399 148.058 107.417 148.077 107.434 148.096C107.452 148.115 107.469 148.134 107.486 148.154C107.503 148.174 107.519 148.194 107.535 148.215C107.551 148.236 107.566 148.257 107.581 148.278C107.595 148.3 107.609 148.322 107.623 148.344C107.637 148.366 107.65 148.389 107.662 148.412C107.674 148.434 107.686 148.458 107.698 148.481C107.709 148.504 107.72 148.528 107.73 148.552C107.74 148.576 107.749 148.6 107.758 148.625C107.767 148.649 107.776 148.674 107.783 148.699C107.791 148.724 107.798 148.749 107.804 148.774C107.811 148.799 107.817 148.824 107.822 148.85C107.827 148.875 107.832 148.901 107.835 148.927C107.839 148.952 107.843 148.978 107.845 149.004C107.848 149.03 107.85 149.056 107.851 149.082C107.852 149.108 107.853 149.134 107.853 149.16C107.853 149.186 107.852 149.212 107.851 149.238C107.85 149.264 107.848 149.29 107.845 149.316C107.843 149.342 107.839 149.367 107.835 149.393C107.832 149.419 107.827 149.445 107.822 149.47C107.817 149.496 107.811 149.521 107.804 149.546C107.798 149.571 107.791 149.596 107.783 149.621C107.776 149.646 107.767 149.671 107.758 149.695C107.749 149.72 107.74 149.744 107.73 149.768C107.72 149.792 107.709 149.816 107.698 149.839C107.686 149.862 107.674 149.885 107.662 149.908C107.65 149.931 107.637 149.954 107.623 149.976C107.609 149.998 107.595 150.02 107.581 150.041C107.566 150.063 107.551 150.084 107.535 150.105C107.519 150.125 107.503 150.146 107.486 150.166C107.469 150.186 107.452 150.205 107.434 150.224C107.417 150.243 107.399 150.262 107.38 150.28C107.361 150.298 107.342 150.316 107.322 150.334C107.302 150.351 107.282 150.368 107.261 150.385C107.241 150.402 107.22 150.418 107.198 150.433C107.177 150.449 107.155 150.464 107.133 150.478C107.111 150.493 107.088 150.507 107.065 150.52C107.043 150.533 107.02 150.546 106.996 150.559C106.973 150.571 106.949 150.583 106.925 150.594C106.901 150.605 106.877 150.615 106.852 150.625C106.828 150.635 106.803 150.645 106.778 150.653C106.753 150.662 106.728 150.67 106.703 150.678C106.677 150.685 106.652 150.692 106.626 150.699C106.6 150.705 106.575 150.711 106.549 150.716C106.523 150.721 106.497 150.725 106.47 150.729C106.444 150.733 106.418 150.736 106.392 150.739C106.365 150.741 106.339 150.743 106.313 150.744C106.286 150.746 106.26 150.746 106.233 150.746C106.207 150.746 106.18 150.746 106.154 150.744C106.128 150.743 106.101 150.741 106.075 150.739C106.049 150.736 106.022 150.733 105.996 150.729C105.97 150.725 105.944 150.721 105.918 150.716C105.892 150.711 105.866 150.705 105.84 150.699C105.815 150.692 105.789 150.685 105.764 150.678C105.739 150.67 105.713 150.662 105.688 150.653C105.664 150.645 105.639 150.635 105.614 150.625C105.59 150.615 105.566 150.605 105.542 150.594C105.518 150.583 105.494 150.571 105.47 150.559C105.447 150.546 105.424 150.533 105.401 150.52C105.378 150.507 105.356 150.493 105.334 150.478C105.312 150.464 105.29 150.449 105.268 150.433C105.247 150.418 105.226 150.402 105.205 150.385C105.185 150.368 105.165 150.351 105.145 150.334C105.125 150.316 105.106 150.298 105.087 150.28C104.923 150.121 104.763 149.957 104.607 149.79C104.452 149.622 104.3 149.451 104.153 149.276C104.006 149.101 103.863 148.923 103.725 148.741C103.587 148.559 103.453 148.373 103.324 148.184C103.195 147.996 103.071 147.804 102.952 147.609C102.832 147.414 102.718 147.216 102.608 147.015C102.499 146.815 102.395 146.611 102.295 146.405C102.196 146.2 102.102 145.991 102.013 145.781C101.924 145.57 101.84 145.357 101.762 145.143C101.683 144.928 101.61 144.711 101.543 144.493C101.475 144.274 101.413 144.054 101.357 143.833C101.3 143.611 101.25 143.389 101.204 143.165C101.159 142.94 101.119 142.715 101.085 142.489C101.051 142.263 101.022 142.037 101 141.809C100.977 141.582 100.96 141.354 100.948 141.125C100.937 140.897 100.931 140.669 100.931 140.44C100.931 140.211 100.937 139.983 100.948 139.755C100.96 139.526 100.977 139.298 101 139.071C101.022 138.843 101.051 138.617 101.085 138.391C101.119 138.164 101.159 137.939 101.204 137.715C101.25 137.491 101.3 137.269 101.357 137.047C101.413 136.825 101.475 136.605 101.543 136.387C101.61 136.169 101.683 135.952 101.762 135.737C101.84 135.522 101.924 135.31 102.013 135.099C102.102 134.889 102.196 134.68 102.295 134.474C102.395 134.269 102.499 134.065 102.608 133.865C102.718 133.664 102.832 133.466 102.952 133.271C103.071 133.076 103.195 132.884 103.324 132.696C103.453 132.507 103.587 132.321 103.725 132.139C103.863 131.957 104.006 131.779 104.153 131.604C104.3 131.429 104.452 131.257 104.607 131.09C104.763 130.923 104.923 130.759 105.087 130.6C105.106 130.581 105.125 130.563 105.145 130.546C105.165 130.528 105.185 130.511 105.205 130.495C105.226 130.478 105.247 130.462 105.268 130.447C105.29 130.431 105.312 130.416 105.334 130.402C105.356 130.387 105.378 130.373 105.401 130.36C105.424 130.346 105.447 130.334 105.47 130.321C105.494 130.309 105.518 130.297 105.542 130.286C105.566 130.275 105.59 130.265 105.614 130.255C105.639 130.245 105.664 130.235 105.688 130.226C105.713 130.218 105.739 130.209 105.764 130.202C105.789 130.194 105.815 130.188 105.84 130.181C105.866 130.175 105.892 130.169 105.918 130.164C105.944 130.159 105.97 130.154 105.996 130.151C106.022 130.147 106.049 130.144 106.075 130.141C106.101 130.139 106.128 130.137 106.154 130.135C106.18 130.134 106.207 130.133 106.233 130.133C106.26 130.133 106.286 130.134 106.313 130.135C106.339 130.137 106.365 130.139 106.392 130.141C106.418 130.144 106.444 130.147 106.47 130.151C106.497 130.154 106.523 130.159 106.549 130.164C106.575 130.169 106.6 130.175 106.626 130.181C106.652 130.188 106.677 130.194 106.703 130.202C106.728 130.209 106.753 130.218 106.778 130.226C106.803 130.235 106.828 130.245 106.852 130.255C106.877 130.265 106.901 130.275 106.925 130.286C106.949 130.297 106.973 130.309 106.996 130.321C107.02 130.334 107.043 130.346 107.065 130.36C107.088 130.373 107.111 130.387 107.133 130.402C107.155 130.416 107.177 130.431 107.198 130.447C107.22 130.462 107.241 130.478 107.261 130.495C107.282 130.511 107.302 130.528 107.322 130.546C107.342 130.563 107.361 130.581 107.38 130.6L107.38 130.595ZM158.335 119.907C158.316 119.925 158.299 119.944 158.281 119.964C158.264 119.984 158.247 120.004 158.231 120.024C158.214 120.045 158.199 120.065 158.183 120.087C158.168 120.108 158.153 120.129 158.139 120.151C158.124 120.173 158.111 120.195 158.098 120.218C158.085 120.241 158.072 120.264 158.06 120.287C158.048 120.31 158.036 120.334 158.025 120.357C158.014 120.381 158.004 120.405 157.994 120.429C157.985 120.454 157.976 120.478 157.967 120.503C157.959 120.528 157.951 120.553 157.943 120.578C157.936 120.603 157.929 120.628 157.923 120.654C157.917 120.679 157.912 120.705 157.907 120.73C157.902 120.756 157.898 120.782 157.895 120.808C157.891 120.834 157.888 120.86 157.886 120.886C157.884 120.912 157.882 120.938 157.881 120.964C157.88 120.99 157.88 121.017 157.88 121.043C157.88 121.069 157.881 121.095 157.883 121.121C157.884 121.147 157.887 121.173 157.89 121.199C157.892 121.225 157.896 121.251 157.9 121.277C157.904 121.303 157.909 121.329 157.914 121.354C157.92 121.38 157.926 121.405 157.932 121.431C157.939 121.456 157.947 121.481 157.954 121.506C157.962 121.531 157.971 121.556 157.98 121.58C157.989 121.605 157.999 121.629 158.009 121.653C158.019 121.677 158.03 121.701 158.042 121.725C158.053 121.748 158.065 121.771 158.077 121.794C158.09 121.817 158.103 121.84 158.117 121.862C158.131 121.884 158.145 121.906 158.16 121.928C158.175 121.949 158.19 121.971 158.206 121.992C158.221 122.012 158.238 122.033 158.255 122.053C158.271 122.073 158.289 122.092 158.307 122.112C158.324 122.131 158.343 122.15 158.361 122.168C168.537 132.344 168.708 148.728 158.745 158.691C158.73 158.706 158.715 158.722 158.701 158.738C158.686 158.754 158.672 158.77 158.658 158.787C158.644 158.804 158.631 158.821 158.618 158.838C158.604 158.855 158.592 158.872 158.579 158.89C158.567 158.908 158.555 158.926 158.543 158.944C158.531 158.962 158.52 158.981 158.509 158.999C158.498 159.018 158.487 159.037 158.477 159.056C158.467 159.075 158.457 159.094 158.447 159.114C158.438 159.133 158.429 159.153 158.42 159.173C158.412 159.193 158.404 159.213 158.396 159.233C158.388 159.253 158.381 159.274 158.374 159.294C158.367 159.315 158.36 159.335 158.354 159.356C158.348 159.377 158.342 159.398 158.337 159.419C158.331 159.44 158.327 159.461 158.322 159.482C158.318 159.503 158.314 159.524 158.31 159.546C158.307 159.567 158.304 159.589 158.301 159.61C158.298 159.632 158.296 159.653 158.294 159.675C158.292 159.696 158.291 159.718 158.29 159.74C158.289 159.761 158.289 159.783 158.288 159.804C158.288 159.826 158.289 159.848 158.29 159.869C158.291 159.891 158.292 159.913 158.294 159.934C158.295 159.956 158.297 159.977 158.3 159.999C158.303 160.02 158.306 160.042 158.309 160.063C158.313 160.085 158.317 160.106 158.321 160.127C158.325 160.148 158.33 160.169 158.335 160.191C158.34 160.212 158.346 160.232 158.352 160.253C158.358 160.274 158.365 160.295 158.371 160.315C158.378 160.336 158.386 160.356 158.393 160.376C158.401 160.397 158.409 160.417 158.418 160.437C158.426 160.456 158.435 160.476 158.445 160.496C158.454 160.515 158.464 160.535 158.474 160.554C158.484 160.573 158.495 160.592 158.505 160.611L158.772 160.952C159.401 161.587 160.42 161.592 161.033 160.968C172.228 149.773 172.036 131.363 160.601 119.928C160.583 119.909 160.564 119.891 160.545 119.873C160.526 119.855 160.506 119.838 160.486 119.821C160.466 119.804 160.445 119.788 160.424 119.772C160.404 119.756 160.382 119.741 160.361 119.726C160.339 119.711 160.317 119.697 160.294 119.683C160.272 119.669 160.249 119.656 160.226 119.643C160.203 119.631 160.18 119.619 160.156 119.607C160.133 119.596 160.109 119.585 160.085 119.575C160.061 119.564 160.036 119.555 160.012 119.546C159.987 119.537 159.962 119.528 159.937 119.52C159.912 119.512 159.887 119.505 159.862 119.498C159.836 119.492 159.811 119.486 159.785 119.48C159.759 119.475 159.734 119.47 159.708 119.466C159.682 119.462 159.656 119.459 159.629 119.456C159.603 119.453 159.577 119.451 159.551 119.449C159.525 119.448 159.499 119.447 159.473 119.447C159.446 119.446 159.42 119.447 159.394 119.448C159.367 119.449 159.341 119.451 159.315 119.453C159.289 119.455 159.263 119.458 159.237 119.462C159.211 119.465 159.185 119.47 159.159 119.475C159.134 119.479 159.108 119.485 159.082 119.491C159.057 119.497 159.032 119.504 159.006 119.511C158.981 119.519 158.956 119.527 158.931 119.535C158.907 119.544 158.882 119.553 158.858 119.563C158.833 119.573 158.809 119.583 158.785 119.594C158.762 119.605 158.738 119.617 158.715 119.629C158.692 119.641 158.669 119.654 158.646 119.667C158.624 119.681 158.601 119.695 158.579 119.709C158.557 119.723 158.536 119.738 158.514 119.754C158.493 119.769 158.473 119.785 158.452 119.802C158.432 119.818 158.412 119.835 158.392 119.853C158.373 119.87 158.353 119.888 158.335 119.907ZM154.484 126.813C154.467 126.83 154.451 126.848 154.435 126.866C154.419 126.884 154.404 126.902 154.388 126.921C154.374 126.939 154.359 126.958 154.345 126.978C154.331 126.997 154.317 127.017 154.304 127.037C154.291 127.057 154.278 127.077 154.266 127.098C154.254 127.118 154.242 127.139 154.231 127.161C154.22 127.182 154.21 127.203 154.2 127.225C154.19 127.247 154.18 127.269 154.171 127.291C154.162 127.313 154.154 127.336 154.146 127.358C154.138 127.381 154.131 127.404 154.124 127.427C154.117 127.45 154.111 127.473 154.105 127.496C154.1 127.52 154.095 127.543 154.09 127.567C154.086 127.59 154.082 127.614 154.079 127.637C154.076 127.661 154.073 127.685 154.071 127.709C154.069 127.733 154.067 127.757 154.066 127.781C154.065 127.804 154.065 127.828 154.065 127.852C154.065 127.876 154.066 127.9 154.068 127.924C154.069 127.948 154.071 127.972 154.074 127.996C154.076 128.02 154.08 128.043 154.083 128.067C154.087 128.091 154.091 128.114 154.096 128.138C154.101 128.161 154.107 128.184 154.113 128.208C154.119 128.231 154.126 128.254 154.133 128.277C154.14 128.299 154.148 128.322 154.156 128.345C154.164 128.367 154.173 128.389 154.183 128.411C154.192 128.433 154.202 128.455 154.212 128.477C154.223 128.498 154.234 128.52 154.245 128.541C154.257 128.562 154.269 128.582 154.282 128.603C154.294 128.623 154.307 128.643 154.321 128.663C154.334 128.683 154.348 128.702 154.363 128.721C154.377 128.74 154.392 128.759 154.408 128.777C154.423 128.796 154.439 128.814 154.455 128.831C154.471 128.849 154.488 128.866 154.505 128.883C160.916 135.288 161.023 145.613 154.745 151.88C154.729 151.897 154.712 151.915 154.696 151.932C154.68 151.95 154.665 151.969 154.65 151.987C154.635 152.006 154.62 152.025 154.606 152.044C154.592 152.064 154.578 152.083 154.565 152.103C154.552 152.123 154.54 152.144 154.527 152.164C154.515 152.185 154.504 152.206 154.493 152.227C154.482 152.249 154.471 152.27 154.461 152.292C154.451 152.314 154.441 152.336 154.432 152.358C154.423 152.38 154.415 152.402 154.407 152.425C154.4 152.448 154.392 152.471 154.385 152.493C154.379 152.516 154.372 152.54 154.367 152.563C154.361 152.586 154.356 152.61 154.352 152.633C154.347 152.657 154.344 152.68 154.34 152.704C154.337 152.728 154.334 152.752 154.332 152.775C154.33 152.799 154.329 152.823 154.328 152.847C154.327 152.871 154.326 152.895 154.327 152.919C154.327 152.943 154.328 152.967 154.329 152.991C154.331 153.015 154.333 153.039 154.335 153.062C154.338 153.086 154.341 153.11 154.345 153.134C154.348 153.157 154.353 153.181 154.358 153.204C154.363 153.228 154.368 153.251 154.374 153.274C154.38 153.297 154.387 153.32 154.394 153.343C154.401 153.366 154.409 153.389 154.417 153.411C154.426 153.434 154.435 153.456 154.444 153.478C154.453 153.5 154.463 153.522 154.474 153.543C154.484 153.565 154.495 153.586 154.507 153.607C154.518 153.628 154.53 153.649 154.543 153.669C154.555 153.69 154.568 153.71 154.582 153.73C154.596 153.749 154.61 153.769 154.624 153.788C154.639 153.807 154.654 153.826 154.669 153.844C154.684 153.862 154.7 153.88 154.716 153.898C154.733 153.915 154.75 153.933 154.767 153.949C155.343 154.525 156.271 154.536 156.836 153.971C164.239 146.568 164.111 134.397 156.553 126.835C156.537 126.817 156.52 126.801 156.502 126.784C156.484 126.768 156.466 126.752 156.448 126.737C156.43 126.721 156.411 126.707 156.392 126.692C156.373 126.678 156.353 126.664 156.334 126.65C156.314 126.636 156.294 126.623 156.273 126.611C156.253 126.598 156.232 126.586 156.211 126.575C156.19 126.563 156.169 126.552 156.147 126.542C156.126 126.531 156.104 126.521 156.082 126.512C156.06 126.502 156.038 126.494 156.015 126.485C155.993 126.477 155.97 126.469 155.947 126.462C155.924 126.455 155.901 126.448 155.878 126.442C155.855 126.436 155.832 126.431 155.808 126.426C155.785 126.421 155.761 126.416 155.738 126.413C155.714 126.409 155.69 126.406 155.667 126.403C155.643 126.4 155.619 126.398 155.595 126.397C155.571 126.396 155.547 126.395 155.523 126.395C155.499 126.394 155.475 126.395 155.451 126.396C155.427 126.396 155.404 126.398 155.379 126.4C155.356 126.402 155.332 126.405 155.308 126.408C155.284 126.411 155.261 126.415 155.237 126.42C155.214 126.424 155.19 126.429 155.167 126.435C155.144 126.44 155.12 126.447 155.098 126.453C155.074 126.46 155.052 126.467 155.029 126.475C155.007 126.483 154.984 126.491 154.962 126.5C154.94 126.509 154.918 126.519 154.896 126.529C154.874 126.539 154.853 126.549 154.831 126.561C154.81 126.572 154.789 126.583 154.768 126.595C154.748 126.607 154.727 126.62 154.707 126.633C154.688 126.646 154.668 126.66 154.648 126.674C154.629 126.688 154.61 126.703 154.591 126.718C154.573 126.733 154.554 126.748 154.536 126.764C154.519 126.78 154.501 126.796 154.484 126.813ZM147.876 130.371C147.858 130.389 147.84 130.408 147.822 130.428C147.805 130.448 147.788 130.468 147.771 130.488C147.755 130.509 147.739 130.53 147.724 130.551C147.708 130.572 147.693 130.594 147.679 130.616C147.665 130.638 147.651 130.66 147.638 130.683C147.624 130.705 147.612 130.728 147.6 130.751C147.587 130.775 147.576 130.798 147.565 130.822C147.554 130.846 147.544 130.87 147.534 130.894C147.524 130.919 147.515 130.943 147.506 130.968C147.498 130.993 147.49 131.018 147.482 131.043C147.475 131.068 147.468 131.094 147.462 131.119C147.456 131.145 147.451 131.17 147.446 131.196C147.441 131.222 147.437 131.248 147.433 131.274C147.43 131.3 147.427 131.326 147.425 131.352C147.422 131.378 147.421 131.405 147.42 131.431C147.419 131.457 147.418 131.483 147.419 131.509C147.419 131.536 147.42 131.562 147.421 131.588C147.423 131.614 147.425 131.64 147.428 131.667C147.431 131.693 147.435 131.719 147.439 131.745C147.443 131.77 147.448 131.796 147.453 131.822C147.459 131.848 147.465 131.873 147.471 131.899C147.478 131.924 147.486 131.949 147.493 131.974C147.501 131.999 147.51 132.024 147.519 132.049C147.528 132.073 147.538 132.097 147.548 132.122C147.559 132.146 147.569 132.17 147.581 132.193C147.593 132.217 147.605 132.24 147.617 132.263C147.63 132.286 147.643 132.309 147.657 132.331C147.671 132.353 147.685 132.375 147.7 132.397C147.715 132.419 147.73 132.44 147.746 132.461C147.762 132.482 147.779 132.502 147.795 132.522C147.812 132.542 147.83 132.562 147.848 132.581C147.866 132.6 147.884 132.619 147.903 132.637C152.18 136.92 152.255 143.811 148.063 147.997C148.044 148.016 148.026 148.035 148.009 148.055C147.991 148.074 147.974 148.094 147.958 148.115C147.941 148.135 147.925 148.156 147.91 148.177C147.895 148.198 147.88 148.22 147.865 148.242C147.851 148.264 147.837 148.286 147.824 148.309C147.81 148.331 147.798 148.354 147.785 148.377C147.773 148.401 147.762 148.424 147.75 148.448C147.74 148.472 147.729 148.496 147.719 148.52C147.71 148.545 147.7 148.569 147.691 148.594C147.683 148.619 147.675 148.644 147.667 148.669C147.66 148.694 147.653 148.719 147.647 148.745C147.641 148.77 147.636 148.796 147.631 148.822C147.626 148.848 147.621 148.874 147.618 148.9C147.614 148.926 147.611 148.952 147.609 148.978C147.607 149.004 147.605 149.03 147.604 149.056C147.603 149.083 147.602 149.109 147.603 149.135C147.603 149.161 147.604 149.188 147.605 149.214C147.607 149.24 147.609 149.266 147.612 149.292C147.615 149.318 147.618 149.344 147.622 149.37C147.626 149.396 147.631 149.422 147.637 149.448C147.642 149.473 147.648 149.499 147.654 149.524C147.661 149.55 147.668 149.575 147.676 149.6C147.684 149.625 147.693 149.65 147.702 149.674C147.711 149.699 147.72 149.723 147.731 149.747C147.741 149.772 147.752 149.795 147.763 149.819C147.775 149.843 147.787 149.866 147.8 149.889C147.812 149.912 147.825 149.935 147.839 149.957C147.853 149.979 147.867 150.002 147.882 150.023C147.897 150.045 147.912 150.066 147.928 150.087C147.944 150.108 147.96 150.128 147.977 150.149C147.994 150.169 148.011 150.188 148.029 150.208C148.047 150.227 148.065 150.246 148.084 150.264C148.102 150.283 148.121 150.301 148.14 150.319C148.16 150.337 148.179 150.354 148.199 150.371C148.22 150.388 148.24 150.404 148.261 150.42C148.282 150.436 148.303 150.451 148.325 150.466C148.346 150.481 148.368 150.495 148.391 150.509C148.413 150.523 148.436 150.536 148.459 150.548C148.482 150.561 148.505 150.573 148.529 150.584C148.552 150.596 148.576 150.607 148.6 150.617C148.625 150.627 148.649 150.637 148.674 150.646C148.698 150.655 148.723 150.664 148.748 150.672C148.773 150.68 148.798 150.687 148.824 150.693C148.849 150.7 148.875 150.706 148.9 150.711C148.926 150.717 148.952 150.721 148.978 150.726C149.004 150.73 149.03 150.733 149.056 150.736C149.082 150.739 149.108 150.741 149.134 150.743C149.16 150.744 149.187 150.745 149.213 150.745C149.239 150.745 149.265 150.745 149.292 150.744C149.318 150.743 149.344 150.741 149.37 150.739C149.396 150.737 149.422 150.734 149.448 150.73C149.474 150.726 149.5 150.722 149.526 150.717C149.552 150.712 149.577 150.707 149.603 150.701C149.628 150.695 149.654 150.688 149.679 150.68C149.704 150.673 149.729 150.665 149.754 150.656C149.779 150.648 149.803 150.639 149.828 150.629C149.852 150.619 149.876 150.608 149.9 150.597C149.924 150.586 149.947 150.575 149.97 150.563C149.994 150.55 150.017 150.538 150.039 150.524C150.062 150.511 150.084 150.497 150.106 150.483C150.128 150.468 150.15 150.453 150.171 150.438C150.192 150.423 150.213 150.407 150.233 150.39C150.254 150.374 150.274 150.357 150.293 150.339C150.313 150.322 150.332 150.304 150.351 150.285C155.78 144.861 155.684 135.939 150.137 130.392C150.119 130.373 150.1 130.355 150.081 130.337C150.062 130.32 150.042 130.302 150.022 130.286C150.002 130.269 149.982 130.252 149.961 130.237C149.94 130.221 149.918 130.206 149.897 130.191C149.875 130.176 149.853 130.162 149.831 130.148C149.809 130.135 149.786 130.122 149.763 130.109C149.74 130.097 149.717 130.085 149.693 130.073C149.67 130.062 149.646 130.051 149.622 130.041C149.598 130.03 149.573 130.021 149.549 130.012C149.524 130.003 149.499 129.994 149.474 129.986C149.45 129.979 149.424 129.971 149.399 129.965C149.374 129.958 149.348 129.952 149.323 129.947C149.297 129.942 149.271 129.937 149.245 129.933C149.22 129.929 149.194 129.925 149.168 129.922C149.142 129.92 149.116 129.917 149.089 129.916C149.063 129.914 149.037 129.914 149.011 129.913C148.985 129.913 148.959 129.913 148.933 129.914C148.906 129.915 148.88 129.917 148.854 129.92C148.828 129.922 148.802 129.925 148.776 129.928C148.75 129.932 148.725 129.936 148.699 129.941C148.673 129.946 148.648 129.951 148.622 129.958C148.597 129.964 148.572 129.97 148.546 129.978C148.521 129.985 148.496 129.993 148.472 130.002C148.447 130.01 148.422 130.019 148.398 130.029C148.374 130.039 148.35 130.049 148.326 130.06C148.302 130.071 148.279 130.083 148.256 130.095C148.232 130.107 148.21 130.12 148.187 130.133C148.164 130.146 148.142 130.16 148.12 130.174C148.098 130.188 148.077 130.203 148.056 130.219C148.035 130.234 148.014 130.25 147.993 130.266C147.973 130.283 147.953 130.3 147.933 130.317C147.914 130.334 147.895 130.352 147.876 130.371ZM141.044 138.92L164.895 187.811C164.91 187.842 164.924 187.874 164.938 187.906C164.952 187.938 164.965 187.971 164.977 188.003C164.989 188.036 165 188.069 165.011 188.102C165.022 188.136 165.031 188.169 165.04 188.203C165.049 188.237 165.057 188.271 165.064 188.305C165.072 188.339 165.078 188.374 165.083 188.408C165.089 188.443 165.094 188.477 165.097 188.512C165.101 188.547 165.104 188.582 165.106 188.616C165.108 188.651 165.11 188.686 165.11 188.721C165.11 188.756 165.11 188.791 165.108 188.826C165.107 188.861 165.105 188.896 165.102 188.931C165.099 188.965 165.095 189 165.09 189.035C165.085 189.069 165.08 189.104 165.073 189.138C165.067 189.173 165.06 189.207 165.051 189.241C165.043 189.275 165.034 189.308 165.025 189.342C165.015 189.376 165.004 189.409 164.993 189.442C164.982 189.475 164.969 189.508 164.956 189.54C164.943 189.572 164.929 189.605 164.915 189.636C164.9 189.668 164.885 189.699 164.869 189.73C164.852 189.761 164.836 189.792 164.818 189.822C164.8 189.852 164.782 189.882 164.763 189.911C164.744 189.94 164.724 189.969 164.703 189.998C164.683 190.026 164.662 190.054 164.64 190.081C164.618 190.108 164.595 190.135 164.572 190.161C164.549 190.187 164.525 190.213 164.501 190.238C164.476 190.262 164.451 190.287 164.426 190.311C164.4 190.334 164.374 190.357 164.347 190.38C164.32 190.402 164.293 190.424 164.265 190.445C164.237 190.466 164.209 190.487 164.18 190.506C164.151 190.526 164.122 190.545 164.092 190.563C164.062 190.582 164.032 190.599 164.001 190.616C163.97 190.633 163.939 190.649 163.908 190.664L156.553 194.248L154.217 189.448L158.697 187.267L137.657 144.125L108.895 158.152L129.935 201.299L145.668 193.619L148.015 198.419L129.401 207.496C129.37 207.511 129.338 207.526 129.306 207.54C129.274 207.554 129.242 207.567 129.209 207.579C129.176 207.591 129.143 207.603 129.109 207.613C129.076 207.624 129.043 207.634 129.009 207.643C128.975 207.652 128.941 207.66 128.907 207.667C128.872 207.675 128.838 207.681 128.804 207.687C128.769 207.692 128.734 207.697 128.7 207.701C128.665 207.705 128.63 207.708 128.595 207.71C128.56 207.712 128.525 207.714 128.49 207.714C128.455 207.715 128.42 207.714 128.385 207.713C128.35 207.712 128.315 207.71 128.28 207.707C128.246 207.704 128.211 207.7 128.176 207.695C128.141 207.691 128.107 207.685 128.072 207.679C128.038 207.672 128.004 207.665 127.97 207.657C127.936 207.649 127.902 207.64 127.868 207.63C127.835 207.621 127.801 207.61 127.768 207.599C127.735 207.587 127.702 207.575 127.67 207.562C127.637 207.549 127.605 207.536 127.573 207.521C127.542 207.506 127.51 207.491 127.479 207.475C127.448 207.459 127.417 207.442 127.387 207.424C127.357 207.407 127.327 207.389 127.298 207.369C127.268 207.35 127.24 207.331 127.211 207.31C127.183 207.29 127.155 207.268 127.128 207.246C127.1 207.225 127.074 207.202 127.047 207.179C127.021 207.156 126.995 207.132 126.97 207.107C126.945 207.083 126.921 207.058 126.897 207.032C126.873 207.007 126.85 206.98 126.828 206.954C126.805 206.927 126.783 206.9 126.762 206.872C126.741 206.844 126.721 206.815 126.701 206.787C126.681 206.758 126.662 206.728 126.644 206.699C126.625 206.669 126.608 206.638 126.591 206.608C126.574 206.577 126.558 206.546 126.543 206.515L102.697 157.619C102.682 157.587 102.667 157.556 102.654 157.523C102.64 157.491 102.627 157.459 102.615 157.426C102.603 157.393 102.591 157.36 102.581 157.327C102.57 157.294 102.56 157.26 102.551 157.227C102.543 157.193 102.535 157.159 102.527 157.125C102.52 157.091 102.514 157.056 102.508 157.022C102.503 156.987 102.498 156.953 102.494 156.918C102.49 156.883 102.487 156.848 102.485 156.814C102.483 156.779 102.482 156.744 102.481 156.709C102.481 156.674 102.481 156.639 102.482 156.604C102.484 156.569 102.486 156.535 102.489 156.5C102.492 156.465 102.496 156.43 102.5 156.396C102.505 156.361 102.511 156.327 102.517 156.292C102.523 156.258 102.531 156.224 102.539 156.19C102.547 156.156 102.556 156.122 102.565 156.088C102.575 156.055 102.586 156.022 102.597 155.989C102.608 155.956 102.62 155.923 102.633 155.89C102.646 155.858 102.66 155.826 102.675 155.794C102.689 155.762 102.705 155.731 102.721 155.7C102.737 155.669 102.754 155.638 102.771 155.608C102.789 155.578 102.807 155.548 102.826 155.519C102.845 155.49 102.865 155.461 102.885 155.433C102.906 155.405 102.927 155.377 102.949 155.349C102.97 155.322 102.993 155.295 103.016 155.269C103.039 155.243 103.063 155.218 103.087 155.193C103.112 155.168 103.137 155.143 103.162 155.119C103.188 155.096 103.214 155.073 103.241 155.05C103.267 155.028 103.295 155.006 103.322 154.985C103.35 154.964 103.379 154.943 103.407 154.923C103.436 154.904 103.465 154.885 103.495 154.866C103.525 154.848 103.555 154.83 103.586 154.813C103.616 154.797 103.647 154.781 103.679 154.765L138.191 137.933C138.222 137.918 138.254 137.903 138.286 137.89C138.318 137.876 138.35 137.863 138.383 137.851C138.416 137.839 138.449 137.827 138.482 137.817C138.515 137.806 138.549 137.796 138.583 137.787C138.617 137.779 138.65 137.77 138.685 137.763C138.719 137.756 138.753 137.75 138.787 137.744C138.822 137.738 138.857 137.734 138.891 137.73C138.926 137.726 138.961 137.723 138.996 137.721C139.03 137.719 139.065 137.717 139.1 137.717C139.135 137.717 139.17 137.717 139.205 137.718C139.24 137.72 139.275 137.722 139.309 137.725C139.344 137.728 139.379 137.732 139.414 137.736C139.448 137.741 139.483 137.747 139.517 137.753C139.551 137.759 139.585 137.766 139.619 137.775C139.654 137.783 139.687 137.792 139.721 137.801C139.754 137.811 139.788 137.822 139.821 137.833C139.854 137.844 139.886 137.856 139.919 137.869C139.951 137.882 139.983 137.896 140.015 137.911C140.047 137.925 140.078 137.94 140.109 137.957C140.14 137.973 140.171 137.989 140.201 138.007C140.231 138.025 140.261 138.043 140.29 138.062C140.319 138.081 140.348 138.101 140.376 138.121C140.405 138.142 140.432 138.163 140.46 138.185C140.487 138.206 140.514 138.229 140.54 138.252C140.566 138.275 140.592 138.299 140.617 138.323C140.642 138.348 140.666 138.373 140.69 138.398C140.714 138.424 140.737 138.45 140.759 138.477C140.782 138.503 140.803 138.531 140.825 138.558C140.846 138.586 140.866 138.615 140.886 138.643C140.906 138.672 140.925 138.701 140.943 138.731C140.961 138.761 140.979 138.791 140.996 138.822C141.013 138.852 141.029 138.883 141.044 138.915L141.044 138.92Z"   fill="#4C8CFF" ></path><path d="M123.913 161.608C124.287 162.339 124.815 162.861 125.497 163.171C125.544 163.191 125.592 163.211 125.64 163.229C125.688 163.248 125.736 163.265 125.784 163.281C125.833 163.297 125.882 163.312 125.932 163.326C125.981 163.34 126.031 163.353 126.081 163.365C126.131 163.377 126.181 163.387 126.231 163.396C126.282 163.406 126.332 163.414 126.383 163.421C126.434 163.428 126.485 163.434 126.536 163.439C126.587 163.444 126.638 163.447 126.69 163.449C126.741 163.452 126.792 163.453 126.843 163.453C126.895 163.453 126.946 163.452 126.997 163.45C127.049 163.447 127.1 163.444 127.151 163.439C127.202 163.435 127.253 163.429 127.304 163.422C127.355 163.415 127.405 163.407 127.456 163.397C127.506 163.388 127.556 163.378 127.606 163.366C127.656 163.354 127.706 163.342 127.755 163.328C127.805 163.314 127.854 163.299 127.903 163.283L127.353 162.2C127.291 162.217 127.229 162.231 127.166 162.243C127.103 162.255 127.039 162.264 126.975 162.271C126.912 162.277 126.848 162.281 126.783 162.283C126.719 162.284 126.655 162.283 126.591 162.279C126.527 162.275 126.463 162.269 126.4 162.26C126.336 162.251 126.273 162.239 126.211 162.225C126.148 162.21 126.086 162.194 126.025 162.174C125.964 162.155 125.903 162.134 125.844 162.109C125.792 162.082 125.74 162.052 125.69 162.02C125.64 161.988 125.592 161.954 125.545 161.919C125.498 161.883 125.452 161.845 125.408 161.805C125.364 161.766 125.321 161.725 125.28 161.682C125.24 161.639 125.201 161.594 125.164 161.548C125.127 161.502 125.091 161.454 125.058 161.405C125.025 161.356 124.994 161.306 124.965 161.254C124.936 161.203 124.909 161.15 124.884 161.096C124.511 160.355 124.463 159.683 124.74 159.101C125.007 158.557 125.54 158.088 126.34 157.677C127.119 157.277 127.807 157.133 128.42 157.24C129.092 157.347 129.604 157.763 129.967 158.472C130.207 158.952 130.313 159.389 130.255 159.8C130.247 159.855 130.236 159.91 130.223 159.964C130.21 160.019 130.194 160.072 130.176 160.125C130.158 160.178 130.137 160.23 130.114 160.281C130.091 160.332 130.066 160.382 130.038 160.43C130.01 160.479 129.98 160.526 129.948 160.571C129.916 160.617 129.881 160.661 129.845 160.704C129.808 160.746 129.77 160.787 129.73 160.825C129.69 160.864 129.648 160.901 129.604 160.936L130.153 162.019C130.228 161.969 130.299 161.916 130.368 161.859C130.438 161.802 130.504 161.743 130.567 161.68C130.631 161.617 130.691 161.551 130.748 161.482C130.805 161.413 130.859 161.342 130.909 161.268C130.96 161.195 131.006 161.118 131.05 161.04C131.093 160.962 131.132 160.882 131.167 160.8C131.203 160.718 131.234 160.634 131.262 160.549C131.289 160.464 131.313 160.378 131.332 160.291C131.35 160.194 131.364 160.096 131.374 159.997C131.384 159.899 131.389 159.8 131.39 159.702C131.392 159.603 131.389 159.504 131.381 159.405C131.374 159.307 131.362 159.209 131.346 159.111C131.331 159.014 131.31 158.917 131.286 158.821C131.262 158.725 131.233 158.631 131.201 158.537C131.168 158.444 131.132 158.352 131.092 158.262C131.051 158.172 131.007 158.084 130.959 157.997C130.404 156.909 129.625 156.264 128.612 156.061C127.732 155.875 126.777 156.051 125.769 156.563C124.745 157.085 124.047 157.741 123.689 158.536C123.263 159.443 123.337 160.477 123.913 161.608ZM126.831 167.005L128.847 166.755L130.292 169.597L128.905 171.08L129.513 172.269L134.975 166.216L134.335 164.952L126.228 165.816L126.831 167.005ZM131.033 168.797L129.929 166.621L133.449 166.179L133.471 166.216L131.033 168.797ZM130.9 174.995L133.668 173.587L134.564 175.347C134.756 175.725 134.831 176.061 134.761 176.344C134.697 176.616 134.489 176.867 134.137 177.091L133.343 177.608C133.266 177.652 133.193 177.701 133.123 177.755C133.053 177.809 132.987 177.867 132.925 177.931C132.864 177.994 132.806 178.061 132.754 178.132C132.701 178.203 132.654 178.277 132.612 178.355L133.225 179.56C133.244 179.512 133.265 179.465 133.288 179.419C133.311 179.373 133.336 179.328 133.362 179.284C133.389 179.24 133.417 179.197 133.447 179.156C133.478 179.114 133.509 179.074 133.543 179.035C133.576 178.996 133.612 178.959 133.648 178.923C133.685 178.886 133.723 178.852 133.762 178.819C133.802 178.786 133.843 178.755 133.885 178.726C133.927 178.696 133.97 178.669 134.015 178.643L135.049 177.971C135.679 177.555 135.897 177.027 135.732 176.371L135.748 176.36C135.781 176.398 135.816 176.434 135.852 176.469C135.888 176.504 135.926 176.537 135.965 176.568C136.005 176.599 136.045 176.629 136.087 176.656C136.129 176.684 136.172 176.71 136.217 176.733C136.261 176.757 136.306 176.778 136.353 176.798C136.399 176.817 136.446 176.835 136.494 176.85C136.542 176.865 136.59 176.878 136.64 176.889C136.689 176.9 136.738 176.908 136.788 176.915C136.834 176.921 136.881 176.925 136.928 176.928C136.974 176.931 137.021 176.932 137.068 176.931C137.115 176.93 137.161 176.927 137.208 176.923C137.255 176.918 137.301 176.912 137.347 176.904C137.393 176.895 137.439 176.886 137.484 176.874C137.529 176.862 137.574 176.849 137.618 176.834C137.663 176.818 137.706 176.802 137.749 176.783C137.792 176.765 137.835 176.744 137.876 176.723C137.912 176.707 137.947 176.69 137.982 176.672C138.017 176.654 138.051 176.636 138.085 176.616C138.118 176.596 138.151 176.575 138.184 176.554C138.216 176.532 138.248 176.509 138.28 176.486C138.311 176.462 138.341 176.438 138.371 176.412C138.401 176.387 138.43 176.361 138.458 176.334C138.486 176.307 138.514 176.279 138.541 176.251C138.567 176.222 138.593 176.193 138.618 176.163C138.643 176.133 138.667 176.102 138.691 176.07C138.714 176.039 138.736 176.007 138.757 175.974C138.779 175.941 138.799 175.908 138.819 175.874C138.838 175.84 138.857 175.806 138.874 175.771C138.891 175.736 138.908 175.7 138.923 175.664C138.939 175.628 138.953 175.592 138.966 175.555C138.98 175.519 138.992 175.481 139.003 175.444C139.014 175.407 139.024 175.369 139.033 175.331C139.045 175.25 139.053 175.169 139.057 175.087C139.062 175.006 139.063 174.925 139.06 174.843C139.058 174.762 139.052 174.68 139.043 174.599C139.034 174.518 139.022 174.438 139.006 174.358C138.99 174.278 138.971 174.199 138.948 174.12C138.926 174.042 138.9 173.965 138.871 173.888C138.842 173.812 138.81 173.737 138.775 173.664C138.739 173.59 138.701 173.518 138.66 173.448L137.119 170.429L130.335 173.885L130.9 174.995ZM135.513 174.861L134.617 173.101L136.735 172.024L137.631 173.784C137.865 174.237 137.961 174.611 137.897 174.904C137.844 175.197 137.631 175.437 137.257 175.624C137.221 175.645 137.185 175.664 137.147 175.681C137.109 175.698 137.07 175.713 137.031 175.726C136.991 175.739 136.951 175.75 136.911 175.758C136.87 175.767 136.829 175.773 136.788 175.777C136.746 175.781 136.705 175.783 136.664 175.783C136.622 175.783 136.581 175.78 136.539 175.775C136.498 175.77 136.457 175.763 136.417 175.754C136.376 175.745 136.337 175.734 136.297 175.72C136.254 175.696 136.212 175.671 136.17 175.644C136.129 175.617 136.089 175.588 136.05 175.558C136.011 175.527 135.973 175.495 135.937 175.462C135.901 175.428 135.866 175.393 135.833 175.357C135.8 175.32 135.768 175.282 135.738 175.243C135.708 175.204 135.679 175.164 135.652 175.122C135.626 175.081 135.601 175.038 135.577 174.995C135.554 174.951 135.533 174.907 135.513 174.861ZM135.46 183.939C136.02 185.043 136.745 185.715 137.647 185.976C138.5 186.221 139.465 186.077 140.543 185.528C141.625 184.973 142.313 184.28 142.607 183.448C142.927 182.568 142.804 181.581 142.244 180.483L140.98 178.003L134.196 181.459L135.46 183.939ZM136.303 183.245L135.716 182.088L140.596 179.597L141.183 180.76C141.62 181.603 141.743 182.317 141.556 182.904C141.364 183.48 140.836 183.992 139.977 184.424C139.145 184.851 138.431 184.979 137.839 184.797C137.252 184.611 136.735 184.093 136.303 183.251L136.303 183.245Z"   fill="#4C8CFF" ></path><path d="M159.567 170.195C156.068 169.64 153.513 170.296 152.617 172.883L152.26 173.912L154.735 178.269L156.484 181.443L158.057 184.381L159.455 187.091L160.084 188.355L161.204 190.701C161.38 191.075 161.545 191.443 161.7 191.795L162.553 193.789L162.9 194.653C163.433 196.045 163.791 197.187 163.967 198.061L164.047 198.52L163.94 198.467C162.372 197.629 158.585 194.488 156.5 191.725L154.575 189.203L153.844 188.339C152.068 186.269 150.335 184.701 148.495 183.715C145.657 182.195 142.735 182.211 140.191 184.184C137.732 186.093 137.38 188.749 138.697 191.544L139.06 192.259L139.449 192.936L139.673 193.283L140.212 194.04L140.911 194.947L143.652 198.291L144.761 199.699C145.727 200.984 146.292 201.928 146.596 202.776L146.724 203.187C148.377 209.443 157.839 216.024 169.508 220.765C172.303 221.907 174.361 223.336 175.999 225.064L176.393 225.565L177.556 227.101C178.815 228.717 180.516 230.728 181.556 230.984L181.817 231.037C182.836 231.197 185.375 230.163 188.228 228.691L190.164 227.656L191.14 227.107L193.06 225.965L194.873 224.824C197.193 223.32 199.007 221.933 199.476 221.197C200.708 219.261 200.063 218.253 198.052 216.712L196.772 215.784L193.732 213.693C191.748 212.28 190.516 211.144 190.031 210.253C189.817 209.859 189.657 209.133 189.551 207.981L189.449 206.675C189.435 206.421 189.423 206.166 189.412 205.912L189.332 203.128L189.257 197.437C189.247 197.05 189.235 196.662 189.22 196.275L189.113 194.195C188.863 190.675 188.329 188.643 187.167 187.112C186.164 185.795 183.428 183.645 180.02 181.32L177.663 179.752C176.839 179.216 176.011 178.688 175.177 178.168L172.633 176.616L170.1 175.139L167.657 173.773C164.084 171.832 161.033 170.429 159.567 170.2L159.567 170.195ZM158.329 174.861L158.82 174.936C159.433 175.032 160.58 175.507 162.052 176.227L163.972 177.208L165.023 177.773L167.263 179.032L169.631 180.413L172.036 181.869L174.409 183.363L176.671 184.835L177.732 185.549L179.673 186.909C181.476 188.216 182.82 189.32 183.343 190.013C183.695 190.472 183.956 191.4 184.143 192.856L184.281 194.243L184.388 195.896L184.484 198.92L184.553 204.323L184.612 206.232L184.655 207.075L184.772 208.552C184.953 210.355 185.268 211.533 185.812 212.536C186.628 214.051 187.999 215.4 190.025 216.931L191.273 217.837L193.988 219.693L192.719 220.515L191.012 221.581L189.145 222.701L186.372 224.333L184.745 225.24L183.476 225.917L183.023 226.136L182.847 226.205L181.908 224.808L181.071 223.635C180.832 223.314 180.583 223.001 180.324 222.696L179.487 221.768C177.391 219.544 174.756 217.72 171.316 216.323C161.023 212.136 152.484 206.195 151.364 201.96C150.815 199.896 149.737 198.173 147.481 195.389L144.74 192.045L144.116 191.235L143.657 190.584C143.595 190.491 143.535 190.397 143.476 190.301L143.172 189.757L143.039 189.491C142.607 188.573 142.633 188.365 143.129 187.976C144.052 187.267 144.948 187.261 146.223 187.944C147.236 188.488 148.335 189.421 149.497 190.675L150.591 191.923L151.647 193.256L152.665 194.611C156.868 200.184 163.295 205.176 167.172 202.712L167.503 202.477C169.22 201.107 169.316 198.451 167.839 194.093L167.209 192.381C167.09 192.074 166.967 191.769 166.841 191.464L165.988 189.501L164.996 187.368L163.855 185.064L162.564 182.573L161.129 179.901L158.329 174.861Z"   fill="#4C8CFF" ></path></g><defs><clipPath id="clip-path-zuyBY5LXA2994aMFUJKVh"><path d="M0 422L287 422L287 0L0 0L0 422Z" fill="white"/></clipPath><linearGradient id="linear_fill_Rf4gFvjrFmLcqsoTeWV-V_0" x1="0.5" y1="202" x2="287.5" y2="202" gradientUnits="userSpaceOnUse"><stop offset="0" stop-color="#BFC3C5"  /><stop offset="0.12" stop-color="#F7F8F7"  /><stop offset="0.5" stop-color="#FFFFFF"  /><stop offset="0.88" stop-color="#F0F1EF"  /><stop offset="1" stop-color="#AEB2B4"  /></linearGradient><linearGradient id="linear_border_jx92M1OS9OME9u8bST1RR_0" x1="20.5" y1="30" x2="267.5" y2="398" gradientUnits="userSpaceOnUse"><stop offset="0" stop-color="#FFFFFF" stop-opacity="0.92" /><stop offset="0.48" stop-color="#FFFFFF" stop-opacity="0" /><stop offset="1" stop-color="#7B8289" stop-opacity="0.36" /></linearGradient><linearGradient id="linear_fill_TcDhEdaSVq9LHQ-HrEPVu_0" x1="78.5" y1="120" x2="216.5" y2="250" gradientUnits="userSpaceOnUse"><stop offset="0" stop-color="#061723"  /><stop offset="1" stop-color="#020406"  /></linearGradient><filter id="filter_QMcRn4lahgXs3XKfJ8ajw" x="-5.5" y="-4" width="299" height="434" filterUnits="userSpaceOnUse" color-interpolation-filters="sRGB"><feFlood flood-opacity="0" result="feFloodId_QMcRn4lahgXs3XKfJ8ajw"/><feColorMatrix in="SourceAlpha" type="matrix" values="0 0 0 0 0 0 0 0 0 0 0 0 0 0 0 0 0 0 127 0" result="hardAlpha_QMcRn4lahgXs3XKfJ8ajw"/><feOffset dx="0" dy="4"/><feGaussianBlur stdDeviation="5"/><feComposite in2="hardAlpha_QMcRn4lahgXs3XKfJ8ajw" operator="out"/><feColorMatrix type="matrix" values="0 0 0 0 0.0784313725490196 0 0 0 0 0.12156862745098039 0 0 0 0 0.1607843137254902 0 0 0 0.12 0"/><feBlend mode="normal" in2="feFloodId_QMcRn4lahgXs3XKfJ8ajw" result="dropShadow_1_QMcRn4lahgXs3XKfJ8ajw"/><feBlend mode="normal" in="SourceGraphic" in2="dropShadow_1_QMcRn4lahgXs3XKfJ8ajw" result="shape_QMcRn4lahgXs3XKfJ8ajw"/></filter><filter id="filter_ej6w3sT8oat6TF4knhfEy" x="63.19999999999982" y="80.19999999999982" width="173.60000000000036" height="173.60000000000036" filterUnits="userSpaceOnUse" color-interpolation-filters="sRGB"><feFlood flood-opacity="0" result="feFloodId_ej6w3sT8oat6TF4knhfEy"/><feColorMatrix in="SourceAlpha" type="matrix" values="0 0 0 0 0 0 0 0 0 0 0 0 0 0 0 0 0 0 127 0" result="hardAlpha_ej6w3sT8oat6TF4knhfEy"/><feOffset dx="undefined" dy="undefined"/><feComposite in2="hardAlpha_ej6w3sT8oat6TF4knhfEy" operator="out"/><feColorMatrix type="matrix" values="0 0 0 0 0 0 0 0 0 0 0 0 0 0 0 0 0 0 0 0"/><feBlend mode="normal" in2="feFloodId_ej6w3sT8oat6TF4knhfEy" result="dropShadow_1_ej6w3sT8oat6TF4knhfEy"/><feBlend mode="normal" in="SourceGraphic" in2="dropShadow_1_ej6w3sT8oat6TF4knhfEy" result="shape_ej6w3sT8oat6TF4knhfEy"/><feGaussianBlur result="gaussian_blur_ej6w3sT8oat6TF4knhfEy" stdDeviation="1.4"/></filter></defs></svg>