<svg xmlns="http://www.w3.org/2000/svg" xmlns:xlink="http://www.w3.org/1999/xlink" width="65.19384765625" height="55.00390625" viewBox="0 0 65.19384765625 55.00390625" fill="none"><path d="M42.3374 55.0041L4.45656 55.0041C4.38364 55.0041 4.31075 55.0023 4.23792 54.9988C4.16503 54.9953 4.09231 54.99 4.01975 54.9829C3.94714 54.9759 3.87477 54.9671 3.80263 54.9565C3.73049 54.946 3.65865 54.9337 3.58712 54.9197C3.51558 54.9057 3.44444 54.89 3.37369 54.8725C3.30294 54.855 3.23268 54.8358 3.16291 54.815C3.09309 54.7941 3.02385 54.7716 2.95519 54.7474C2.88653 54.7232 2.8185 54.6973 2.75109 54.6698C2.68374 54.6423 2.61707 54.6132 2.5511 54.5825C2.4852 54.5518 2.42007 54.5195 2.35575 54.4856C2.29143 54.4517 2.22799 54.4163 2.16543 54.3794C2.10287 54.3424 2.04127 54.304 1.98063 54.264C1.91999 54.2241 1.86037 54.1827 1.80179 54.1399C1.74321 54.0971 1.68573 54.0529 1.62935 54.0074C1.57297 53.9618 1.51776 53.9148 1.46372 53.8666C1.40967 53.8184 1.35687 53.7688 1.3053 53.718C1.25372 53.6671 1.20345 53.6151 1.15447 53.5619C1.10549 53.5087 1.05786 53.4543 1.01159 53.3987C0.96532 53.3432 0.920462 53.2865 0.877017 53.2288C0.833573 53.1711 0.791583 53.1123 0.751063 53.0526C0.710544 52.9928 0.67154 52.9321 0.634044 52.8705C0.596548 52.8089 0.560608 52.7463 0.526223 52.683C0.491842 52.6196 0.459061 52.5554 0.427879 52.4904C0.396692 52.4255 0.367144 52.3598 0.339235 52.2935C0.311326 52.2271 0.285086 52.16 0.260514 52.0924C0.235943 52.0247 0.21307 51.9565 0.191897 51.8877C0.170724 51.819 0.151277 51.7497 0.133558 51.68C0.115834 51.6103 0.0998577 51.5402 0.0856287 51.4697C0.0714004 51.3993 0.0589358 51.3285 0.0482356 51.2574C0.0375349 51.1863 0.0286102 51.115 0.0214609 51.0435C0.0143123 50.972 0.00894809 50.9004 0.00536896 50.8285C0.00178983 50.7568 0 50.6849 0 50.6131C0.000403761 50.3779 0.00505551 50.1428 0.0139547 49.9078C0.0228539 49.6728 0.0359937 49.438 0.0533745 49.2034C0.0707598 48.9688 0.0923741 48.7347 0.118217 48.5008C0.144065 48.267 0.174126 48.0338 0.2084 47.801C0.242674 47.5682 0.28114 47.3362 0.323797 47.1048C0.366455 46.8734 0.413282 46.6428 0.464277 46.413C0.515267 46.1832 0.570392 45.9545 0.62965 45.7267C0.688908 45.4988 0.752261 45.2721 0.819709 45.0465C0.887163 44.8209 0.958663 44.5965 1.03422 44.3735C1.10978 44.1504 1.18934 43.9287 1.27291 43.7084C1.35647 43.4881 1.44399 43.2693 1.53546 43.0521C1.62694 42.8348 1.7223 42.6192 1.82157 42.4054C1.92083 42.1915 2.02392 41.9795 2.13084 41.7692C2.23777 41.5589 2.34845 41.3505 2.46291 41.1441C2.57736 40.9378 2.6955 40.7335 2.81732 40.5312C2.93917 40.3289 3.06463 40.1289 3.19369 39.9311C3.32274 39.7332 3.45532 39.5377 3.59143 39.3445C3.72759 39.1513 3.86718 38.9605 4.01021 38.7723C4.15319 38.584 4.29956 38.3982 4.44932 38.215C4.59904 38.0319 4.75202 37.8514 4.90828 37.6736C5.06454 37.4958 5.22395 37.3208 5.38652 37.1486C5.5491 36.9764 5.71473 36.8071 5.88343 36.6407C6.05213 36.4743 6.22378 36.3109 6.39837 36.1505C6.57297 35.9902 6.75039 35.8329 6.93066 35.6788C7.11094 35.5246 7.294 35.3736 7.47972 35.2259C7.66543 35.0782 7.85379 34.9337 8.04473 34.7926C8.23566 34.6515 8.42911 34.5138 8.62506 34.3794C8.82093 34.2451 9.01925 34.1142 9.21994 33.9868C9.42055 33.8595 9.62346 33.7356 9.82861 33.6154C10.0337 33.4951 10.241 33.3785 10.4503 33.2655C10.6597 33.1525 10.871 33.0432 11.0842 32.9376C11.2975 32.832 11.5127 32.7302 11.7297 32.6322C11.9411 32.744 12.1543 32.8524 12.3693 32.9574C12.5842 33.0625 12.8009 33.1641 13.0192 33.2622C13.2375 33.3603 13.4573 33.455 13.6787 33.5462C13.9001 33.6373 14.1229 33.7249 14.3471 33.8091C14.5714 33.8931 14.797 33.9736 15.0239 34.0505C15.2509 34.1274 15.4789 34.2007 15.7082 34.2703C15.9375 34.34 16.1679 34.406 16.3994 34.4683C16.6309 34.5307 16.8633 34.5893 17.0966 34.6442C17.33 34.6992 17.5642 34.7504 17.7993 34.7979C18.0343 34.8454 18.2701 34.8891 18.5066 34.9291C18.7431 34.9691 18.9802 35.0054 19.2179 35.0378C19.4556 35.0703 19.6937 35.0989 19.9323 35.1238C20.171 35.1487 20.4099 35.1698 20.6492 35.1871C20.8885 35.2044 21.128 35.2179 21.3678 35.2275C21.6075 35.2372 21.8474 35.2431 22.0873 35.2452C22.3273 35.2472 22.5671 35.2455 22.807 35.2399C23.0469 35.2343 23.2867 35.2249 23.5262 35.2118C23.7658 35.1986 24.0051 35.1815 24.2441 35.1607C24.4832 35.14 24.7218 35.1154 24.96 35.087C25.1982 35.0586 25.4359 35.0264 25.673 34.9904C25.9102 34.9545 26.1467 34.9148 26.3826 34.8713C26.6184 34.8279 26.8535 34.7807 27.0878 34.7297C27.3222 34.6788 27.5556 34.6242 27.7881 34.5658C28.0206 34.5075 28.2521 34.4454 28.4826 34.3797C28.7131 34.314 28.9425 34.2446 29.1707 34.1716C29.3989 34.0986 29.6259 34.022 29.8516 33.9418C30.0773 33.8615 30.3016 33.7777 30.5246 33.6904C30.7476 33.603 30.9691 33.5121 31.1891 33.4177C31.409 33.3233 31.6275 33.2255 31.8442 33.1241C32.061 33.0228 32.2761 32.918 32.4895 32.8098C32.7028 32.7017 32.9144 32.5901 33.124 32.4752C33.3337 32.3603 33.5415 32.2421 33.7473 32.1206C33.6937 32.3765 33.6467 32.6336 33.6064 32.8918C33.5661 33.1501 33.5325 33.4092 33.5056 33.6692C33.4786 33.9291 33.4584 34.1896 33.445 34.4506C33.4315 34.7115 33.4248 34.9726 33.4249 35.2339C33.4249 35.4952 33.4317 35.7564 33.4452 36.0173C33.4588 36.2782 33.479 36.5387 33.5061 36.7986C33.5331 37.0586 33.5668 37.3176 33.6072 37.5759C33.6476 37.8341 33.6947 38.0912 33.7484 38.3471C33.8021 38.603 33.8624 38.8574 33.9292 39.1102C33.9961 39.3631 34.0694 39.6141 34.1493 39.8633C34.2291 40.1124 34.3153 40.3595 34.408 40.6043C34.5006 40.8492 34.5994 41.0915 34.7046 41.3314C34.8097 41.5713 34.921 41.8083 35.0384 42.0426C35.1558 42.2769 35.2792 42.5082 35.4085 42.7363C35.5379 42.9644 35.6731 43.1891 35.8141 43.4104C35.955 43.6318 36.1016 43.8494 36.2539 44.0633C36.4061 44.2773 36.5637 44.4873 36.7268 44.6933C36.89 44.8994 37.0583 45.1012 37.2318 45.2988C37.4053 45.4964 37.5839 45.6895 37.7674 45.8781C37.9509 46.0667 38.1391 46.2507 38.3322 46.4299C38.5252 46.609 38.7227 46.7833 38.9248 46.9526C39.1268 47.1218 39.3331 47.2859 39.5436 47.4448C39.7541 47.6038 39.9686 47.7573 40.1871 47.9055C40.4055 48.0536 40.6276 48.1962 40.8535 48.3332C41.0793 48.4702 41.3085 48.6014 41.5412 48.7268C41.7738 48.8523 42.0095 48.9719 42.2483 49.0856C42.4871 49.1993 42.7287 49.3069 42.9731 49.4083C43.2174 49.5099 43.4643 49.6052 43.7135 49.6944C43.9628 49.7835 44.2143 49.8664 44.4678 49.9429C44.7214 50.0194 44.9768 50.0895 45.234 50.1531C45.4911 50.2169 45.7498 50.274 46.0101 50.3247C46.2702 50.3754 46.5315 50.4196 46.7939 50.4572L46.7939 50.6131C46.7939 50.6849 46.7921 50.7568 46.7886 50.8285C46.785 50.9004 46.7797 50.972 46.7725 51.0435C46.7653 51.115 46.7564 51.1863 46.7457 51.2574C46.735 51.3285 46.7226 51.3993 46.7083 51.4697C46.6941 51.5402 46.6781 51.6103 46.6604 51.68C46.6426 51.7497 46.6232 51.819 46.602 51.8877C46.5809 51.9565 46.558 52.0247 46.5334 52.0924C46.5089 52.16 46.4826 52.2271 46.4547 52.2935C46.4268 52.3598 46.3972 52.4255 46.366 52.4904C46.3349 52.5554 46.3021 52.6196 46.2677 52.683C46.2333 52.7463 46.1974 52.8089 46.1599 52.8705C46.1224 52.9321 46.0834 52.9928 46.0429 53.0526C46.0023 53.1123 45.9603 53.1711 45.9169 53.2288C45.8734 53.2865 45.8286 53.3432 45.7824 53.3987C45.7361 53.4543 45.6884 53.5087 45.6395 53.5619C45.5905 53.6151 45.5402 53.6671 45.4886 53.718C45.437 53.7688 45.3843 53.8184 45.3302 53.8666C45.2762 53.9148 45.221 53.9618 45.1646 54.0074C45.1082 54.0529 45.0507 54.0971 44.9922 54.1399C44.9336 54.1827 44.8739 54.2241 44.8133 54.264C44.7526 54.304 44.6911 54.3424 44.6285 54.3793C44.5659 54.4163 44.5025 54.4517 44.4382 54.4856C44.3739 54.5194 44.3087 54.5517 44.2428 54.5825C44.1768 54.6132 44.1102 54.6423 44.0428 54.6698C43.9754 54.6973 43.9074 54.7232 43.8387 54.7474C43.7701 54.7716 43.7009 54.7941 43.631 54.815C43.5613 54.8358 43.491 54.855 43.4202 54.8725C43.3495 54.89 43.2783 54.9057 43.2068 54.9197C43.1353 54.9337 43.0634 54.946 42.9913 54.9565C42.9192 54.9671 42.8468 54.9759 42.7742 54.9829C42.7016 54.99 42.6289 54.9953 42.556 54.9988C42.4832 55.0023 42.4103 55.0041 42.3374 55.0041Z"   fill="#FFFFFF" ></path><path d="M6.11133 15.3687C6.11133 15.6202 6.11759 15.8716 6.13013 16.1228C6.14266 16.374 6.16144 16.6247 6.18646 16.8751C6.21149 17.1254 6.2427 17.3749 6.28012 17.6237C6.31758 17.8725 6.36122 18.1203 6.41103 18.3669C6.46084 18.6136 6.51676 18.8589 6.57878 19.1029C6.6408 19.3469 6.70886 19.5892 6.78295 19.8299C6.85709 20.0706 6.93714 20.3093 7.02311 20.5461C7.10913 20.7829 7.20098 21.0175 7.29866 21.2499C7.39633 21.4823 7.49974 21.7121 7.60888 21.9395C7.71801 22.1668 7.83277 22.3915 7.95315 22.6133C8.07347 22.8351 8.19925 23.0538 8.33049 23.2696C8.46173 23.4853 8.59826 23.6978 8.74008 23.9069C8.8819 24.116 9.02885 24.3215 9.18093 24.5236C9.33296 24.7256 9.48997 24.9238 9.65193 25.1182C9.81385 25.3127 9.98054 25.503 10.152 25.6894C10.3234 25.8758 10.4994 26.0579 10.6799 26.2357C10.8604 26.4135 11.0452 26.5869 11.2344 26.7558C11.4235 26.9247 11.6167 27.089 11.8141 27.2485C12.0114 27.4081 12.2126 27.5628 12.4176 27.7126C12.6226 27.8624 12.8313 28.0072 13.0435 28.1469C13.2558 28.2867 13.4714 28.4212 13.6904 28.5505C13.9094 28.6798 14.1313 28.8037 14.3565 28.9223C14.5816 29.0408 14.8096 29.1539 15.0403 29.2615C15.2711 29.369 15.5044 29.4709 15.7402 29.5671C15.9761 29.6634 16.2142 29.7539 16.4545 29.8386C16.6949 29.9233 16.9372 30.0022 17.1815 30.0752C17.4257 30.1482 17.6717 30.2153 17.9193 30.2764C18.167 30.3375 18.416 30.3926 18.6663 30.4417C18.9167 30.4907 19.1681 30.5337 19.4206 30.5707C19.6732 30.6075 19.9264 30.6383 20.1804 30.6629C20.4345 30.6876 20.6891 30.7061 20.944 30.7184C21.1989 30.7308 21.4541 30.737 21.7093 30.737C21.9646 30.737 22.2197 30.7308 22.4747 30.7184C22.7296 30.7061 22.9841 30.6876 23.2382 30.6629C23.4922 30.6383 23.7455 30.6075 23.9981 30.5707C24.2505 30.5337 24.502 30.4907 24.7523 30.4417C25.0027 30.3926 25.2517 30.3375 25.4994 30.2764C25.747 30.2153 25.9929 30.1482 26.2372 30.0752C26.4815 30.0022 26.7238 29.9233 26.9641 29.8386C27.2045 29.7539 27.4426 29.6634 27.6784 29.5671C27.9143 29.4709 28.1475 29.369 28.3783 29.2615C28.6091 29.154 28.8371 29.0409 29.0622 28.9223C29.2873 28.8037 29.5093 28.6798 29.7283 28.5505C29.9473 28.4212 30.1629 28.2867 30.3751 28.1469C30.5874 28.0072 30.796 27.8624 31.0011 27.7126C31.2061 27.5628 31.4072 27.4081 31.6046 27.2485C31.8019 27.089 31.9952 26.9247 32.1843 26.7558C32.3735 26.5869 32.5583 26.4135 32.7388 26.2357C32.9193 26.0579 33.0952 25.8758 33.2667 25.6894C33.4381 25.503 33.6048 25.3127 33.7667 25.1182C33.9287 24.9238 34.0857 24.7256 34.2377 24.5236C34.3898 24.3215 34.5367 24.116 34.6786 23.9069C34.8204 23.6977 34.9569 23.4853 35.0882 23.2696C35.2194 23.0538 35.3452 22.8351 35.4655 22.6133C35.5859 22.3915 35.7007 22.1668 35.8098 21.9395C35.9189 21.7121 36.0223 21.4823 36.12 21.2499C36.2177 21.0175 36.3095 20.7829 36.3955 20.5461C36.4815 20.3093 36.5615 20.0706 36.6357 19.8299C36.7098 19.5892 36.7778 19.3469 36.8399 19.1029C36.9019 18.8589 36.9578 18.6136 37.0076 18.3669C37.0574 18.1203 37.1011 17.8725 37.1385 17.6237C37.1759 17.3749 37.2072 17.1254 37.2322 16.8751C37.2572 16.6247 37.276 16.374 37.2885 16.1228C37.3011 15.8716 37.3073 15.6202 37.3073 15.3687C37.3073 15.1172 37.3011 14.8658 37.2885 14.6147C37.276 14.3635 37.2572 14.1127 37.2322 13.8624C37.2072 13.6121 37.1759 13.3626 37.1385 13.1137C37.1011 12.8649 37.0574 12.6172 37.0076 12.3705C36.9578 12.1239 36.9019 11.8786 36.8399 11.6345C36.7778 11.3905 36.7098 11.1482 36.6357 10.9075C36.5615 10.6669 36.4815 10.4281 36.3955 10.1913C36.3095 9.95451 36.2177 9.71994 36.12 9.48756C36.0223 9.25519 35.9189 9.02535 35.8098 8.79798C35.7007 8.57061 35.5859 8.34599 35.4655 8.12418C35.3452 7.90237 35.2194 7.68365 35.0882 7.46787C34.9569 7.2521 34.8204 7.03969 34.6786 6.83057C34.5367 6.62145 34.3898 6.41588 34.2377 6.21385C34.0857 6.01187 33.9287 5.81366 33.7667 5.61923C33.6048 5.42479 33.4381 5.2344 33.2667 5.04806C33.0952 4.86167 32.9193 4.67957 32.7388 4.50174C32.5583 4.3239 32.3735 4.15053 32.1843 3.98162C31.9952 3.8127 31.8019 3.64848 31.6046 3.48894C31.4072 3.32936 31.2061 3.17467 31.0011 3.02487C30.796 2.87503 30.5874 2.73025 30.3751 2.59052C30.1629 2.45078 29.9473 2.31627 29.7283 2.18696C29.5093 2.05766 29.2873 1.93373 29.0622 1.81518C28.8371 1.69657 28.6091 1.58351 28.3783 1.47598C28.1475 1.36845 27.9143 1.26656 27.6784 1.17033C27.4426 1.07409 27.2045 0.983596 26.9641 0.898844C26.7238 0.814133 26.4815 0.735261 26.2372 0.662214C25.9929 0.589215 25.747 0.522162 25.4994 0.461055C25.2517 0.399948 25.0027 0.344855 24.7523 0.295778C24.502 0.246714 24.2505 0.20373 23.9981 0.166829C23.7455 0.129922 23.4922 0.0991421 23.2382 0.0744891C22.9841 0.049836 22.7296 0.0313393 22.4747 0.0189986C22.2197 0.00665858 21.9646 0.000488281 21.7093 0.000488281C21.4541 0.000488281 21.1989 0.00665858 20.944 0.0189986C20.6891 0.0313393 20.4345 0.049836 20.1804 0.0744891C19.9264 0.0991421 19.6732 0.129922 19.4206 0.166829C19.1681 0.20373 18.9167 0.246714 18.6663 0.295778C18.416 0.344855 18.167 0.399948 17.9193 0.461055C17.6717 0.522162 17.4257 0.589215 17.1815 0.662214C16.9372 0.735261 16.6949 0.814133 16.4545 0.898844C16.2142 0.983596 15.9761 1.07409 15.7402 1.17033C15.5044 1.26656 15.2711 1.36845 15.0403 1.47598C14.8096 1.58351 14.5816 1.69657 14.3565 1.81518C14.1313 1.93373 13.9094 2.05766 13.6904 2.18696C13.4714 2.31627 13.2558 2.45078 13.0435 2.59052C12.8313 2.73025 12.6226 2.87503 12.4176 3.02487C12.2126 3.17467 12.0114 3.32936 11.8141 3.48894C11.6167 3.64848 11.4235 3.8127 11.2344 3.98162C11.0452 4.15053 10.8604 4.3239 10.6799 4.50174C10.4994 4.67957 10.3234 4.86167 10.152 5.04806C9.98054 5.2344 9.81385 5.42479 9.65193 5.61923C9.48997 5.81366 9.33296 6.01187 9.18093 6.21385C9.02885 6.41588 8.8819 6.62145 8.74008 6.83057C8.59826 7.03969 8.46173 7.2521 8.33049 7.46787C8.19925 7.68365 8.07347 7.90237 7.95315 8.12418C7.83277 8.34599 7.71801 8.57061 7.60888 8.79798C7.49974 9.02535 7.39633 9.25519 7.29866 9.48756C7.20098 9.71994 7.10913 9.95451 7.02311 10.1913C6.93714 10.4281 6.85709 10.6669 6.78295 10.9075C6.70886 11.1482 6.6408 11.3905 6.57878 11.6345C6.51676 11.8786 6.46084 12.1239 6.41103 12.3705C6.36122 12.6172 6.31758 12.8649 6.28012 13.1137C6.2427 13.3626 6.21149 13.6121 6.18646 13.8624C6.16144 14.1127 6.14266 14.3635 6.13013 14.6147C6.11759 14.8658 6.11133 15.1172 6.11133 15.3687Z"   fill="#FFFFFF" ></path><path d="M50.9324 46.1688C43.0689 46.1688 36.6714 39.8655 36.6714 32.1178C36.6714 24.3701 43.0689 18.0669 50.9324 18.0669C58.7959 18.0669 65.1934 24.3701 65.1934 32.1178C65.1934 39.8655 58.7959 46.1688 50.9324 46.1688Z"   fill="#FFFFFF" fill-opacity="0.7"></path><path d="M57.4508 30.5155C57.6709 30.5155 57.8796 30.5504 58.0823 30.6359C58.2851 30.7215 58.4672 30.8345 58.612 30.9772C58.7568 31.1198 58.8715 31.2993 58.9584 31.4991C59.0452 31.6988 59.0806 31.9045 59.0806 32.1213C59.0806 32.3496 59.0452 32.5696 58.9584 32.7636C58.8715 32.9577 58.7568 33.1228 58.612 33.2655C58.4672 33.4081 58.2851 33.5211 58.0823 33.6067C57.8796 33.6923 57.6709 33.7271 57.4508 33.7271L52.5613 33.7271L52.5613 38.5445C52.5613 38.7728 52.5259 38.9728 52.439 39.1668C52.3521 39.3608 52.2375 39.546 52.0927 39.6887C51.9479 39.8313 51.7657 39.9443 51.563 40.0299C51.3603 40.1155 51.1515 40.1504 50.9314 40.1504C50.6997 40.1504 50.4764 40.1155 50.2795 40.0299C50.0826 39.9443 49.9149 39.8313 49.7702 39.6887C49.6254 39.546 49.5107 39.3608 49.4238 39.1668C49.3369 38.9728 49.3016 38.7728 49.3016 38.5445L49.3016 33.7271L44.4121 33.7271C44.1804 33.7271 43.9774 33.6923 43.7805 33.6067C43.5836 33.5211 43.3956 33.4081 43.2508 33.2655C43.106 33.1228 42.9913 32.9577 42.9045 32.7636C42.8176 32.5696 42.7822 32.3496 42.7822 32.1213C42.7822 31.9045 42.8176 31.6988 42.9045 31.4991C42.9913 31.2993 43.106 31.1198 43.2508 30.9772C43.3956 30.8345 43.5836 30.7215 43.7805 30.6359C43.9774 30.5504 44.1804 30.5155 44.4121 30.5155L49.3016 30.5155L49.3016 25.6981C49.3016 25.4812 49.3369 25.2756 49.4238 25.0758C49.5107 24.8761 49.6254 24.6966 49.7702 24.554C49.9149 24.4113 50.0826 24.2983 50.2795 24.2127C50.4764 24.1271 50.6997 24.0923 50.9314 24.0923C51.3832 24.0923 51.7741 24.2401 52.0927 24.554C52.4112 24.8678 52.5613 25.253 52.5613 25.6981L52.5613 30.5155L57.4508 30.5155Z"   fill="#FFFFFF" ></path></svg>