<svg xmlns="http://www.w3.org/2000/svg" xmlns:xlink="http://www.w3.org/1999/xlink" width="64.09716796875" height="54.88330078125" viewBox="0 0 64.09716796875 54.88330078125" fill="none"><path d="M42.3376 54.8835L4.45659 54.8835C4.38366 54.8835 4.31077 54.8817 4.23794 54.8782C4.16505 54.8747 4.09233 54.8694 4.01977 54.8624C3.94716 54.8553 3.87479 54.8465 3.80265 54.836C3.73051 54.8255 3.65867 54.8132 3.58713 54.7991C3.5156 54.7851 3.44445 54.7694 3.37371 54.7519C3.30296 54.7344 3.2327 54.7153 3.16292 54.6944C3.0931 54.6736 3.02386 54.6511 2.9552 54.6268C2.88654 54.6026 2.81851 54.5768 2.75111 54.5492C2.68375 54.5217 2.61708 54.4926 2.55112 54.4619C2.48521 54.4312 2.42009 54.3989 2.35577 54.365C2.29144 54.3311 2.228 54.2957 2.16544 54.2588C2.10288 54.2218 2.04128 54.1834 1.98064 54.1435C1.91999 54.1036 1.86038 54.0622 1.8018 54.0194C1.74321 53.9766 1.68574 53.9324 1.62936 53.8868C1.57297 53.8412 1.51777 53.7943 1.46372 53.746C1.40968 53.6978 1.35688 53.6483 1.30531 53.5974C1.25373 53.5466 1.20345 53.4946 1.15447 53.4413C1.10549 53.3881 1.05787 53.3337 1.0116 53.2781C0.965324 53.2226 0.920466 53.166 0.877021 53.1083C0.833577 53.0506 0.791587 52.9918 0.751067 52.932C0.710547 52.8722 0.671543 52.8116 0.634047 52.7499C0.596551 52.6883 0.560611 52.6258 0.526225 52.5624C0.491844 52.4991 0.459063 52.4349 0.427881 52.3699C0.396694 52.3049 0.367146 52.2393 0.339237 52.1729C0.311327 52.1065 0.285087 52.0395 0.260515 51.9718C0.235944 51.9042 0.213071 51.836 0.191898 51.7672C0.170725 51.6984 0.151278 51.6292 0.133558 51.5595C0.115834 51.4898 0.0998582 51.4197 0.0856291 51.3492C0.0714008 51.2787 0.0589361 51.2079 0.0482358 51.1368C0.037535 51.0658 0.0286103 50.9945 0.021461 50.9229C0.0143123 50.8514 0.00894813 50.7798 0.00536898 50.708C0.00178983 50.6362 0 50.5644 0 50.4925C0.000403763 50.2574 0.00505553 50.0222 0.0139548 49.7872C0.022854 49.5522 0.0359938 49.3174 0.0533747 49.0828C0.0707601 48.8483 0.0923746 48.6141 0.118218 48.3803C0.144066 48.1465 0.174127 47.9132 0.208401 47.6805C0.242675 47.4477 0.281141 47.2156 0.323799 46.9842C0.366457 46.7528 0.413284 46.5222 0.464279 46.2924C0.51527 46.0627 0.570394 45.8339 0.629653 45.6061C0.688912 45.3782 0.752265 45.1516 0.819712 44.926C0.887167 44.7003 0.958667 44.476 1.03423 44.2529C1.10978 44.0298 1.18934 43.8081 1.27291 43.5878C1.35648 43.3675 1.444 43.1487 1.53547 42.9315C1.62695 42.7142 1.72231 42.4987 1.82157 42.2848C1.92084 42.0709 2.02393 41.8589 2.13085 41.6486C2.23778 41.4383 2.34846 41.2299 2.46292 41.0236C2.57738 40.8172 2.69552 40.6129 2.81733 40.4106C2.93919 40.2084 3.06465 40.0083 3.1937 39.8105C3.32275 39.6126 3.45534 39.4171 3.59145 39.2239C3.72761 39.0307 3.8672 38.84 4.01023 38.6517C4.15321 38.4634 4.29958 38.2776 4.44934 38.0945C4.59906 37.9113 4.75204 37.7308 4.9083 37.553C5.06456 37.3752 5.22398 37.2002 5.38655 37.028C5.54913 36.8558 5.71476 36.6865 5.88346 36.5201C6.05216 36.3537 6.22381 36.1903 6.3984 36.0299C6.573 35.8696 6.75043 35.7123 6.93069 35.5582C7.11097 35.404 7.29404 35.253 7.47975 35.1053C7.66547 34.9576 7.85383 34.8131 8.04476 34.672C8.2357 34.5309 8.42915 34.3932 8.6251 34.2588C8.82098 34.1245 9.01929 33.9936 9.21998 33.8662C9.4206 33.7388 9.62351 33.615 9.82865 33.4948C10.0338 33.3745 10.241 33.2579 10.4503 33.1449C10.6597 33.0319 10.871 32.9226 11.0843 32.817C11.2976 32.7114 11.5128 32.6096 11.7297 32.5115C11.9411 32.6234 12.1544 32.7318 12.3693 32.8368C12.5843 32.9419 12.8009 33.0435 13.0192 33.1416C13.2375 33.2397 13.4574 33.3344 13.6787 33.4256C13.9002 33.5167 14.123 33.6043 14.3472 33.6885C14.5715 33.7725 14.7971 33.853 15.024 33.9299C15.2509 34.0068 15.479 34.0801 15.7083 34.1497C15.9376 34.2194 16.168 34.2854 16.3995 34.3477C16.6309 34.4101 16.8634 34.4687 17.0967 34.5236C17.3301 34.5786 17.5643 34.6298 17.7994 34.6773C18.0344 34.7248 18.2702 34.7685 18.5067 34.8085C18.7432 34.8485 18.9803 34.8848 19.218 34.9172C19.4556 34.9497 19.6938 34.9783 19.9324 35.0032C20.1711 35.0281 20.41 35.0492 20.6493 35.0665C20.8886 35.0838 21.1281 35.0973 21.3679 35.1069C21.6076 35.1166 21.8475 35.1225 22.0874 35.1246C22.3274 35.1266 22.5672 35.1249 22.8071 35.1193C23.047 35.1137 23.2868 35.1043 23.5263 35.0912C23.7659 35.078 24.0052 35.0609 24.2442 35.0401C24.4833 35.0194 24.7219 34.9948 24.9601 34.9664C25.1983 34.938 25.436 34.9058 25.6731 34.8698C25.9103 34.8339 26.1469 34.7942 26.3827 34.7507C26.6186 34.7073 26.8536 34.6601 27.088 34.6091C27.3223 34.5582 27.5557 34.5036 27.7882 34.4452C28.0207 34.3869 28.2522 34.3248 28.4827 34.2591C28.7132 34.1934 28.9426 34.124 29.1709 34.051C29.3991 33.978 29.6261 33.9014 29.8517 33.8212C30.0774 33.7409 30.3018 33.6571 30.5248 33.5698C30.7477 33.4824 30.9692 33.3915 31.1892 33.2971C31.4092 33.2027 31.6276 33.1049 31.8444 33.0035C32.0612 32.9022 32.2763 32.7974 32.4896 32.6892C32.703 32.5811 32.9145 32.4695 33.1242 32.3546C33.3339 32.2397 33.5417 32.1215 33.7475 32C33.6939 32.2559 33.6469 32.513 33.6066 32.7712C33.5662 33.0295 33.5327 33.2886 33.5057 33.5486C33.4788 33.8085 33.4586 34.069 33.4451 34.33C33.4317 34.5909 33.425 34.852 33.425 35.1133C33.4251 35.3746 33.4319 35.6358 33.4454 35.8967C33.4589 36.1577 33.4792 36.4181 33.5062 36.678C33.5332 36.938 33.5669 37.197 33.6074 37.4553C33.6478 37.7135 33.6949 37.9706 33.7485 38.2265C33.8022 38.4824 33.8625 38.7368 33.9294 38.9897C33.9962 39.2425 34.0696 39.4935 34.1494 39.7427C34.2293 39.9918 34.3155 40.2389 34.4081 40.4838C34.5007 40.7286 34.5996 40.9709 34.7048 41.2108C34.8099 41.4507 34.9212 41.6878 35.0386 41.9221C35.156 42.1564 35.2794 42.3876 35.4087 42.6157C35.5381 42.8438 35.6732 43.0685 35.8142 43.2899C35.9552 43.5112 36.1018 43.7288 36.2541 43.9427C36.4063 44.1567 36.5639 44.3667 36.727 44.5728C36.8902 44.7788 37.0585 44.9806 37.232 45.1782C37.4055 45.3758 37.5841 45.569 37.7676 45.7576C37.951 45.9462 38.1393 46.1301 38.3324 46.3093C38.5254 46.4885 38.7229 46.6627 38.9249 46.832C39.1269 47.0012 39.3333 47.1654 39.5438 47.3243C39.7543 47.4832 39.9688 47.6368 40.1873 47.7849C40.4057 47.933 40.6278 48.0756 40.8537 48.2126C41.0795 48.3496 41.3087 48.4808 41.5414 48.6063C41.774 48.7318 42.0097 48.8513 42.2485 48.965C42.4873 49.0787 42.7289 49.1863 42.9733 49.2878C43.2176 49.3893 43.4645 49.4847 43.7137 49.5738C43.963 49.6629 44.2145 49.7458 44.468 49.8223C44.7216 49.8988 44.9771 49.9689 45.2342 50.0326C45.4914 50.0963 45.7501 50.1535 46.0103 50.2042C46.2704 50.2549 46.5317 50.2991 46.7942 50.3367L46.7942 50.4925C46.7942 50.5644 46.7923 50.6362 46.7888 50.708C46.7852 50.7798 46.7799 50.8514 46.7727 50.9229C46.7655 50.9945 46.7566 51.0658 46.7459 51.1368C46.7352 51.2079 46.7228 51.2787 46.7085 51.3492C46.6943 51.4197 46.6784 51.4898 46.6606 51.5595C46.6428 51.6292 46.6234 51.6984 46.6022 51.7672C46.5811 51.836 46.5582 51.9042 46.5337 51.9718C46.5091 52.0395 46.4828 52.1065 46.4549 52.1729C46.427 52.2393 46.3974 52.3049 46.3663 52.3699C46.3351 52.4349 46.3023 52.4991 46.2679 52.5624C46.2335 52.6258 46.1976 52.6883 46.1601 52.7499C46.1226 52.8116 46.0836 52.8722 46.0431 52.932C46.0026 52.9918 45.9606 53.0506 45.9171 53.1083C45.8737 53.166 45.8288 53.2226 45.7826 53.2781C45.7363 53.3337 45.6886 53.3881 45.6397 53.4413C45.5907 53.4946 45.5405 53.5466 45.4889 53.5974C45.4373 53.6483 45.3845 53.6978 45.3304 53.746C45.2764 53.7943 45.2212 53.8412 45.1648 53.8868C45.1085 53.9324 45.0509 53.9766 44.9924 54.0194C44.9338 54.0622 44.8741 54.1036 44.8135 54.1435C44.7528 54.1834 44.6913 54.2218 44.6287 54.2588C44.5661 54.2957 44.5027 54.3311 44.4384 54.365C44.3741 54.3988 44.3089 54.4312 44.243 54.4619C44.177 54.4926 44.1104 54.5217 44.043 54.5492C43.9756 54.5768 43.9076 54.6026 43.839 54.6268C43.7703 54.6511 43.7011 54.6736 43.6312 54.6944C43.5615 54.7153 43.4912 54.7344 43.4205 54.7519C43.3497 54.7694 43.2785 54.7851 43.207 54.7991C43.1355 54.8132 43.0636 54.8255 42.9915 54.836C42.9194 54.8465 42.847 54.8553 42.7744 54.8624C42.7018 54.8694 42.6291 54.8747 42.5562 54.8782C42.4834 54.8817 42.4105 54.8835 42.3376 54.8835Z"   fill="#FFFFFF" ></path><path d="M6 15.3684C6 15.6199 6.00627 15.8713 6.0188 16.1224C6.03134 16.3736 6.05011 16.6244 6.07513 16.8747C6.10016 17.125 6.13138 17.3745 6.16879 17.6234C6.20626 17.8722 6.24989 18.1199 6.29971 18.3666C6.34952 18.6132 6.40543 18.8586 6.46745 19.1026C6.52948 19.3466 6.59753 19.5889 6.67162 19.8296C6.74576 20.0703 6.82581 20.309 6.91179 20.5458C6.99781 20.7826 7.08966 21.0172 7.18733 21.2496C7.28501 21.482 7.38841 21.7118 7.49755 21.9392C7.60669 22.1665 7.72145 22.3912 7.84182 22.613C7.96215 22.8348 8.08793 23.0535 8.21917 23.2693C8.35041 23.4851 8.48694 23.6975 8.62876 23.9066C8.77058 24.1157 8.91753 24.3213 9.06961 24.5233C9.22165 24.7253 9.37865 24.9235 9.54062 25.1179C9.70254 25.3124 9.86922 25.5028 10.0407 25.6891C10.2121 25.8755 10.3881 26.0576 10.5686 26.2354C10.7491 26.4133 10.9339 26.5866 11.1231 26.7556C11.3122 26.9245 11.5054 27.0887 11.7028 27.2482C11.9001 27.4078 12.1013 27.5625 12.3063 27.7123C12.5113 27.8622 12.72 28.0069 12.9322 28.1467C13.1445 28.2864 13.3601 28.4209 13.5791 28.5502C13.7981 28.6796 14.02 28.8035 14.2452 28.922C14.4703 29.0406 14.6983 29.1536 14.9291 29.2612C15.1598 29.3687 15.3931 29.4706 15.6289 29.5669C15.8648 29.6631 16.1029 29.7536 16.3433 29.8384C16.5836 29.9231 16.8259 30.0019 17.0702 30.075C17.3144 30.148 17.5604 30.215 17.808 30.2762C18.0557 30.3373 18.3047 30.3924 18.555 30.4414C18.8054 30.4905 19.0568 30.5335 19.3093 30.5704C19.5619 30.6073 19.8151 30.6381 20.0692 30.6627C20.3233 30.6873 20.5778 30.7058 20.8327 30.7182C21.0876 30.7305 21.3428 30.7367 21.5981 30.7367C21.8533 30.7367 22.1085 30.7305 22.3634 30.7182C22.6183 30.7058 22.8728 30.6873 23.1269 30.6627C23.381 30.6381 23.6342 30.6073 23.8868 30.5704C24.1393 30.5335 24.3907 30.4905 24.6411 30.4414C24.8914 30.3924 25.1404 30.3373 25.3881 30.2762C25.6357 30.215 25.8817 30.148 26.1259 30.075C26.3702 30.0019 26.6126 29.9231 26.8529 29.8384C27.0932 29.7536 27.3313 29.6631 27.5672 29.5669C27.803 29.4706 28.0363 29.3687 28.2671 29.2612C28.4978 29.1537 28.7258 29.0406 28.9509 28.922C29.1761 28.8035 29.3981 28.6796 29.6171 28.5502C29.8361 28.4209 30.0516 28.2864 30.2639 28.1467C30.4761 28.0069 30.6848 27.8622 30.8898 27.7123C31.0948 27.5625 31.296 27.4078 31.4934 27.2482C31.6907 27.0887 31.8839 26.9245 32.0731 26.7556C32.2623 26.5866 32.4471 26.4133 32.6276 26.2354C32.808 26.0576 32.984 25.8755 33.1554 25.6891C33.3269 25.5028 33.4936 25.3124 33.6555 25.1179C33.8175 24.9235 33.9745 24.7253 34.1265 24.5233C34.2786 24.3213 34.4255 24.1157 34.5674 23.9066C34.7092 23.6974 34.8457 23.485 34.9769 23.2693C35.1082 23.0535 35.234 22.8348 35.3543 22.613C35.4747 22.3912 35.5894 22.1665 35.6986 21.9392C35.8077 21.7118 35.9111 21.482 36.0088 21.2496C36.1065 21.0172 36.1983 20.7826 36.2843 20.5458C36.3703 20.309 36.4503 20.0703 36.5245 19.8296C36.5986 19.5889 36.6666 19.3466 36.7287 19.1025C36.7907 18.8586 36.8466 18.6132 36.8964 18.3666C36.9462 18.1199 36.9899 17.8722 37.0273 17.6234C37.0647 17.3745 37.096 17.125 37.121 16.8747C37.146 16.6244 37.1648 16.3736 37.1773 16.1224C37.1898 15.8713 37.1961 15.6199 37.1961 15.3684C37.1961 15.1168 37.1898 14.8655 37.1773 14.6143C37.1648 14.3631 37.146 14.1123 37.121 13.862C37.096 13.6117 37.0647 13.3622 37.0273 13.1133C36.9899 12.8646 36.9462 12.6168 36.8964 12.3702C36.8466 12.1235 36.7907 11.8782 36.7287 11.6341C36.6666 11.3902 36.5986 11.1478 36.5245 10.9071C36.4503 10.6665 36.3703 10.4277 36.2843 10.1909C36.1983 9.9541 36.1065 9.71953 36.0088 9.48715C35.9111 9.25477 35.8077 9.02493 35.6986 8.79756C35.5894 8.5702 35.4747 8.34557 35.3543 8.12376C35.234 7.90195 35.1082 7.68322 34.9769 7.46745C34.8457 7.25167 34.7092 7.03926 34.5674 6.83014C34.4255 6.62102 34.2786 6.41545 34.1265 6.21342C33.9745 6.01143 33.8175 5.81322 33.6555 5.61878C33.4936 5.42435 33.3269 5.23396 33.1554 5.04762C32.984 4.86123 32.808 4.67912 32.6276 4.50128C32.4471 4.32345 32.2623 4.15007 32.0731 3.98116C31.8839 3.81225 31.6907 3.64802 31.4934 3.48848C31.296 3.3289 31.0948 3.1742 30.8898 3.02441C30.6848 2.87457 30.4761 2.72978 30.2639 2.59005C30.0516 2.45031 29.8361 2.3158 29.6171 2.18649C29.3981 2.05719 29.1761 1.93326 28.9509 1.8147C28.7258 1.6961 28.4978 1.58303 28.2671 1.4755C28.0363 1.36797 27.803 1.26609 27.5672 1.16985C27.3313 1.07361 27.0932 0.983115 26.8529 0.898363C26.6126 0.813652 26.3702 0.734779 26.1259 0.661731C25.8817 0.588732 25.6357 0.521678 25.3881 0.460571C25.1404 0.399463 24.8914 0.34437 24.6411 0.295292C24.3907 0.246228 24.1393 0.203244 23.8868 0.166342C23.6342 0.129435 23.381 0.0986546 23.1269 0.0740014C22.8728 0.0493482 22.6183 0.0308512 22.3634 0.0185105C22.1085 0.00617035 21.8533 0 21.5981 0C21.3428 0 21.0876 0.00617035 20.8327 0.0185105C20.5778 0.0308512 20.3233 0.0493482 20.0692 0.0740014C19.8151 0.0986546 19.5619 0.129435 19.3093 0.166342C19.0568 0.203244 18.8054 0.246228 18.555 0.295292C18.3047 0.34437 18.0557 0.399463 17.808 0.460571C17.5604 0.521678 17.3144 0.588732 17.0702 0.661731C16.8259 0.734779 16.5836 0.813652 16.3433 0.898363C16.1029 0.983115 15.8648 1.07361 15.6289 1.16985C15.3931 1.26609 15.1598 1.36797 14.9291 1.4755C14.6983 1.58303 14.4703 1.6961 14.2452 1.8147C14.02 1.93326 13.7981 2.05719 13.5791 2.18649C13.3601 2.3158 13.1445 2.45031 12.9322 2.59005C12.72 2.72978 12.5113 2.87457 12.3063 3.02441C12.1013 3.1742 11.9001 3.3289 11.7028 3.48848C11.5054 3.64802 11.3122 3.81225 11.1231 3.98116C10.9339 4.15007 10.7491 4.32345 10.5686 4.50128C10.3881 4.67912 10.2121 4.86123 10.0407 5.04762C9.86922 5.23396 9.70254 5.42435 9.54062 5.61878C9.37865 5.81322 9.22165 6.01143 9.06961 6.21342C8.91753 6.41545 8.77058 6.62102 8.62876 6.83014C8.48694 7.03926 8.35041 7.25167 8.21917 7.46745C8.08793 7.68322 7.96215 7.90195 7.84182 8.12376C7.72145 8.34557 7.60669 8.5702 7.49755 8.79756C7.38841 9.02493 7.28501 9.25477 7.18733 9.48715C7.08966 9.71953 6.99781 9.9541 6.91179 10.1909C6.82581 10.4277 6.74576 10.6665 6.67162 10.9071C6.59753 11.1478 6.52948 11.3902 6.46745 11.6341C6.40543 11.8782 6.34952 12.1235 6.29971 12.3702C6.24989 12.6168 6.20626 12.8646 6.16879 13.1133C6.13138 13.3622 6.10016 13.6117 6.07513 13.862C6.05011 14.1123 6.03134 14.3631 6.0188 14.6143C6.00627 14.8655 6 15.1168 6 15.3684Z"   fill="#FFFFFF" ></path><path d="M39 34.9775C39 41.0306 43.9981 45.9551 50.1415 45.9551C51.7157 45.9551 53.2147 45.6317 54.5737 45.0489L59.9206 52.5668C60.7731 53.7655 61.8077 53.9449 63.0242 53.1049C64.2408 52.265 64.4228 51.2458 63.5703 50.047L58.2223 42.5275C60.1183 40.5585 61.283 37.8995 61.283 34.9775C61.283 28.9245 56.2849 24 50.1415 24C43.9981 24 39 28.9245 39 34.9775ZM43.4566 34.9556C43.4566 31.3242 46.4559 28.3691 50.1415 28.3691C53.8271 28.3691 56.8264 31.3242 56.8264 34.9556C56.8264 38.587 53.8271 41.5421 50.1415 41.5421C46.4559 41.5421 43.4566 38.587 43.4566 34.9556Z" fill-rule="evenodd"  fill="#FFFFFF" fill-opacity="0.7"></path></svg>