<svg xmlns="http://www.w3.org/2000/svg" xmlns:xlink="http://www.w3.org/1999/xlink" width="32.080810546875" height="37.611328125" viewBox="0 0 32.080810546875 37.611328125" fill="none"><path d="M29.8683 37.6118L2.21245 37.6118C0.990609 37.6118 0 36.6213 0 35.3994L0 2.21245C0 0.990515 0.990609 0 2.21245 0L24.7875 0L32.0808 7.74365L32.0808 35.3994C32.0808 36.6213 31.0902 37.6118 29.8683 37.6118ZM21.0185 7.19048L16.0404 15.902L11.0623 7.19048L7.74365 7.19048L13.8279 17.1466L8.29673 17.1466L8.29673 19.9121L14.381 19.9121L14.381 22.6777L8.29673 22.6777L8.29673 25.4433L14.3809 25.4433L14.3809 30.4214L17.6997 30.4214L17.6997 25.4433L23.784 25.4433L23.784 22.6777L17.6998 22.6777L17.6998 19.9121L23.784 19.9121L23.784 17.1466L18.2529 17.1466L24.3372 7.19048L21.0185 7.19048ZM24.8902 2.21245L24.8902 6.63735C24.8902 7.24827 25.3855 7.7436 25.9964 7.7436L30.4214 7.7436L24.8902 2.21245Z"   fill="#75A9D9" ></path></svg>