<svg xmlns="http://www.w3.org/2000/svg" xmlns:xlink="http://www.w3.org/1999/xlink" width="30.6015625" height="27.34423828125" viewBox="0 0 30.6015625 27.34423828125" fill="none"><path d="M20.7812 27.344L2.1875 27.344C2.1517 27.344 2.11593 27.3431 2.08018 27.3414C2.0444 27.3396 2.00871 27.337 1.97309 27.3335C1.93745 27.33 1.90193 27.3256 1.86652 27.3203C1.83111 27.3151 1.79584 27.309 1.76073 27.302C1.72562 27.295 1.6907 27.2872 1.65597 27.2784C1.62124 27.2697 1.58676 27.2602 1.55251 27.2498C1.51824 27.2394 1.48425 27.2282 1.45055 27.2161C1.41685 27.2041 1.38346 27.1912 1.35037 27.1775C1.31731 27.1638 1.28458 27.1493 1.25221 27.134C1.21986 27.1187 1.18789 27.1026 1.15632 27.0857C1.12475 27.0688 1.09361 27.0512 1.0629 27.0328C1.03219 27.0144 1.00196 26.9952 0.97219 26.9753C0.942423 26.9554 0.913161 26.9348 0.884406 26.9135C0.855651 26.8922 0.827439 26.8702 0.799763 26.8475C0.772088 26.8247 0.74499 26.8014 0.718464 26.7773C0.691937 26.7533 0.666018 26.7286 0.640705 26.7033C0.615388 26.678 0.59071 26.6521 0.566668 26.6255C0.542626 26.599 0.519251 26.5719 0.496538 26.5442C0.473826 26.5166 0.451807 26.4883 0.430483 26.4596C0.409158 26.4309 0.388548 26.4016 0.368659 26.3718C0.348769 26.342 0.329624 26.3118 0.31122 26.2811C0.292815 26.2504 0.275174 26.2192 0.258296 26.1877C0.24142 26.1561 0.22533 26.1241 0.210024 26.0918C0.194716 26.0594 0.180212 26.0267 0.166513 25.9936C0.152814 25.9605 0.139934 25.9272 0.127873 25.8934C0.115812 25.8597 0.104585 25.8258 0.0941923 25.7915C0.0837997 25.7572 0.0742543 25.7228 0.0655566 25.688C0.0568569 25.6533 0.049015 25.6184 0.0420307 25.5833C0.0350468 25.5482 0.0289285 25.5129 0.0236764 25.4775C0.0184239 25.4421 0.0140433 25.4066 0.0105341 25.3709C0.00702515 25.3353 0.00439216 25.2996 0.00263535 25.2638C0.000878534 25.2281 0 25.1923 0 25.1565C0.000198185 25.0393 0.00248149 24.9222 0.00684964 24.8051C0.0112178 24.688 0.0176674 24.5711 0.0261988 24.4542C0.0347324 24.3374 0.0453417 24.2207 0.0580268 24.1042C0.0707143 23.9877 0.0854697 23.8715 0.102293 23.7556C0.119116 23.6396 0.137997 23.524 0.158935 23.4087C0.179874 23.2934 0.202859 23.1786 0.22789 23.0641C0.252918 22.9496 0.279976 22.8357 0.309063 22.7222C0.33815 22.6086 0.369246 22.4957 0.402353 22.3833C0.435463 22.2709 0.470558 22.1591 0.507647 22.048C0.544732 21.9369 0.583785 21.8264 0.624804 21.7167C0.665824 21.6069 0.708781 21.4979 0.753679 21.3897C0.798581 21.2815 0.84539 21.1741 0.894113 21.0676C0.942836 20.961 0.993439 20.8554 1.04592 20.7506C1.0984 20.6458 1.15273 20.542 1.20891 20.4392C1.2651 20.3364 1.32308 20.2346 1.38288 20.1339C1.44269 20.0331 1.50427 19.9334 1.56762 19.8349C1.63096 19.7363 1.69604 19.6389 1.76285 19.5427C1.82968 19.4464 1.8982 19.3514 1.96841 19.2576C2.03859 19.1638 2.11043 19.0713 2.18394 18.98C2.25743 18.8888 2.33252 18.7988 2.40922 18.7102C2.48592 18.6217 2.56417 18.5345 2.64397 18.4487C2.72377 18.3629 2.80507 18.2786 2.88787 18.1957C2.97068 18.1128 3.05493 18.0314 3.14063 17.9515C3.22633 17.8716 3.31342 17.7933 3.4019 17.7165C3.49039 17.6397 3.58025 17.5645 3.67141 17.4909C3.76257 17.4173 3.85502 17.3453 3.94874 17.275C4.04246 17.2047 4.13742 17.1361 4.2336 17.0691C4.32974 17.0022 4.42709 16.937 4.52559 16.8736C4.62407 16.8101 4.72367 16.7484 4.82436 16.6885C4.92505 16.6286 5.02677 16.5705 5.12951 16.5142C5.23229 16.4579 5.33599 16.4035 5.44069 16.3509C5.54538 16.2982 5.65099 16.2475 5.7575 16.1987C5.86127 16.2544 5.96593 16.3084 6.07144 16.3607C6.17695 16.4131 6.28328 16.4637 6.39044 16.5126C6.49759 16.5615 6.6055 16.6086 6.71415 16.654C6.82284 16.6994 6.93222 16.7431 7.04228 16.785C7.15237 16.8269 7.26308 16.867 7.37447 16.9053C7.48586 16.9436 7.5978 16.9801 7.71035 17.0148C7.82291 17.0495 7.93601 17.0824 8.04962 17.1134C8.16323 17.1445 8.27733 17.1737 8.39186 17.2011C8.5064 17.2284 8.62138 17.254 8.73677 17.2776C8.85213 17.3013 8.96786 17.3231 9.08393 17.343C9.20004 17.3629 9.31642 17.381 9.43308 17.3972C9.54973 17.4133 9.66663 17.4276 9.78376 17.44C9.9009 17.4524 10.0182 17.4629 10.1356 17.4715C10.2531 17.4802 10.3707 17.4869 10.4883 17.4917C10.606 17.4965 10.7238 17.4994 10.8415 17.5005C10.9593 17.5015 11.0771 17.5006 11.1948 17.4978C11.3125 17.495 11.4302 17.4904 11.5478 17.4838C11.6654 17.4772 11.7829 17.4688 11.9002 17.4584C12.0175 17.448 12.1346 17.4358 12.2516 17.4216C12.3685 17.4075 12.4852 17.3915 12.6016 17.3736C12.718 17.3557 12.8341 17.3359 12.9499 17.3142C13.0656 17.2926 13.181 17.2691 13.296 17.2437C13.411 17.2183 13.5256 17.1911 13.6397 17.162C13.7539 17.1329 13.8675 17.102 13.9806 17.0693C14.0938 17.0365 14.2064 17.002 14.3184 16.9656C14.4304 16.9292 14.5418 16.8911 14.6526 16.8511C14.7634 16.8111 14.8735 16.7694 14.983 16.7259C15.0924 16.6824 15.2011 16.6371 15.3091 16.59C15.4171 16.543 15.5243 16.4943 15.6307 16.4438C15.7371 16.3933 15.8427 16.3411 15.9474 16.2872C16.0521 16.2333 16.156 16.1778 16.2589 16.1205C16.3618 16.0633 16.4638 16.0044 16.5648 15.9438C16.5385 16.0713 16.5154 16.1994 16.4957 16.3281C16.4759 16.4567 16.4594 16.5858 16.4462 16.7153C16.4329 16.8448 16.423 16.9746 16.4164 17.1046C16.4098 17.2346 16.4065 17.3647 16.4066 17.4949C16.4066 17.625 16.4099 17.7551 16.4165 17.8851C16.4232 18.0151 16.4331 18.1449 16.4464 18.2744C16.4597 18.4039 16.4762 18.5329 16.4961 18.6616C16.5159 18.7902 16.539 18.9183 16.5654 19.0458C16.5917 19.1733 16.6213 19.3 16.6541 19.426C16.6869 19.5519 16.7229 19.677 16.7621 19.8011C16.8013 19.9252 16.8436 20.0483 16.8891 20.1703C16.9346 20.2923 16.9831 20.413 17.0347 20.5325C17.0863 20.652 17.1409 20.7701 17.1986 20.8868C17.2562 21.0036 17.3168 21.1188 17.3802 21.2324C17.4437 21.346 17.5101 21.458 17.5793 21.5683C17.6485 21.6785 17.7204 21.7869 17.7952 21.8935C17.8699 22.0001 17.9473 22.1047 18.0273 22.2074C18.1074 22.31 18.19 22.4106 18.2752 22.509C18.3604 22.6074 18.448 22.7037 18.5381 22.7976C18.6281 22.8916 18.7206 22.9832 18.8153 23.0725C18.91 23.1617 19.007 23.2486 19.1062 23.3329C19.2053 23.4172 19.3066 23.499 19.4099 23.5781C19.5132 23.6573 19.6186 23.7338 19.7258 23.8076C19.833 23.8814 19.942 23.9524 20.0529 24.0207C20.1637 24.0889 20.2762 24.1543 20.3904 24.2168C20.5046 24.2793 20.6203 24.3389 20.7375 24.3955C20.8547 24.4522 20.9733 24.5058 21.0933 24.5563C21.2132 24.6069 21.3344 24.6544 21.4567 24.6988C21.5791 24.7432 21.7025 24.7845 21.827 24.8226C21.9515 24.8607 22.0768 24.8956 22.203 24.9274C22.3293 24.9591 22.4563 24.9876 22.584 25.0128C22.7117 25.0381 22.8399 25.0601 22.9687 25.0788L22.9687 25.1565C22.9687 25.1923 22.9679 25.2281 22.9661 25.2638C22.9644 25.2996 22.9617 25.3353 22.9582 25.3709C22.9547 25.4066 22.9503 25.4421 22.9451 25.4775C22.9398 25.5129 22.9337 25.5482 22.9267 25.5833C22.9197 25.6184 22.9119 25.6533 22.9032 25.688C22.8945 25.7228 22.8849 25.7572 22.8745 25.7915C22.8642 25.8258 22.8529 25.8597 22.8409 25.8934C22.8288 25.9272 22.8159 25.9605 22.8022 25.9936C22.7885 26.0267 22.774 26.0594 22.7587 26.0918C22.7434 26.1241 22.7273 26.1561 22.7104 26.1877C22.6936 26.2192 22.6759 26.2504 22.6575 26.2811C22.6391 26.3118 22.62 26.342 22.6001 26.3718C22.5802 26.4016 22.5596 26.4309 22.5382 26.4596C22.5169 26.4883 22.4949 26.5166 22.4722 26.5442C22.4495 26.5719 22.4261 26.599 22.4021 26.6255C22.378 26.6521 22.3534 26.678 22.328 26.7033C22.3027 26.7286 22.2768 26.7533 22.2503 26.7773C22.2238 26.8014 22.1967 26.8247 22.169 26.8475C22.1413 26.8702 22.1131 26.8922 22.0843 26.9135C22.0556 26.9348 22.0263 26.9554 21.9965 26.9753C21.9668 26.9952 21.9366 27.0144 21.9059 27.0328C21.8751 27.0512 21.844 27.0688 21.8124 27.0857C21.7809 27.1026 21.7489 27.1187 21.7165 27.134C21.6841 27.1493 21.6514 27.1638 21.6184 27.1775C21.5853 27.1912 21.5519 27.2041 21.5182 27.2161C21.4845 27.2282 21.4505 27.2394 21.4162 27.2498C21.382 27.2602 21.3475 27.2697 21.3128 27.2784C21.278 27.2872 21.2431 27.295 21.208 27.302C21.1729 27.309 21.1376 27.3151 21.1022 27.3203C21.0668 27.3256 21.0313 27.33 20.9957 27.3335C20.96 27.337 20.9244 27.3396 20.8886 27.3414C20.8528 27.3431 20.817 27.344 20.7812 27.344Z"   fill="#1191FF" ></path><path d="M3.28125 7.65625C3.28125 7.78155 3.28433 7.90679 3.29048 8.03192C3.29663 8.15705 3.30585 8.28197 3.31813 8.4067C3.33041 8.53138 3.34574 8.6557 3.3641 8.77967C3.38249 8.9036 3.40391 9.02702 3.42836 9.1499C3.45281 9.27278 3.48026 9.395 3.5107 9.51658C3.54114 9.63812 3.57455 9.75885 3.61091 9.87875C3.6473 9.99865 3.6866 10.1176 3.7288 10.2355C3.77102 10.3535 3.8161 10.4704 3.86405 10.5862C3.91199 10.7019 3.96275 10.8164 4.01632 10.9297C4.06989 11.043 4.12622 11.1549 4.1853 11.2654C4.24436 11.3759 4.3061 11.4848 4.37052 11.5923C4.43494 11.6998 4.50195 11.8057 4.57157 11.9098C4.64118 12.014 4.71331 12.1164 4.78796 12.2171C4.86258 12.3177 4.93965 12.4165 5.01915 12.5133C5.09863 12.6102 5.18044 12.705 5.26459 12.7979C5.34874 12.8907 5.43512 12.9814 5.52371 13.07C5.6123 13.1586 5.70303 13.245 5.79588 13.3292C5.88871 13.4133 5.98356 13.4951 6.08043 13.5746C6.17729 13.6541 6.27604 13.7312 6.37666 13.8058C6.47731 13.8804 6.57973 13.9526 6.68391 14.0222C6.78808 14.0918 6.8939 14.1588 7.0014 14.2232C7.1089 14.2877 7.21786 14.3494 7.32836 14.4084C7.43887 14.4675 7.55077 14.5238 7.66404 14.5774C7.77731 14.631 7.89181 14.6817 8.00758 14.7297C8.12335 14.7777 8.24021 14.8227 8.3582 14.8649C8.47615 14.9072 8.5951 14.9464 8.715 14.9828C8.8349 15.0192 8.95562 15.0526 9.07717 15.083C9.19874 15.1135 9.32097 15.1409 9.44385 15.1654C9.56672 15.1898 9.69014 15.2113 9.81408 15.2296C9.93805 15.248 10.0624 15.2633 10.187 15.2756C10.3118 15.2879 10.4367 15.2971 10.5618 15.3033C10.687 15.3094 10.8122 15.3125 10.9375 15.3125C11.0628 15.3125 11.188 15.3094 11.3132 15.3033C11.4383 15.2971 11.5632 15.2879 11.6879 15.2756C11.8126 15.2633 11.9369 15.248 12.0609 15.2296C12.1849 15.2113 12.3083 15.1898 12.4311 15.1654C12.554 15.1409 12.6763 15.1135 12.7978 15.083C12.9194 15.0526 13.0401 15.0192 13.16 14.9828C13.2799 14.9464 13.3988 14.9072 13.5168 14.8649C13.6348 14.8227 13.7516 14.7777 13.8674 14.7297C13.9832 14.6817 14.0977 14.631 14.211 14.5774C14.3242 14.5239 14.4361 14.4675 14.5466 14.4084C14.6571 14.3494 14.7661 14.2877 14.8736 14.2232C14.9811 14.1588 15.0869 14.0918 15.1911 14.0222C15.2953 13.9526 15.3977 13.8804 15.4983 13.8058C15.599 13.7312 15.6977 13.6541 15.7946 13.5746C15.8914 13.4951 15.9863 13.4133 16.0791 13.3292C16.172 13.245 16.2627 13.1586 16.3513 13.07C16.4399 12.9814 16.5262 12.8907 16.6104 12.7979C16.6946 12.705 16.7764 12.6102 16.8558 12.5133C16.9353 12.4165 17.0124 12.3177 17.087 12.2171C17.1617 12.1164 17.2338 12.014 17.3034 11.9098C17.3731 11.8056 17.44 11.6998 17.5045 11.5923C17.5689 11.4848 17.6306 11.3759 17.6897 11.2654C17.7488 11.1549 17.8051 11.043 17.8587 10.9297C17.9122 10.8164 17.963 10.7019 18.0109 10.5862C18.0589 10.4704 18.104 10.3535 18.1462 10.2355C18.1884 10.1176 18.2277 9.99865 18.2641 9.87875C18.3004 9.75885 18.3338 9.63812 18.3643 9.51655C18.3948 9.395 18.4222 9.27278 18.4466 9.1499C18.4711 9.02702 18.4925 8.9036 18.5109 8.77967C18.5292 8.6557 18.5446 8.53138 18.5569 8.4067C18.5691 8.28197 18.5784 8.15705 18.5845 8.03192C18.5907 7.90679 18.5937 7.78155 18.5937 7.65625C18.5937 7.53095 18.5907 7.40571 18.5845 7.28058C18.5784 7.15545 18.5691 7.03052 18.5569 6.9058C18.5446 6.78111 18.5292 6.6568 18.5109 6.53283C18.4925 6.40889 18.4711 6.28547 18.4466 6.1626C18.4222 6.03972 18.3948 5.91749 18.3643 5.79592C18.3338 5.67437 18.3004 5.55365 18.2641 5.43375C18.2277 5.31385 18.1884 5.1949 18.1462 5.07695C18.104 4.95896 18.0589 4.8421 18.0109 4.72633C17.963 4.61057 17.9122 4.49606 17.8587 4.38279C17.8051 4.26952 17.7488 4.15762 17.6897 4.04711C17.6306 3.93661 17.5689 3.82765 17.5045 3.72015C17.44 3.61266 17.3731 3.50683 17.3034 3.40266C17.2338 3.29848 17.1617 3.19606 17.087 3.09541C17.0124 2.99479 16.9353 2.89604 16.8558 2.79918C16.7764 2.70231 16.6946 2.60747 16.6104 2.51463C16.5262 2.42178 16.4399 2.33105 16.3513 2.24246C16.2627 2.15387 16.172 2.06749 16.0791 1.98334C15.9863 1.89919 15.8914 1.81738 15.7946 1.7379C15.6977 1.6584 15.599 1.58133 15.4983 1.50671C15.3977 1.43206 15.2953 1.35993 15.1911 1.29032C15.0869 1.2207 14.9811 1.15369 14.8736 1.08927C14.7661 1.02485 14.6571 0.963115 14.5466 0.904052C14.4361 0.844966 14.3242 0.788638 14.211 0.735068C14.0977 0.681498 13.9832 0.630742 13.8674 0.582798C13.7516 0.534854 13.6348 0.489771 13.5168 0.447549C13.3988 0.405347 13.2799 0.366054 13.16 0.329663C13.0401 0.293296 12.9194 0.259891 12.7978 0.229448C12.6763 0.199005 12.554 0.171559 12.4311 0.147109C12.3083 0.122666 12.1849 0.101253 12.0609 0.0828686C11.9369 0.0644824 11.8126 0.049148 11.6879 0.0368662C11.5632 0.0245844 11.4383 0.0153695 11.3132 0.00922161C11.188 0.00307396 11.0628 0 10.9375 0C10.8122 0 10.687 0.00307396 10.5618 0.00922161C10.4367 0.0153695 10.3118 0.0245844 10.187 0.0368662C10.0624 0.049148 9.93805 0.0644824 9.81408 0.0828686C9.69014 0.101253 9.56672 0.122666 9.44385 0.147109C9.32097 0.171559 9.19874 0.199005 9.07717 0.229448C8.95562 0.259891 8.8349 0.293296 8.715 0.329663C8.5951 0.366054 8.47615 0.405347 8.3582 0.447549C8.24021 0.489771 8.12335 0.534854 8.00758 0.582798C7.89181 0.630742 7.77731 0.681498 7.66404 0.735068C7.55077 0.788638 7.43887 0.844966 7.32836 0.904052C7.21786 0.963115 7.1089 1.02485 7.0014 1.08927C6.8939 1.15369 6.78808 1.2207 6.68391 1.29032C6.57973 1.35993 6.47731 1.43206 6.37666 1.50671C6.27604 1.58133 6.17729 1.6584 6.08043 1.7379C5.98356 1.81738 5.88871 1.89919 5.79588 1.98334C5.70303 2.06749 5.6123 2.15387 5.52371 2.24246C5.43512 2.33105 5.34874 2.42178 5.26459 2.51463C5.18044 2.60747 5.09863 2.70231 5.01915 2.79918C4.93965 2.89604 4.86258 2.99479 4.78796 3.09541C4.71331 3.19606 4.64118 3.29848 4.57157 3.40266C4.50195 3.50683 4.43494 3.61266 4.37052 3.72015C4.3061 3.82765 4.24436 3.93661 4.1853 4.04711C4.12622 4.15762 4.06989 4.26952 4.01632 4.38279C3.96275 4.49606 3.91199 4.61057 3.86405 4.72633C3.8161 4.8421 3.77102 4.95896 3.7288 5.07695C3.6866 5.1949 3.6473 5.31385 3.61091 5.43375C3.57455 5.55365 3.54114 5.67437 3.5107 5.79592C3.48026 5.91749 3.45281 6.03972 3.42836 6.1626C3.40391 6.28547 3.38249 6.40889 3.3641 6.53283C3.34574 6.6568 3.33041 6.78111 3.31813 6.9058C3.30585 7.03052 3.29663 7.15545 3.29048 7.28058C3.28433 7.40571 3.28125 7.53095 3.28125 7.65625Z"   fill="#1191FF" ></path><path d="M24.0625 22.9687C21.047 22.9687 18.5938 20.5155 18.5938 17.5C18.5938 14.4845 21.047 12.0312 24.0625 12.0312C27.078 12.0312 29.5312 14.4845 29.5312 17.5C29.5312 20.5155 27.078 22.9687 24.0625 22.9687ZM24.0625 14.2078C22.2534 14.2078 20.7812 15.68 20.7812 17.4891C20.7812 19.2981 22.2534 20.7703 24.0625 20.7703C25.8716 20.7703 27.3438 19.2981 27.3438 17.4891C27.3438 15.68 25.8716 14.2078 24.0625 14.2078Z"   fill="#47CBC4" ></path><path d="M25.6812 20.3607C26.2784 19.9422 26.7862 20.0316 27.2046 20.6287L30.3429 25.1074C30.7613 25.7045 30.672 26.2123 30.0748 26.6307C29.4777 27.0492 28.9699 26.9599 28.5515 26.3627L25.4132 21.8841C24.9947 21.2869 25.0841 20.7791 25.6812 20.3607Z"   fill="#1191FF" ></path></svg>