<svg xmlns="http://www.w3.org/2000/svg" width="1440" height="900" viewBox="0 0 1440 900"><defs><marker id="arrow" markerWidth="10" markerHeight="10" refX="8" refY="3" orient="auto"><path d="M0,0 L0,6 L9,3 z" fill="#2563EB"/></marker></defs><rect width="100%" height="100%" fill="#F8FAFC"/><text x="40" y="50" font-family="Arial Unicode MS, Arial" font-size="34" font-weight="700" fill="#0F172A">支付与点播能力工程结构示意</text><rect x="70" y="120" rx="18" ry="18" width="260" height="100" fill="#EFF6FF" stroke="#2563EB" stroke-width="3"/><text x="200.0" y="156.0" font-family="Arial Unicode MS, Arial" font-size="22" font-weight="600" text-anchor="middle" dominant-baseline="middle" fill="#0F172A"><tspan x="200.0" dy="0">用户侧</tspan><tspan x="200.0" dy="28">微信小程序 / H5</tspan></text><rect x="420" y="120" rx="18" ry="18" width="320" height="100" fill="#F0FDF4" stroke="#10B981" stroke-width="3"/><text x="580.0" y="156.0" font-family="Arial Unicode MS, Arial" font-size="22" font-weight="600" text-anchor="middle" dominant-baseline="middle" fill="#0F172A"><tspan x="580.0" dy="0">门店侧</tspan><tspan x="580.0" dy="28">点播终端 / 扫码枪 / 头显主机</tspan></text><rect x="850" y="120" rx="18" ry="18" width="280" height="100" fill="#FEF3C7" stroke="#F59E0B" stroke-width="3"/><text x="990.0" y="156.0" font-family="Arial Unicode MS, Arial" font-size="22" font-weight="600" text-anchor="middle" dominant-baseline="middle" fill="#0F172A"><tspan x="990.0" dy="0">后台运营侧</tspan><tspan x="990.0" dy="28">商家后台 / 总运营后台</tspan></text><rect x="90" y="380" rx="18" ry="18" width="230" height="100" fill="#FFFFFF" stroke="#2563EB" stroke-width="3"/><text x="205.0" y="416.0" font-family="Arial Unicode MS, Arial" font-size="22" font-weight="600" text-anchor="middle" dominant-baseline="middle" fill="#0F172A"><tspan x="205.0" dy="0">订单服务</tspan><tspan x="205.0" dy="28">创建订单 / 状态流转 / 结算</tspan></text><rect x="380" y="380" rx="18" ry="18" width="250" height="100" fill="#FFFFFF" stroke="#2563EB" stroke-width="3"/><text x="505.0" y="416.0" font-family="Arial Unicode MS, Arial" font-size="22" font-weight="600" text-anchor="middle" dominant-baseline="middle" fill="#0F172A"><tspan x="505.0" dy="0">支付服务</tspan><tspan x="505.0" dy="28">金额拆分 / 扣款 / 第三方支付</tspan></text><rect x="690" y="380" rx="18" ry="18" width="260" height="100" fill="#FFFFFF" stroke="#2563EB" stroke-width="3"/><text x="820.0" y="416.0" font-family="Arial Unicode MS, Arial" font-size="22" font-weight="600" text-anchor="middle" dominant-baseline="middle" fill="#0F172A"><tspan x="820.0" dy="0">会员资产服务</tspan><tspan x="820.0" dy="28">预存款 / 会员余额 / 游戏币</tspan></text><rect x="1020" y="380" rx="18" ry="18" width="250" height="100" fill="#FFFFFF" stroke="#2563EB" stroke-width="3"/><text x="1145.0" y="416.0" font-family="Arial Unicode MS, Arial" font-size="22" font-weight="600" text-anchor="middle" dominant-baseline="middle" fill="#0F172A"><tspan x="1145.0" dy="0">设备编排服务</tspan><tspan x="1145.0" dy="28">下发开局 / 结束回传 / 心跳</tspan></text><rect x="270" y="640" rx="18" ry="18" width="330" height="95" fill="#FEF2F2" stroke="#DC2626" stroke-width="3"/><text x="435.0" y="673.5" font-family="Arial Unicode MS, Arial" font-size="22" font-weight="600" text-anchor="middle" dominant-baseline="middle" fill="#0F172A"><tspan x="435.0" dy="0">异常订单中心</tspan><tspan x="435.0" dy="28">支付异常 / 开局异常 / 人工复核</tspan></text><rect x="760" y="640" rx="18" ry="18" width="320" height="95" fill="#FFF7ED" stroke="#EA580C" stroke-width="3"/><text x="920.0" y="673.5" font-family="Arial Unicode MS, Arial" font-size="22" font-weight="600" text-anchor="middle" dominant-baseline="middle" fill="#0F172A"><tspan x="920.0" dy="0">退款中心</tspan><tspan x="920.0" dy="28">原路退回 / 线下退款 / 凭证留存</tspan></text><line x1="200" y1="220" x2="200" y2="380" stroke="#2563EB" stroke-width="4" marker-end="url(#arrow)"/><line x1="580" y1="220" x2="505" y2="380" stroke="#2563EB" stroke-width="4" marker-end="url(#arrow)"/><line x1="990" y1="220" x2="1145" y2="380" stroke="#2563EB" stroke-width="4" marker-end="url(#arrow)"/><line x1="320" y1="430" x2="380" y2="430" stroke="#2563EB" stroke-width="4" marker-end="url(#arrow)"/><line x1="630" y1="430" x2="690" y2="430" stroke="#2563EB" stroke-width="4" marker-end="url(#arrow)"/><line x1="950" y1="430" x2="1020" y2="430" stroke="#2563EB" stroke-width="4" marker-end="url(#arrow)"/><line x1="505" y1="480" x2="430" y2="640" stroke="#2563EB" stroke-width="4" marker-end="url(#arrow)"/><rect x="375.5" y="528.0" width="184" height="28" rx="8" fill="#DBEAFE" stroke="#93C5FD"/><text x="467.5" y="546.0" font-family="Arial Unicode MS, Arial" font-size="16" text-anchor="middle" fill="#1E3A8A">异常回流</text><line x1="1145" y1="480" x2="920" y2="640" stroke="#2563EB" stroke-width="4" marker-end="url(#arrow)"/><rect x="940.5" y="528.0" width="184" height="28" rx="8" fill="#DBEAFE" stroke="#93C5FD"/><text x="1032.5" y="546.0" font-family="Arial Unicode MS, Arial" font-size="16" text-anchor="middle" fill="#1E3A8A">退款 / 补偿</text><text x="70" y="790" font-family="Arial Unicode MS, Arial" font-size="20" fill="#334155">设计原则：支付、订单、会员资产、设备控制四个能力必须解耦，但要通过订单号贯穿全链路，保证支付成功、开局、结束、异常、退款可追踪。</text></svg>