<svg xmlns="http://www.w3.org/2000/svg" xmlns:xlink="http://www.w3.org/1999/xlink" width="31.123779296875" height="35" viewBox="0 0 31.123779296875 35" fill="none"><path d="M30.7712 32.3615L27.0395 28.5986C29.4778 24.867 28.4306 19.8655 24.699 17.4272C20.9674 14.989 15.9658 16.0362 13.5276 19.7678C11.0893 23.4994 12.1365 28.5009 15.8682 30.9392C17.185 31.7988 18.7245 32.256 20.2992 32.2521C21.8856 32.2482 23.4369 31.7754 24.7537 30.8923L28.4892 34.6513C28.9542 35.1162 29.7122 35.1162 30.1772 34.6513L30.7751 34.0495C31.2401 33.5767 31.2401 32.8226 30.7751 32.3498L30.7712 32.3615ZM24.6599 26.2112C24.0972 27.399 23.0813 28.3095 21.8387 28.7393C21.3425 28.9347 20.815 29.0284 20.2836 29.0089C17.564 29.048 15.3328 26.8754 15.2938 24.1559C15.2547 21.4363 17.4311 19.2051 20.1507 19.166C22.8703 19.127 25.1015 21.3034 25.1366 24.0191C25.1483 24.781 24.9803 25.5313 24.6521 26.2151L24.6599 26.2112ZM9.74127 25.6407L5.78693 25.6407C5.10313 25.6133 4.56781 25.035 4.59516 24.3512C4.62251 23.7026 5.1383 23.1868 5.78693 23.1595L9.67875 23.1595C9.77644 22.0185 10.0617 20.9009 10.5149 19.8538L5.79084 19.8538C5.10704 19.8264 4.57172 19.2481 4.59907 18.5643C4.62642 17.9157 5.1422 17.3999 5.79084 17.3725L12.0154 17.3725C13.2306 15.8682 14.8327 14.7233 16.6496 14.0668L5.79084 14.0668C5.10704 14.0668 4.54827 13.512 4.55218 12.8242C4.55218 12.1404 5.10704 11.5856 5.79084 11.5856L24.7615 11.5856C25.4453 11.5856 26.0041 12.1404 26.0002 12.8282C26.0002 13.512 25.4453 14.0668 24.7615 14.0668L23.8315 14.0668C27.188 15.2898 29.7122 18.1149 30.5484 21.5926L30.5484 3.76287C30.5523 1.69583 28.88 0.0117223 26.8129 0L3.73161 0C1.66457 0.0156297 0 1.69193 0 3.75897L0 30.6031C0 32.6702 1.66848 34.3504 3.73552 34.3621L17.2709 34.3621C13.2736 33.1782 10.3313 29.7709 9.74127 25.6407ZM5.78693 5.79865L24.7615 5.79865C25.4453 5.82601 25.9806 6.40431 25.9533 7.08811C25.9259 7.73675 25.4101 8.25253 24.7615 8.27989L5.78693 8.27989C5.10313 8.25253 4.56781 7.67423 4.59516 6.99043C4.62251 6.34179 5.1422 5.82601 5.78693 5.79865Z"   fill="#75A9D9" ></path></svg>