<svg xmlns="http://www.w3.org/2000/svg" xmlns:xlink="http://www.w3.org/1999/xlink" width="40.35205078125" height="41.3515625" viewBox="0 0 40.35205078125 41.3515625" fill="none"><path     fill="#75A9D9"  d="M18.5 36C8.83501 36 1 28.165 1 18.5C1 8.83501 8.83501 1 18.5 1C28.165 1 36 8.83501 36 18.5C36 28.165 28.165 36 18.5 36ZM16.297 15.2188L13.0312 15.2188C12.4271 15.2188 11.9375 15.7084 11.9375 16.3125C11.9375 16.9166 12.4271 17.4062 13.0312 17.4062L17.4062 17.4062L17.4062 20.6875L13.0313 20.6875C12.4271 20.6875 11.9375 21.1772 11.9375 21.7812C11.9375 22.3853 12.4271 22.875 13.0312 22.875L17.4062 22.875L17.4062 27.25C17.4062 27.8541 17.896 28.3438 18.5 28.3438C19.104 28.3438 19.5938 27.8541 19.5938 27.25L19.5938 22.8751L23.9687 22.8751C24.5728 22.8751 25.0625 22.3853 25.0625 21.7812C25.0625 21.1772 24.5728 20.6875 23.9688 20.6875L19.5938 20.6875L19.5938 17.4062L23.9687 17.4062C24.5728 17.4062 25.0625 16.9166 25.0625 16.3125C25.0625 15.7085 24.5728 15.2188 23.9688 15.2188L20.7808 15.2188L23.9293 12.0702C24.3565 11.6431 24.3565 10.9505 23.9293 10.5234C23.5022 10.0963 22.8097 10.0963 22.3825 10.5234L18.5389 14.3671L14.6952 10.5234C14.268 10.0963 13.5755 10.0963 13.1484 10.5234C12.7213 10.9505 12.7213 11.6431 13.1484 12.0702L16.297 15.2188Z"></path><path fill-rule="evenodd"  fill="rgba(210, 234, 255, 1)"  d="M0 18.5C0 28.7173 8.28274 37 18.5 37C28.7173 37 37 28.7173 37 18.5C37 8.28274 28.7173 0 18.5 0C8.28274 0 0 8.28274 0 18.5ZM1 18.5C1 28.165 8.83501 36 18.5 36C28.165 36 36 28.165 36 18.5C36 8.83501 28.165 1 18.5 1C8.83501 1 1 8.83501 1 18.5ZM15.297 14.2188L16.297 15.2188L13.0312 15.2188C12.4271 15.2188 11.9375 15.7084 11.9375 16.3125C11.9375 16.9166 12.4271 17.4062 13.0312 17.4062L17.4062 17.4062L17.4062 20.6875L13.0313 20.6875C12.4271 20.6875 11.9375 21.1772 11.9375 21.7812C11.9375 22.3853 12.4271 22.875 13.0312 22.875L17.4062 22.875L17.4062 27.25C17.4062 27.8541 17.896 28.3438 18.5 28.3438C19.104 28.3438 19.5938 27.8541 19.5938 27.25L19.5938 22.8751L23.9687 22.8751C24.5728 22.8751 25.0625 22.3853 25.0625 21.7812C25.0625 21.1772 24.5728 20.6875 23.9688 20.6875L19.5938 20.6875L19.5938 17.4062L23.9687 17.4062C24.5728 17.4062 25.0625 16.9166 25.0625 16.3125C25.0625 15.7085 24.5728 15.2188 23.9688 15.2188L20.7808 15.2188L21.7808 14.2188L23.9293 12.0702C24.3565 11.6431 24.3565 10.9505 23.9293 10.5234C23.5022 10.0963 22.8097 10.0963 22.3825 10.5234L19.246 13.66L18.5389 14.3671L17.8318 13.66L14.6952 10.5234C14.268 10.0963 13.5755 10.0963 13.1484 10.5234C12.7213 10.9505 12.7213 11.6431 13.1484 12.0702L15.297 14.2188ZM13.0312 16.2188L23.9688 16.2188C24.0205 16.2188 24.0625 16.2607 24.0625 16.3125C24.0625 16.3643 24.0205 16.4062 23.9687 16.4062L18.5938 16.4062L18.5938 21.6875L23.9688 21.6875C24.0205 21.6875 24.0625 21.7295 24.0625 21.7812C24.0625 21.8331 24.0205 21.8751 23.9687 21.8751L18.5938 21.8751L18.5938 27.25C18.5938 27.3018 18.5518 27.3438 18.5 27.3438Q18.4612 27.3438 18.4337 27.3163Q18.4062 27.2888 18.4062 27.25L18.4062 21.875L13.0312 21.875C12.9794 21.875 12.9375 21.833 12.9375 21.7812C12.9375 21.7295 12.9795 21.6875 13.0313 21.6875L18.4062 21.6875L18.4062 16.4062L13.0312 16.4062C12.9794 16.4062 12.9375 16.3643 12.9375 16.3125C12.9375 16.2607 12.9795 16.2188 13.0312 16.2188ZM18.5389 16.0465L23.2222 11.3631C23.2589 11.3265 23.2589 11.2671 23.2223 11.2306Q23.1948 11.2031 23.1559 11.2031Q23.1171 11.2031 23.0896 11.2305L18.5389 15.7813L13.9881 11.2305Q13.9606 11.2031 13.9218 11.2031Q13.8829 11.2031 13.8555 11.2305C13.8189 11.2671 13.8189 11.3265 13.8555 11.3631L18.5389 16.0465Z"></path><path     fill="#75A9D9"  d="M32.168 26C33.16 26 34.0933 26.1893 34.968 26.568C35.8427 26.9467 36.6027 27.4587 37.248 28.104C37.8933 28.7493 38.4053 29.5067 38.784 30.376C39.1627 31.2453 39.352 32.176 39.352 33.168C39.352 34.16 39.1627 35.0933 38.784 35.968C38.4053 36.8427 37.8933 37.6027 37.248 38.248C36.6027 38.8933 35.8427 39.4053 34.968 39.784C34.0933 40.1627 33.16 40.352 32.168 40.352C31.176 40.352 30.2453 40.1627 29.376 39.784C28.5067 39.4053 27.7493 38.8933 27.104 38.248C26.4587 37.6027 25.9467 36.8427 25.568 35.968C25.1893 35.0933 25 34.16 25 33.168C25 32.176 25.1893 31.2453 25.568 30.376C25.9467 29.5067 26.4587 28.7493 27.104 28.104C27.7493 27.4587 28.5067 26.9467 29.376 26.568C30.2453 26.1893 31.176 26 32.168 26ZM35.736 34.144C36.056 34.144 36.344 34.0613 36.6 33.896C36.856 33.7307 36.984 33.4827 36.984 33.152C36.984 32.832 36.856 32.5947 36.6 32.44C36.344 32.2853 36.056 32.208 35.736 32.208L28.664 32.208C28.344 32.208 28.0507 32.2853 27.784 32.44C27.5173 32.5947 27.384 32.832 27.384 33.152C27.384 33.4827 27.5173 33.7307 27.784 33.896C28.0507 34.0613 28.344 34.144 28.664 34.144L35.736 34.144Z"></path><path fill-rule="evenodd"  fill="rgba(210, 234, 255, 1)"  d="M35.3653 25.6503Q33.8632 25 32.168 25Q30.4717 25 28.9767 25.6512Q27.4989 26.2949 26.3969 27.3969Q25.2949 28.4989 24.6512 29.9767Q24 31.4717 24 33.168Q24 34.8632 24.6503 36.3653Q25.2941 37.8523 26.3969 38.9551Q27.4989 40.0571 28.9767 40.7008Q30.4716 41.352 32.168 41.352Q33.8632 41.352 35.3653 40.7017Q36.8523 40.0579 37.9551 38.9551Q39.0579 37.8523 39.7017 36.3653Q40.352 34.8632 40.352 33.168Q40.352 31.4716 39.7008 29.9767Q39.0571 28.4989 37.9551 27.3969Q36.8523 26.2941 35.3653 25.6503ZM34.968 26.568C34.0933 26.1893 33.16 26 32.168 26C31.176 26 30.2453 26.1893 29.376 26.568C28.5067 26.9467 27.7493 27.4587 27.104 28.104C26.4587 28.7493 25.9467 29.5067 25.568 30.376C25.1893 31.2453 25 32.176 25 33.168C25 34.16 25.1893 35.0933 25.568 35.968Q26.136 37.28 27.104 38.248C27.7493 38.8933 28.5067 39.4053 29.376 39.784C30.2453 40.1627 31.176 40.352 32.168 40.352C33.16 40.352 34.0933 40.1627 34.968 39.784Q36.28 39.216 37.248 38.248C37.8933 37.6027 38.4053 36.8427 38.784 35.968C39.1627 35.0933 39.352 34.16 39.352 33.168C39.352 32.176 39.1627 31.2453 38.784 30.376C38.4053 29.5067 37.8933 28.7493 37.248 28.104C36.6027 27.4587 35.8427 26.9467 34.968 26.568ZM36.6 33.896C36.344 34.0613 36.056 34.144 35.736 34.144L28.664 34.144C28.344 34.144 28.0507 34.0613 27.784 33.896C27.5173 33.7307 27.384 33.4827 27.384 33.152C27.384 32.832 27.5173 32.5947 27.784 32.44C28.0507 32.2853 28.344 32.208 28.664 32.208L35.736 32.208C36.056 32.208 36.344 32.2853 36.6 32.44C36.856 32.5947 36.984 32.832 36.984 33.152Q36.984 33.648 36.6 33.896Z"></path></svg>