<svg xmlns="http://www.w3.org/2000/svg" xmlns:xlink="http://www.w3.org/1999/xlink" width="30.2222900390625" height="37" viewBox="0 0 30.2222900390625 37" fill="none"><path d="M14.9348 0C15.6487 0 16.3565 0.0800067 17.0581 0.24002C17.7597 0.400033 18.4182 0.615435 19.0336 0.886225C19.6491 1.15702 20.1968 1.46474 20.6769 1.80938C21.1569 2.15402 21.5323 2.49867 21.8031 2.84331C22.4431 3.63106 22.9109 4.49882 23.2063 5.44662C23.5017 6.39438 23.7109 7.29908 23.834 8.16066C23.9571 9.14539 24.0187 10.1424 24.0187 11.1517C24.191 11.2748 24.3264 11.4348 24.4248 11.6317C24.5233 11.804 24.6033 12.0256 24.6649 12.2964C24.7264 12.5672 24.7326 12.8995 24.6833 13.2934C24.6341 13.8104 24.5295 14.2227 24.3695 14.5304C24.2094 14.8381 24.031 15.0782 23.834 15.2505C23.6125 15.4474 23.3786 15.5828 23.1324 15.6567C23.0093 16.0752 22.8863 16.4691 22.7632 16.8383C22.6401 17.1583 22.4986 17.4722 22.3385 17.7799C22.1785 18.0876 22 18.3277 21.8031 18.5C21.3354 18.8692 20.9538 19.1831 20.6584 19.4416C20.363 19.7001 20.166 20.137 20.0676 20.7525C19.9937 21.1217 19.9691 21.4972 19.9937 21.8787C20.0183 22.2603 20.123 22.6419 20.3076 23.0235C20.4922 23.405 20.7753 23.7681 21.1569 24.1128C21.5385 24.4574 22.0739 24.7651 22.7632 25.0359C23.3786 25.2821 24.0494 25.5036 24.7756 25.7006C25.5019 25.8975 26.2096 26.1252 26.8989 26.3837C27.5882 26.6422 28.1975 26.9622 28.7267 27.3438C29.256 27.7254 29.6314 28.2485 29.853 28.9132C29.9761 29.3071 30.0684 29.7932 30.13 30.3717C30.1915 30.9503 30.2223 31.5349 30.2223 32.1257C30.2223 32.7165 30.1792 33.2705 30.093 33.7874C30.0068 34.3044 29.8776 34.6982 29.7053 34.969C29.5822 35.1413 29.2314 35.3137 28.6529 35.486C28.0744 35.6583 27.3605 35.8245 26.5112 35.9845C25.6619 36.1447 24.7141 36.286 23.6679 36.4092C22.6216 36.5324 21.5692 36.6368 20.5107 36.7232C19.4521 36.8092 18.4367 36.8768 17.4643 36.9263C16.4919 36.9754 15.6487 37 14.9348 37C14.2209 37 13.3901 36.9754 12.4423 36.9263C11.4945 36.8768 10.516 36.8092 9.50668 36.7232C8.49739 36.6368 7.49423 36.5386 6.49722 36.4276C5.50021 36.3167 4.59551 36.2 3.78314 36.0768C2.97076 35.9537 2.28148 35.8307 1.7153 35.7076C1.1491 35.5845 0.792143 35.4614 0.644432 35.3383C0.398249 35.1413 0.207454 34.5382 0.0720521 33.5289C-0.0633253 32.5196 -0.00793382 31.2149 0.238227 29.6148C0.36132 28.7039 0.72443 28.0084 1.32756 27.5284C1.93069 27.0484 2.63228 26.6668 3.43233 26.3837C4.23242 26.1006 5.06325 25.8483 5.92484 25.6268C6.78646 25.4052 7.54962 25.0852 8.21429 24.6667C8.73124 24.3466 9.12512 24.0389 9.3959 23.7435C9.66672 23.4481 9.86364 23.1527 9.98674 22.8573C10.1098 22.5619 10.1713 22.2542 10.1713 21.9341C10.1713 21.6141 10.159 21.2571 10.1344 20.8633C10.0852 20.2971 9.88828 19.8478 9.54361 19.5155C9.19898 19.1831 8.81742 18.8446 8.39892 18.5C8.20197 18.3277 8.02965 18.0876 7.88194 17.7799C7.73423 17.4722 7.59884 17.1583 7.47577 16.8383C7.35266 16.4691 7.2296 16.0752 7.10649 15.6567C6.93417 15.6075 6.76186 15.5213 6.58954 15.3982C6.44183 15.2751 6.2818 15.1028 6.10948 14.8812C5.93716 14.6597 5.78949 14.3397 5.66638 13.9212C5.51867 13.5026 5.46328 13.1211 5.50021 12.7764C5.53714 12.4318 5.60485 12.1364 5.70331 11.8902C5.80177 11.6194 5.9618 11.3609 6.18333 11.1148C6.15873 10.1793 6.20794 9.24385 6.33105 8.30837C6.42951 7.52064 6.608 6.67134 6.86646 5.76047C7.12495 4.84964 7.5127 4.03726 8.02965 3.32335C8.49739 2.63407 9.02048 2.07402 9.599 1.64321C10.1775 1.21241 10.7683 0.873922 11.3715 0.627746C11.9746 0.381573 12.5777 0.215405 13.1808 0.129244C13.784 0.0430829 14.3686 2.415e-06 14.9348 2.42074e-06L14.9348 0Z"   fill="#75A9D9" ></path></svg>