<svg xmlns="http://www.w3.org/2000/svg" xmlns:xlink="http://www.w3.org/1999/xlink" width="27.260498046875" height="35" viewBox="0 0 27.260498046875 35" fill="none"><path d="M20.4559 6.08612C21.6286 6.08612 22.5824 5.17926 22.5824 4.05741L22.5824 2.02871C22.5824 0.906859 21.6286 0 20.4559 0C19.2794 0 18.3295 0.906859 18.3295 2.02871L18.3295 4.05741C18.3295 5.17926 19.2833 6.08612 20.4559 6.08612ZM6.77877 6.08612C7.95143 6.08612 8.9052 5.17926 8.9052 4.05741L8.9052 2.02871C8.9052 0.906859 7.95143 0 6.77877 0C5.6022 0 4.65234 0.906859 4.65234 2.02871L4.65234 4.05741C4.65234 5.17926 5.6022 6.08612 6.77877 6.08612Z"   fill="#75A9D9" ></path><path d="M23.977 3.21301L23.977 4.45994C23.977 6.03131 22.39 7.30951 20.4356 7.30951C18.4772 7.30951 16.8902 6.03522 16.8902 4.45994L16.8902 3.03711L10.2921 3.03711L10.2921 4.45994C10.2921 6.03131 8.70506 7.30951 6.75063 7.30951C4.79228 7.30951 3.20528 6.03522 3.20528 4.45994L3.20528 3.23646C1.34856 3.81107 0 5.54661 0 7.60267L0 30.4344C0 32.9556 2.03261 35 4.54211 35L22.7184 35C25.2279 35 27.2605 32.9556 27.2605 30.4344L27.2605 7.60267C27.2644 5.51924 25.8767 3.76025 23.977 3.21301ZM22.2923 29.3556L4.976 29.3556C4.25676 29.3556 3.67825 28.7536 3.67825 28.007C3.67825 27.2643 4.26067 26.6584 4.976 26.6584L22.2962 26.6584C23.0155 26.6584 23.594 27.2604 23.594 28.007C23.594 28.7536 23.0115 29.3556 22.2923 29.3556ZM22.2923 22.2023L4.976 22.2023C4.25676 22.2023 3.67825 21.6004 3.67825 20.8538C3.67825 20.1111 4.26067 19.5052 4.976 19.5052L22.2962 19.5052C23.0155 19.5052 23.594 20.1072 23.594 20.8538C23.594 21.6004 23.0115 22.2023 22.2923 22.2023ZM22.2923 15.0491L4.976 15.0491C4.25676 15.0491 3.67825 14.4471 3.67825 13.7005C3.67825 12.9578 4.26067 12.352 4.976 12.352L22.2962 12.352C23.0155 12.352 23.594 12.9539 23.594 13.7005C23.594 14.4471 23.0115 15.0491 22.2923 15.0491Z"   fill="#75A9D9" ></path></svg>