<svg xmlns="http://www.w3.org/2000/svg" xmlns:xlink="http://www.w3.org/1999/xlink" width="32.80322265625" height="34.314453125" viewBox="0 0 32.80322265625 34.314453125" fill="none"><path d="M12.0382 8.61143L20.3141 8.61143C22.875 8.61143 24.8285 3.05787 24.8285 3.05787C24.8285 1.39468 24.662 0.136368 21.8183 0.0477029C18.9755 -0.0418356 18.2945 2.03555 16.2514 2.03555C14.1574 2.03555 13.1099 0.402435 10.5331 0.0477029C7.95717 -0.30867 7.5238 1.39468 7.5238 3.05787C7.5238 3.0579 9.47645 8.61143 12.0382 8.61143ZM20.7659 10.3282L12.0382 10.3282C2.37349 10.3282 0 29.3153 0 29.3153C0 31.8093 2.02131 34.314 4.51445 34.314L28.2888 34.314C30.782 34.314 32.8032 31.8093 32.8032 29.3153C32.8032 29.3154 30.4289 10.3282 20.7659 10.3282ZM21.7565 24.9205C22.3388 24.9205 22.8106 25.3932 22.8106 25.9755C22.8106 26.5578 22.3388 27.0305 21.7565 27.0305L17.4771 27.0305L17.4771 29.7981C17.4771 30.3803 17.0052 30.8531 16.4238 30.8531C15.8415 30.8531 15.3697 30.3803 15.3697 29.7981L15.3697 27.0305L11.0627 27.0305C10.4804 27.0305 10.0086 26.5578 10.0086 25.9755C10.0086 25.3932 10.4804 24.9205 11.0627 24.9205L15.3697 24.9205L15.3697 23.582L11.0627 23.582C10.4804 23.582 10.0086 23.1101 10.0086 22.5278C10.0086 21.9455 10.4804 21.472 11.0627 21.472L13.9742 21.472L10.9933 16.1744C10.7021 15.6691 10.8753 15.0249 11.379 14.7338C11.8834 14.4426 12.5276 14.615 12.8188 15.1186L16.4079 21.472L16.5895 21.472L20.1786 15.1186C20.4697 14.615 21.1139 14.4426 21.6176 14.7338C22.1221 15.0249 22.2953 15.6691 22.0041 16.1744L19.0232 21.472L21.7565 21.472C22.3388 21.472 22.8106 21.9455 22.8106 22.5278C22.8106 23.11 22.3388 23.582 21.7565 23.582L17.4771 23.582L17.4771 24.9205L21.7565 24.9205Z"   fill="#75A9D9" ></path></svg>