<?xml version="1.0" encoding="UTF-8"?>
<svg xmlns="http://www.w3.org/2000/svg" viewBox="0 0 780 320" width="780" height="320">
  <rect width="780" height="320" fill="#0f172a" rx="8"/>
  <defs>
    <marker id="a" viewBox="0 0 10 10" refX="8" refY="5" markerWidth="6" markerHeight="6" orient="auto">
      <path d="M0,0 L10,5 L0,10" fill="#475569"/>
    </marker>
  </defs>
  <style>
    .lbl{fill:#e2e8f0;font-size:11px;font-weight:600}
    .sub{fill:#94a3b8;font-size:9px}
    .ar-lbl{fill:#64748b;font-size:8px}
    .muted{fill:#94a3b8;font-size:9px}
    .accent{fill:#a78bfa;font-size:9px}
    .green{fill:#34d399;font-size:9px}
    .title{fill:#e2e8f0;font-size:13px;font-weight:600}
    .box{fill:#1e293b;stroke:#334155;stroke-width:1;rx:6}
    .box-a{fill:#1e1b4b;stroke:#6366f1;stroke-width:1.5;rx:6}
    .box-g{fill:#064e3b;stroke:#34d399;stroke-width:1.5;rx:6}
    .box-r{fill:#450a0a;stroke:#f87171;stroke-width:1.5;rx:6}
    .box-y{fill:#451a03;stroke:#fb923c;stroke-width:1.5;rx:6}
    .arrow{stroke:#475569;stroke-width:1.5;fill:none;marker-end:url(#a)}
    .arrow-d{stroke:#475569;stroke-width:1;fill:none;stroke-dasharray:4,3;marker-end:url(#a)}
    </style>
  <text x="30" y="25" class="title">门店部署架构 (1:N PC→VR)</text>
  <rect x="50" y="45" width="200" height="55" class="box-a"/>
<text x="150.0" y="76.5" text-anchor="middle" class="lbl">PC终端 #1 触摸屏</text>
<text x="150.0" y="90.5" text-anchor="middle" class="sub">选游戏 → 支付 → 分配</text>
  <rect x="300" y="45" width="180" height="55" class="box-g"/>
<text x="390.0" y="76.5" text-anchor="middle" class="lbl">后端调度服务</text>
<text x="390.0" y="90.5" text-anchor="middle" class="sub">MQTT下发指令</text>
  <line x1="250" y1="72" x2="300" y2="72" class="arrow"/>
  <line x1="390" y1="100" x2="390" y2="145" class="arrow"/>
  <text x="400" y="130" class="ar-lbl">MQTT launch_game</text>
  <rect x="60" y="155" width="100" height="65" class="box-g"/>
<text x="110.0" y="191.5" text-anchor="middle" class="lbl">#01 空闲</text>
<text x="110.0" y="205.5" text-anchor="middle" class="sub">Pico 4</text>
  <rect x="180" y="155" width="100" height="65" class="box-g"/>
<text x="230.0" y="191.5" text-anchor="middle" class="lbl">#02 空闲</text>
<text x="230.0" y="205.5" text-anchor="middle" class="sub">Pico 4</text>
  <rect x="300" y="155" width="100" height="65" class="box-y"/>
<text x="350.0" y="191.5" text-anchor="middle" class="lbl">#03 运行中</text>
<text x="350.0" y="205.5" text-anchor="middle" class="sub">过山车VR</text>
  <rect x="420" y="155" width="100" height="65" class="box-g"/>
<text x="470.0" y="191.5" text-anchor="middle" class="lbl">#04 空闲</text>
<text x="470.0" y="205.5" text-anchor="middle" class="sub">Quest 3</text>
  <rect x="540" y="155" width="100" height="65" class="box"/>
<text x="590.0" y="191.5" text-anchor="middle" class="lbl">#05 充电</text>
<text x="590.0" y="205.5" text-anchor="middle" class="sub">Pico 4</text>
  <rect x="660" y="155" width="100" height="65" class="box-r"/>
<text x="710.0" y="191.5" text-anchor="middle" class="lbl">#06 离线</text>
<text x="710.0" y="205.5" text-anchor="middle" class="sub">需检修</text>
  <text x="390" y="260" text-anchor="middle" class="muted">建议 1:4~1:8 比例 | 后端统一调度空闲设备 | 排除低电量/过热/维修中</text>
  <text x="390" y="280" text-anchor="middle" class="muted">游戏包由 VR Launcher 后台自动下载 (MinIO/OSS → 本地存储)</text>
</svg>