<svg xmlns="http://www.w3.org/2000/svg" viewBox="0 0 960 620" width="960" height="620">
  <defs>
    <marker id="arrowA" markerWidth="8" markerHeight="6" refX="7" refY="3" orient="auto">
      <polygon points="0 0, 8 3, 0 6" fill="#3b82f6"/>
    </marker>
    <marker id="arrowB" markerWidth="8" markerHeight="6" refX="7" refY="3" orient="auto">
      <polygon points="0 0, 8 3, 0 6" fill="#3b82f6"/>
    </marker>
    <marker id="arrowC" markerWidth="8" markerHeight="6" refX="7" refY="3" orient="auto">
      <polygon points="0 0, 8 3, 0 6" fill="#3b82f6"/>
    </marker>
    <marker id="arrowE" markerWidth="8" markerHeight="6" refX="7" refY="3" orient="auto">
      <polygon points="0 0, 8 3, 0 6" fill="#3b82f6"/>
    </marker>
    <marker id="arrowF" markerWidth="8" markerHeight="6" refX="7" refY="3" orient="auto">
      <polygon points="0 0, 8 3, 0 6" fill="#9ca3af"/>
    </marker>
    <marker id="arrowG" markerWidth="8" markerHeight="6" refX="7" refY="3" orient="auto">
      <polygon points="0 0, 8 3, 0 6" fill="#9ca3af"/>
    </marker>
    <marker id="arrowH" markerWidth="8" markerHeight="6" refX="7" refY="3" orient="auto">
      <polygon points="0 0, 8 3, 0 6" fill="#d1d5db"/>
    </marker>
    <style>
    text { font-family: -apple-system, BlinkMacSystemFont, 'Segoe UI', 'Helvetica Neue', Arial, 'PingFang SC', 'Microsoft YaHei', 'Microsoft JhengHei', 'SimHei', sans-serif; }
    .title { font-size: 18px; font-weight: 700; fill: #111827; }
    .subtitle { font-size: 13px; font-weight: 500; fill: #9ca3af; }
    .section { font-size: 13px; font-weight: 700; fill: #9ca3af; letter-spacing: 1.4px; }
    .section-sub { font-size: 12px; font-weight: 500; fill: #d1d5db; }
    .node-title { font-size: 18px; font-weight: 700; fill: #111827; }
    .node-sub { font-size: 12px; font-weight: 500; fill: #374151; }
    .node-type { font-size: 11px; font-weight: 700; fill: #9ca3af; letter-spacing: 0.08em; }
    .arrow-label { font-size: 12px; font-weight: 600; fill: #6b7280; }
    .legend { font-size: 12px; font-weight: 500; fill: #6b7280; }
    .footnote { font-size: 12px; font-weight: 500; fill: #9ca3af; }
    </style>
  </defs>
  <rect width="960.0" height="620.0" fill="#ffffff"/>
  <text x="48.0" y="48" text-anchor="start" class="title">C端微信小程序 — 15个功能页面</text>
  <line x1="48" y1="82" x2="912.0" y2="82" stroke="#e5e7eb" stroke-width="1"/>
  <rect x="30.0" y="90.0" width="280.0" height="190.0" rx="4.0" fill="none" stroke="#e5e7eb" stroke-width="1.4"/>
  <text x="48.0" y="114.0" class="section">核心浏览</text>
  <rect x="340.0" y="90.0" width="280.0" height="190.0" rx="4.0" fill="none" stroke="#e5e7eb" stroke-width="1.4"/>
  <text x="358.0" y="114.0" class="section">交易与支付</text>
  <rect x="650.0" y="90.0" width="280.0" height="190.0" rx="4.0" fill="none" stroke="#e5e7eb" stroke-width="1.4"/>
  <text x="668.0" y="114.0" class="section">社交与互动</text>
  <rect x="30.0" y="310.0" width="280.0" height="150.0" rx="4.0" fill="none" stroke="#e5e7eb" stroke-width="1.4"/>
  <text x="48.0" y="334.0" class="section">LBS与排队</text>
  <rect x="340.0" y="310.0" width="280.0" height="150.0" rx="4.0" fill="none" stroke="#e5e7eb" stroke-width="1.4"/>
  <text x="358.0" y="334.0" class="section">个人与系统</text>
  <rect x="50.0" y="140.0" width="110.0" height="40.0" rx="6.0" fill="#f9fafb" stroke="#e5e7eb" stroke-width="1.8"/>
  <text x="105.0" y="160.0" text-anchor="middle" class="node-title">🏠 首页</text>
  <rect x="175.0" y="140.0" width="115.0" height="40.0" rx="6.0" fill="#f9fafb" stroke="#e5e7eb" stroke-width="1.8"/>
  <text x="232.5" y="160.0" text-anchor="middle" class="node-title">🎮 游戏分类</text>
  <rect x="105.0" y="200.0" width="120.0" height="40.0" rx="6.0" fill="#f9fafb" stroke="#e5e7eb" stroke-width="1.8"/>
  <text x="165.0" y="220.0" text-anchor="middle" class="node-title">📄 游戏详情</text>
  <rect x="360.0" y="140.0" width="110.0" height="40.0" rx="6.0" fill="#f9fafb" stroke="#e5e7eb" stroke-width="1.8"/>
  <text x="415.0" y="160.0" text-anchor="middle" class="node-title">💳 会员充值</text>
  <rect x="485.0" y="140.0" width="110.0" height="40.0" rx="6.0" fill="#f9fafb" stroke="#e5e7eb" stroke-width="1.8"/>
  <text x="540.0" y="160.0" text-anchor="middle" class="node-title">🎫 优惠券</text>
  <rect x="360.0" y="200.0" width="110.0" height="40.0" rx="6.0" fill="#f9fafb" stroke="#e5e7eb" stroke-width="1.8"/>
  <text x="415.0" y="220.0" text-anchor="middle" class="node-title">📋 订单记录</text>
  <rect x="485.0" y="200.0" width="110.0" height="40.0" rx="6.0" fill="#f9fafb" stroke="#e5e7eb" stroke-width="1.8"/>
  <text x="540.0" y="220.0" text-anchor="middle" class="node-title">📱 扫码</text>
  <rect x="670.0" y="140.0" width="110.0" height="40.0" rx="6.0" fill="#f9fafb" stroke="#e5e7eb" stroke-width="1.8"/>
  <text x="725.0" y="160.0" text-anchor="middle" class="node-title">⭐ 评价反馈</text>
  <rect x="795.0" y="140.0" width="115.0" height="40.0" rx="6.0" fill="#f9fafb" stroke="#e5e7eb" stroke-width="1.8"/>
  <text x="852.5" y="160.0" text-anchor="middle" class="node-title">👥 邀请好友</text>
  <rect x="670.0" y="200.0" width="115.0" height="40.0" rx="6.0" fill="#f9fafb" stroke="#e5e7eb" stroke-width="1.8"/>
  <text x="727.5" y="220.0" text-anchor="middle" class="node-title">💬 消息通知</text>
  <rect x="50.0" y="350.0" width="110.0" height="40.0" rx="6.0" fill="#f9fafb" stroke="#e5e7eb" stroke-width="1.8"/>
  <text x="105.0" y="370.0" text-anchor="middle" class="node-title">🏪 门店列表</text>
  <rect x="175.0" y="350.0" width="115.0" height="40.0" rx="6.0" fill="#f9fafb" stroke="#e5e7eb" stroke-width="1.8"/>
  <text x="232.5" y="370.0" text-anchor="middle" class="node-title">📊 排队等待</text>
  <rect x="360.0" y="350.0" width="110.0" height="40.0" rx="6.0" fill="#f9fafb" stroke="#e5e7eb" stroke-width="1.8" filter="url(#glowBlue)"/>
  <text x="415.0" y="370.0" text-anchor="middle" class="node-title">👤 个人中心</text>
  <rect x="485.0" y="350.0" width="110.0" height="40.0" rx="6.0" fill="#f9fafb" stroke="#e5e7eb" stroke-width="1.8"/>
  <text x="540.0" y="370.0" text-anchor="middle" class="node-title">⚙️ 设置</text>
  <rect x="175.0" y="410.0" width="110.0" height="40.0" rx="6.0" fill="#f9fafb" stroke="#e5e7eb" stroke-width="1.8"/>
  <text x="230.0" y="430.0" text-anchor="middle" class="node-title">🔍 搜索</text>
  <text x="42.0" y="604.0" class="footnote">头号空间 PRD | 小程序页面结构图</text>
</svg>