<svg xmlns="http://www.w3.org/2000/svg" viewBox="0 0 780 580" width="780" height="580">
  <defs>
    <marker id="arrowA" markerWidth="10" markerHeight="7" refX="9" refY="3.5" orient="auto">
      <polygon points="0 0, 10 3.5, 0 7" fill="#7c3aed"/>
    </marker>
    <marker id="arrowB" markerWidth="10" markerHeight="7" refX="9" refY="3.5" orient="auto">
      <polygon points="0 0, 10 3.5, 0 7" fill="#10b981"/>
    </marker>
    <marker id="arrowC" markerWidth="10" markerHeight="7" refX="9" refY="3.5" orient="auto">
      <polygon points="0 0, 10 3.5, 0 7" fill="#2563eb"/>
    </marker>
    <marker id="arrowE" markerWidth="10" markerHeight="7" refX="9" refY="3.5" orient="auto">
      <polygon points="0 0, 10 3.5, 0 7" fill="#f97316"/>
    </marker>
    <marker id="arrowF" markerWidth="10" markerHeight="7" refX="9" refY="3.5" orient="auto">
      <polygon points="0 0, 10 3.5, 0 7" fill="#7c3aed"/>
    </marker>
    <marker id="arrowG" markerWidth="10" markerHeight="7" refX="9" refY="3.5" orient="auto">
      <polygon points="0 0, 10 3.5, 0 7" fill="#ef4444"/>
    </marker>
    <marker id="arrowH" markerWidth="10" markerHeight="7" refX="9" refY="3.5" orient="auto">
      <polygon points="0 0, 10 3.5, 0 7" fill="#6b7280"/>
    </marker>
    <filter id="shadowSoft" x="-20%" y="-20%" width="140%" height="160%">
      <feDropShadow dx="0" dy="3" stdDeviation="6" flood-color="#0f172a" flood-opacity="0.12"/>
    </filter>
    <filter id="shadowGlass" x="-20%" y="-20%" width="140%" height="160%">
      <feDropShadow dx="0" dy="10" stdDeviation="16" flood-color="#020617" flood-opacity="0.28"/>
    </filter>
    <style>
    text { font-family: 'Helvetica Neue', Helvetica, Arial, 'PingFang SC', 'Microsoft YaHei', 'Microsoft JhengHei', 'SimHei', sans-serif; }
    .title { font-size: 30px; font-weight: 700; fill: #111827; }
    .subtitle { font-size: 14px; font-weight: 500; fill: #6b7280; }
    .section { font-size: 13px; font-weight: 700; fill: #2563eb; letter-spacing: 1.4px; }
    .section-sub { font-size: 12px; font-weight: 500; fill: #94a3b8; }
    .node-title { font-size: 18px; font-weight: 700; fill: #111827; }
    .node-sub { font-size: 12px; font-weight: 500; fill: #6b7280; }
    .node-type { font-size: 12px; font-weight: 700; fill: #9ca3af; letter-spacing: 0.08em; }
    .arrow-label { font-size: 12px; font-weight: 600; fill: #6b7280; }
    .legend { font-size: 12px; font-weight: 500; fill: #6b7280; }
    .footnote { font-size: 12px; font-weight: 500; fill: #94a3b8; }
    </style>
  </defs>
  <rect width="780.0" height="580.0" fill="#ffffff"/>
  <text x="390.0" y="56" text-anchor="middle" class="title">商业模式 · 业务流转</text>
  <text x="390.0" y="82" text-anchor="middle" class="subtitle">平台 → 代理商 → 商家 → C端消费者</text>
  <path d="M 0.0,0.0" fill="none" stroke="#7c3aed" stroke-width="2.4" marker-end="url(#arrowA)"/>
  <path d="M 0.0,0.0" fill="none" stroke="#f97316" stroke-width="2.4" marker-end="url(#arrowE)"/>
  <path d="M 0.0,0.0" fill="none" stroke="#7c3aed" stroke-width="2.4" marker-end="url(#arrowA)"/>
  <path d="M 0.0,0.0" fill="none" stroke="#f97316" stroke-width="2.4" marker-end="url(#arrowE)"/>
  <path d="M 0.0,0.0" fill="none" stroke="#10b981" stroke-width="2.4" marker-end="url(#arrowB)"/>
  <path d="M 0.0,0.0" fill="none" stroke="#ef4444" stroke-width="2.4" marker-end="url(#arrowG)"/>
  <rect x="280.0" y="40.0" width="220.0" height="60.0" rx="10.0" fill="#ffffff" stroke="#d1d5db" stroke-width="1.8" filter="url(#glowBlue)"/>
  <text x="390.0" y="70.0" text-anchor="middle" class="node-title">头号空间 平台</text>
  <text x="390.0" y="92.0" text-anchor="middle" class="node-sub">硬件销售 + 游戏豆销售</text>
  <rect x="100.0" y="160.0" width="220.0" height="60.0" rx="10.0" fill="#ffffff" stroke="#d1d5db" stroke-width="1.8" filter="url(#shadowSoft)"/>
  <text x="210.0" y="190.0" text-anchor="middle" class="node-title">① 硬件销售</text>
  <text x="210.0" y="212.0" text-anchor="middle" class="node-sub">设备套餐（线下合同）</text>
  <rect x="460.0" y="160.0" width="220.0" height="60.0" rx="10.0" fill="#ffffff" stroke="#d1d5db" stroke-width="1.8" filter="url(#shadowSoft)"/>
  <text x="570.0" y="190.0" text-anchor="middle" class="node-title">② 游戏豆销售</text>
  <text x="570.0" y="212.0" text-anchor="middle" class="node-sub">B端代币 ¥1/豆</text>
  <rect x="220.0" y="300.0" width="340.0" height="70.0" rx="10.0" fill="#ffffff" stroke="#d1d5db" stroke-width="1.8" filter="url(#shadowSoft)"/>
  <text x="390.0" y="335.0" text-anchor="middle" class="node-title">商家（VR体验店）</text>
  <text x="390.0" y="357.0" text-anchor="middle" class="node-sub">采购设备 ｜ 购买游戏豆 ｜ 定价销售</text>
  <rect x="220.0" y="440.0" width="340.0" height="70.0" rx="10.0" fill="#ffffff" stroke="#d1d5db" stroke-width="1.8" filter="url(#glowGreen)"/>
  <text x="390.0" y="475.0" text-anchor="middle" class="node-title">C端消费者</text>
  <text x="390.0" y="497.0" text-anchor="middle" class="node-sub">充值 ｜ 购买游戏项目 ｜ 体验</text>
  <rect x="-21.0" y="-14.0" width="42" height="20" rx="6" fill="#ffffff" opacity="0.94"/>
  <text x="0.0" y="0.0" text-anchor="middle" class="arrow-label">硬件代理</text>
  <rect x="-24.5" y="-14.0" width="49" height="20" rx="6" fill="#ffffff" opacity="0.94"/>
  <text x="0.0" y="0.0" text-anchor="middle" class="arrow-label">采购游戏豆</text>
  <rect x="-21.0" y="-14.0" width="42" height="20" rx="6" fill="#ffffff" opacity="0.94"/>
  <text x="0.0" y="0.0" text-anchor="middle" class="arrow-label">交付设备</text>
  <rect x="-24.5" y="-14.0" width="49" height="20" rx="6" fill="#ffffff" opacity="0.94"/>
  <text x="0.0" y="0.0" text-anchor="middle" class="arrow-label">游戏豆到账</text>
  <rect x="-28.0" y="-14.0" width="56" height="20" rx="6" fill="#ffffff" opacity="0.94"/>
  <text x="0.0" y="0.0" text-anchor="middle" class="arrow-label">C端付款 ¥</text>
  <rect x="-31.5" y="-14.0" width="63" height="20" rx="6" fill="#ffffff" opacity="0.94"/>
  <text x="0.0" y="0.0" text-anchor="middle" class="arrow-label">消费 / 充值</text>
  <line x1="42.0" y1="480.0" x2="72.0" y2="480.0" stroke="#7c3aed" stroke-width="2.4" marker-end="url(#arrowA)"/>
  <text x="82.0" y="484.0" class="legend">资金/商品流</text>
  <line x1="42.0" y1="502.0" x2="72.0" y2="502.0" stroke="#f97316" stroke-width="2.4" marker-end="url(#arrowE)"/>
  <text x="82.0" y="506.0" class="legend">数据/服务流</text>
  <line x1="42.0" y1="524.0" x2="72.0" y2="524.0" stroke="#10b981" stroke-width="2.4" marker-end="url(#arrowB)"/>
  <text x="82.0" y="528.0" class="legend">资金回流</text>
  <text x="42.0" y="564.0" class="footnote">头号空间 PRD | 商业模式图</text>
</svg>