<svg xmlns="http://www.w3.org/2000/svg" viewBox="0 0 780 500" width="780" height="500">
  <defs>
    <marker id="arrowA" markerWidth="10" markerHeight="7" refX="9" refY="3.5" orient="auto">
      <polygon points="0 0, 10 3.5, 0 7" fill="#7c3aed"/>
    </marker>
    <marker id="arrowB" markerWidth="10" markerHeight="7" refX="9" refY="3.5" orient="auto">
      <polygon points="0 0, 10 3.5, 0 7" fill="#10b981"/>
    </marker>
    <marker id="arrowC" markerWidth="10" markerHeight="7" refX="9" refY="3.5" orient="auto">
      <polygon points="0 0, 10 3.5, 0 7" fill="#2563eb"/>
    </marker>
    <marker id="arrowE" markerWidth="10" markerHeight="7" refX="9" refY="3.5" orient="auto">
      <polygon points="0 0, 10 3.5, 0 7" fill="#f97316"/>
    </marker>
    <marker id="arrowF" markerWidth="10" markerHeight="7" refX="9" refY="3.5" orient="auto">
      <polygon points="0 0, 10 3.5, 0 7" fill="#7c3aed"/>
    </marker>
    <marker id="arrowG" markerWidth="10" markerHeight="7" refX="9" refY="3.5" orient="auto">
      <polygon points="0 0, 10 3.5, 0 7" fill="#ef4444"/>
    </marker>
    <marker id="arrowH" markerWidth="10" markerHeight="7" refX="9" refY="3.5" orient="auto">
      <polygon points="0 0, 10 3.5, 0 7" fill="#6b7280"/>
    </marker>
    <filter id="shadowSoft" x="-20%" y="-20%" width="140%" height="160%">
      <feDropShadow dx="0" dy="3" stdDeviation="6" flood-color="#0f172a" flood-opacity="0.12"/>
    </filter>
    <filter id="shadowGlass" x="-20%" y="-20%" width="140%" height="160%">
      <feDropShadow dx="0" dy="10" stdDeviation="16" flood-color="#020617" flood-opacity="0.28"/>
    </filter>
    <style>
    text { font-family: 'Helvetica Neue', Helvetica, Arial, 'PingFang SC', 'Microsoft YaHei', 'Microsoft JhengHei', 'SimHei', sans-serif; }
    .title { font-size: 30px; font-weight: 700; fill: #111827; }
    .subtitle { font-size: 14px; font-weight: 500; fill: #6b7280; }
    .section { font-size: 13px; font-weight: 700; fill: #2563eb; letter-spacing: 1.4px; }
    .section-sub { font-size: 12px; font-weight: 500; fill: #94a3b8; }
    .node-title { font-size: 18px; font-weight: 700; fill: #111827; }
    .node-sub { font-size: 12px; font-weight: 500; fill: #6b7280; }
    .node-type { font-size: 12px; font-weight: 700; fill: #9ca3af; letter-spacing: 0.08em; }
    .arrow-label { font-size: 12px; font-weight: 600; fill: #6b7280; }
    .legend { font-size: 12px; font-weight: 500; fill: #6b7280; }
    .footnote { font-size: 12px; font-weight: 500; fill: #94a3b8; }
    </style>
  </defs>
  <rect width="780.0" height="500.0" fill="#ffffff"/>
  <text x="390.0" y="56" text-anchor="middle" class="title">代理商分润结算流程（T+1月结）</text>
  <text x="390.0" y="82" text-anchor="middle" class="subtitle">全量阶梯分润 · 四级安全机制</text>
  <path d="M 0.0,0.0" fill="none" stroke="#f97316" stroke-width="2.4" marker-end="url(#arrowE)"/>
  <path d="M 0.0,0.0" fill="none" stroke="#7c3aed" stroke-width="2.4" marker-end="url(#arrowA)"/>
  <path d="M 0.0,0.0" fill="none" stroke="#7c3aed" stroke-width="2.4" marker-end="url(#arrowA)"/>
  <path d="M 0.0,0.0" fill="none" stroke="#7c3aed" stroke-width="2.4" marker-end="url(#arrowA)"/>
  <path d="M 0.0,0.0" fill="none" stroke="#7c3aed" stroke-width="2.4" marker-end="url(#arrowA)"/>
  <path d="M 0.0,0.0" fill="none" stroke="#ef4444" stroke-width="2.4" marker-end="url(#arrowG)"/>
  <rect x="280.0" y="30.0" width="220.0" height="50.0" rx="8.0" fill="#ffffff" stroke="#d1d5db" stroke-width="1.8" filter="url(#glowBlue)"/>
  <text x="390.0" y="55.0" text-anchor="middle" class="node-title">商家采购游戏豆</text>
  <text x="390.0" y="77.0" text-anchor="middle" class="node-sub">¥1/豆 · 平台统一定价</text>
  <rect x="50.0" y="140.0" width="200.0" height="60.0" rx="8.0" fill="#ffffff" stroke="#d1d5db" stroke-width="1.8" filter="url(#shadowSoft)"/>
  <text x="150.0" y="170.0" text-anchor="middle" class="node-title">① 阶梯分润计算</text>
  <text x="150.0" y="192.0" text-anchor="middle" class="node-sub">全量按档位计算</text>
  <rect x="290.0" y="140.0" width="200.0" height="60.0" rx="8.0" fill="#ffffff" stroke="#d1d5db" stroke-width="1.8" filter="url(#shadowSoft)"/>
  <text x="390.0" y="170.0" text-anchor="middle" class="node-title">② 生成结算单</text>
  <text x="390.0" y="192.0" text-anchor="middle" class="node-sub">次月1日自动生成</text>
  <rect x="530.0" y="140.0" width="200.0" height="60.0" rx="8.0" fill="#ffffff" stroke="#d1d5db" stroke-width="1.8" filter="url(#shadowSoft)"/>
  <text x="630.0" y="170.0" text-anchor="middle" class="node-title">③ 代理商确认</text>
  <text x="630.0" y="192.0" text-anchor="middle" class="node-sub">日确认 / 申诉冻结</text>
  <rect x="140.0" y="270.0" width="220.0" height="60.0" rx="8.0" fill="#ffffff" stroke="#d1d5db" stroke-width="1.8" filter="url(#shadowSoft)"/>
  <text x="250.0" y="300.0" text-anchor="middle" class="node-title">④ 平台财务审核</text>
  <text x="250.0" y="322.0" text-anchor="middle" class="node-sub">争议处理 · 复核</text>
  <rect x="420.0" y="270.0" width="220.0" height="60.0" rx="8.0" fill="#ffffff" stroke="#d1d5db" stroke-width="1.8" filter="url(#glowGreen)"/>
  <text x="530.0" y="300.0" text-anchor="middle" class="node-title">⑤ 打款</text>
  <text x="530.0" y="322.0" text-anchor="middle" class="node-sub">自动/线下  ≥¥100</text>
  <rect x="280.0" y="390.0" width="220.0" height="50.0" rx="8.0" fill="#ffffff" stroke="#d1d5db" stroke-width="1.8" filter="url(#glowGreen)"/>
  <text x="390.0" y="415.0" text-anchor="middle" class="node-title">⑥ 结算完成</text>
  <text x="390.0" y="437.0" text-anchor="middle" class="node-sub">次月15日前到账</text>
  <rect x="-21.0" y="-14.0" width="42" height="20" rx="6" fill="#ffffff" opacity="0.94"/>
  <text x="0.0" y="0.0" text-anchor="middle" class="arrow-label">采购数据</text>
  <rect x="-21.0" y="-14.0" width="42" height="20" rx="6" fill="#ffffff" opacity="0.94"/>
  <text x="0.0" y="0.0" text-anchor="middle" class="arrow-label">阶梯策略</text>
  <rect x="-21.0" y="-14.0" width="42" height="20" rx="6" fill="#ffffff" opacity="0.94"/>
  <text x="0.0" y="0.0" text-anchor="middle" class="arrow-label">审核通过</text>
  <rect x="-21.0" y="-14.0" width="42" height="20" rx="6" fill="#ffffff" opacity="0.94"/>
  <text x="0.0" y="0.0" text-anchor="middle" class="arrow-label">打款完成</text>
  <rect x="-31.5" y="-14.0" width="63" height="20" rx="6" fill="#ffffff" opacity="0.94"/>
  <text x="0.0" y="0.0" text-anchor="middle" class="arrow-label">申诉 → 复核</text>
  <line x1="42.0" y1="400.0" x2="72.0" y2="400.0" stroke="#7c3aed" stroke-width="2.4" marker-end="url(#arrowA)"/>
  <text x="82.0" y="404.0" class="legend">正向流程</text>
  <line x1="42.0" y1="422.0" x2="72.0" y2="422.0" stroke="#f97316" stroke-width="2.4" marker-end="url(#arrowE)"/>
  <text x="82.0" y="426.0" class="legend">数据驱动</text>
  <line x1="42.0" y1="444.0" x2="72.0" y2="444.0" stroke="#ef4444" stroke-width="2.4" marker-end="url(#arrowG)"/>
  <text x="82.0" y="448.0" class="legend">异常分支</text>
  <text x="42.0" y="484.0" class="footnote">头号空间 PRD | 分润结算流程图</text>
</svg>