<svg xmlns="http://www.w3.org/2000/svg" viewBox="0 0 960 680" width="960" height="680">
  <defs>
    <marker id="arrowA" markerWidth="10" markerHeight="7" refX="9" refY="3.5" orient="auto">
      <polygon points="0 0, 10 3.5, 0 7" fill="#7c3aed"/>
    </marker>
    <marker id="arrowB" markerWidth="10" markerHeight="7" refX="9" refY="3.5" orient="auto">
      <polygon points="0 0, 10 3.5, 0 7" fill="#10b981"/>
    </marker>
    <marker id="arrowC" markerWidth="10" markerHeight="7" refX="9" refY="3.5" orient="auto">
      <polygon points="0 0, 10 3.5, 0 7" fill="#2563eb"/>
    </marker>
    <marker id="arrowE" markerWidth="10" markerHeight="7" refX="9" refY="3.5" orient="auto">
      <polygon points="0 0, 10 3.5, 0 7" fill="#f97316"/>
    </marker>
    <marker id="arrowF" markerWidth="10" markerHeight="7" refX="9" refY="3.5" orient="auto">
      <polygon points="0 0, 10 3.5, 0 7" fill="#7c3aed"/>
    </marker>
    <marker id="arrowG" markerWidth="10" markerHeight="7" refX="9" refY="3.5" orient="auto">
      <polygon points="0 0, 10 3.5, 0 7" fill="#ef4444"/>
    </marker>
    <marker id="arrowH" markerWidth="10" markerHeight="7" refX="9" refY="3.5" orient="auto">
      <polygon points="0 0, 10 3.5, 0 7" fill="#6b7280"/>
    </marker>
    <filter id="shadowSoft" x="-20%" y="-20%" width="140%" height="160%">
      <feDropShadow dx="0" dy="3" stdDeviation="6" flood-color="#0f172a" flood-opacity="0.12"/>
    </filter>
    <filter id="shadowGlass" x="-20%" y="-20%" width="140%" height="160%">
      <feDropShadow dx="0" dy="10" stdDeviation="16" flood-color="#020617" flood-opacity="0.28"/>
    </filter>
    <style>
    text { font-family: 'Helvetica Neue', Helvetica, Arial, 'PingFang SC', 'Microsoft YaHei', 'Microsoft JhengHei', 'SimHei', sans-serif; }
    .title { font-size: 30px; font-weight: 700; fill: #111827; }
    .subtitle { font-size: 14px; font-weight: 500; fill: #6b7280; }
    .section { font-size: 13px; font-weight: 700; fill: #2563eb; letter-spacing: 1.4px; }
    .section-sub { font-size: 12px; font-weight: 500; fill: #94a3b8; }
    .node-title { font-size: 18px; font-weight: 700; fill: #111827; }
    .node-sub { font-size: 12px; font-weight: 500; fill: #6b7280; }
    .node-type { font-size: 12px; font-weight: 700; fill: #9ca3af; letter-spacing: 0.08em; }
    .arrow-label { font-size: 12px; font-weight: 600; fill: #6b7280; }
    .legend { font-size: 12px; font-weight: 500; fill: #6b7280; }
    .footnote { font-size: 12px; font-weight: 500; fill: #94a3b8; }
    </style>
  </defs>
  <rect width="960.0" height="680.0" fill="#ffffff"/>
  <text x="480.0" y="56" text-anchor="middle" class="title">用户到店消费全流程（六端联动）</text>
  <text x="480.0" y="82" text-anchor="middle" class="subtitle">从到店前 → 离店后的完整闭环</text>
  <rect x="30.0" y="90.0" width="220.0" height="310.0" rx="16.0" fill="none" stroke="#dbe5f1" stroke-width="1.4" stroke-dasharray="6 5"/>
  <text x="48.0" y="114.0" class="section">01 // 到店前</text>
  <rect x="270.0" y="90.0" width="220.0" height="310.0" rx="16.0" fill="none" stroke="#dbe5f1" stroke-width="1.4" stroke-dasharray="6 5"/>
  <text x="288.0" y="114.0" class="section">02 // 到店 &amp; 选游戏</text>
  <rect x="510.0" y="90.0" width="220.0" height="310.0" rx="16.0" fill="none" stroke="#dbe5f1" stroke-width="1.4" stroke-dasharray="6 5"/>
  <text x="528.0" y="114.0" class="section">03 // 支付 &amp; 分配设备</text>
  <rect x="750.0" y="90.0" width="180.0" height="310.0" rx="16.0" fill="none" stroke="#dbe5f1" stroke-width="1.4" stroke-dasharray="6 5"/>
  <text x="768.0" y="114.0" class="section">04 // 体验 &amp; 结算</text>
  <path d="M 230.0,165.0 L 290.0,165.0" fill="none" stroke="#7c3aed" stroke-width="2.4" marker-end="url(#arrowA)"/>
  <path d="M 0.0,0.0" fill="none" stroke="#7c3aed" stroke-width="2.4" marker-end="url(#arrowA)"/>
  <path d="M 0.0,0.0" fill="none" stroke="#7c3aed" stroke-width="2.4" marker-end="url(#arrowA)"/>
  <path d="M 0.0,0.0" fill="none" stroke="#10b981" stroke-width="2.4" marker-end="url(#arrowB)"/>
  <path d="M 0.0,0.0" fill="none" stroke="#7c3aed" stroke-width="2.4" marker-end="url(#arrowA)"/>
  <path d="M 0.0,0.0" fill="none" stroke="#7c3aed" stroke-width="2.4" marker-end="url(#arrowA)"/>
  <path d="M 0.0,0.0" fill="none" stroke="#7c3aed" stroke-width="2.4" marker-end="url(#arrowA)"/>
  <path d="M 0.0,0.0" fill="none" stroke="#7c3aed" stroke-width="2.4" marker-end="url(#arrowA)"/>
  <path d="M 0.0,0.0" fill="none" stroke="#7c3aed" stroke-width="2.4" marker-end="url(#arrowA)"/>
  <rect x="50.0" y="140.0" width="180.0" height="50.0" rx="8.0" fill="#ffffff" stroke="#d1d5db" stroke-width="1.8" filter="url(#shadowSoft)"/>
  <text x="140.0" y="165.0" text-anchor="middle" class="node-title">C端小程序</text>
  <text x="140.0" y="187.0" text-anchor="middle" class="node-sub">浏览游戏 · 查看门店</text>
  <rect x="50.0" y="210.0" width="180.0" height="50.0" rx="8.0" fill="#ffffff" stroke="#d1d5db" stroke-width="1.8" filter="url(#shadowSoft)"/>
  <text x="140.0" y="235.0" text-anchor="middle" class="node-title">预约/了解价格</text>
  <text x="140.0" y="257.0" text-anchor="middle" class="node-sub">LBS附近门店</text>
  <rect x="290.0" y="140.0" width="180.0" height="50.0" rx="8.0" fill="#ffffff" stroke="#d1d5db" stroke-width="1.8" filter="url(#shadowSoft)"/>
  <text x="380.0" y="165.0" text-anchor="middle" class="node-title">PC游戏终端</text>
  <text x="380.0" y="187.0" text-anchor="middle" class="node-sub">待机画面吸引</text>
  <rect x="290.0" y="210.0" width="180.0" height="50.0" rx="8.0" fill="#ffffff" stroke="#d1d5db" stroke-width="1.8" filter="url(#shadowSoft)"/>
  <text x="380.0" y="235.0" text-anchor="middle" class="node-title">身份识别</text>
  <text x="380.0" y="257.0" text-anchor="middle" class="node-sub">散客 / 会员登录</text>
  <rect x="290.0" y="280.0" width="180.0" height="50.0" rx="8.0" fill="#ffffff" stroke="#d1d5db" stroke-width="1.8" filter="url(#shadowSoft)"/>
  <text x="380.0" y="305.0" text-anchor="middle" class="node-title">选游戏</text>
  <text x="380.0" y="327.0" text-anchor="middle" class="node-sub">浏览 → 详情 → 开始</text>
  <rect x="530.0" y="140.0" width="180.0" height="50.0" rx="8.0" fill="#ffffff" stroke="#d1d5db" stroke-width="1.8" filter="url(#glowGreen)"/>
  <text x="620.0" y="165.0" text-anchor="middle" class="node-title">扫码支付</text>
  <text x="620.0" y="187.0" text-anchor="middle" class="node-sub">微信/支付宝/余额</text>
  <rect x="530.0" y="210.0" width="180.0" height="50.0" rx="8.0" fill="#ffffff" stroke="#d1d5db" stroke-width="1.8" filter="url(#shadowSoft)"/>
  <text x="620.0" y="235.0" text-anchor="middle" class="node-title">分配VR设备</text>
  <text x="620.0" y="257.0" text-anchor="middle" class="node-sub">自动分配空闲设备</text>
  <rect x="530.0" y="280.0" width="180.0" height="50.0" rx="8.0" fill="#ffffff" stroke="#d1d5db" stroke-width="1.8" filter="url(#shadowSoft)"/>
  <text x="620.0" y="305.0" text-anchor="middle" class="node-title">引导佩戴</text>
  <text x="620.0" y="327.0" text-anchor="middle" class="node-sub">"请佩戴 #03 头盔"</text>
  <rect x="765.0" y="140.0" width="150.0" height="50.0" rx="8.0" fill="#ffffff" stroke="#d1d5db" stroke-width="1.8" filter="url(#glowBlue)"/>
  <text x="840.0" y="165.0" text-anchor="middle" class="node-title">VR沉浸体验</text>
  <text x="840.0" y="187.0" text-anchor="middle" class="node-sub">0 UI 干 扰</text>
  <rect x="765.0" y="210.0" width="150.0" height="50.0" rx="8.0" fill="#ffffff" stroke="#d1d5db" stroke-width="1.8" filter="url(#shadowSoft)"/>
  <text x="840.0" y="235.0" text-anchor="middle" class="node-title">游戏结束</text>
  <text x="840.0" y="257.0" text-anchor="middle" class="node-sub">SDK自动结算</text>
  <rect x="765.0" y="280.0" width="150.0" height="50.0" rx="8.0" fill="#ffffff" stroke="#d1d5db" stroke-width="1.8" filter="url(#shadowSoft)"/>
  <text x="840.0" y="305.0" text-anchor="middle" class="node-title">结算评价</text>
  <text x="840.0" y="327.0" text-anchor="middle" class="node-sub">PC终端评分</text>
  <rect x="232.0" y="151.0" width="56" height="20" rx="6" fill="#ffffff" opacity="0.94"/>
  <text x="260.0" y="165.0" text-anchor="middle" class="arrow-label">LBS/预约</text>
  <rect x="-18.0" y="-14.0" width="36" height="20" rx="6" fill="#ffffff" opacity="0.94"/>
  <text x="0.0" y="0.0" text-anchor="middle" class="arrow-label">选游戏</text>
  <rect x="-21.0" y="-14.0" width="42" height="20" rx="6" fill="#ffffff" opacity="0.94"/>
  <text x="0.0" y="0.0" text-anchor="middle" class="arrow-label">确认支付</text>
  <rect x="-18.0" y="-14.0" width="36" height="20" rx="6" fill="#ffffff" opacity="0.94"/>
  <text x="0.0" y="0.0" text-anchor="middle" class="arrow-label">成功</text>
  <rect x="-18.0" y="-14.0" width="36" height="20" rx="6" fill="#ffffff" opacity="0.94"/>
  <text x="0.0" y="0.0" text-anchor="middle" class="arrow-label">指引</text>
  <rect x="-21.0" y="-14.0" width="42" height="20" rx="6" fill="#ffffff" opacity="0.94"/>
  <text x="0.0" y="0.0" text-anchor="middle" class="arrow-label">开始体验</text>
  <rect x="-18.0" y="-14.0" width="36" height="20" rx="6" fill="#ffffff" opacity="0.94"/>
  <text x="0.0" y="0.0" text-anchor="middle" class="arrow-label">结算</text>
  <line x1="42.0" y1="602.0" x2="72.0" y2="602.0" stroke="#7c3aed" stroke-width="2.4" marker-end="url(#arrowA)"/>
  <text x="82.0" y="606.0" class="legend">用户操作流</text>
  <line x1="42.0" y1="624.0" x2="72.0" y2="624.0" stroke="#7c3aed" stroke-width="2.4" marker-end="url(#arrowA)"/>
  <text x="82.0" y="628.0" class="legend">系统处理</text>
  <text x="42.0" y="664.0" class="footnote">头号空间 PRD | 六端联动流程图</text>
</svg>