<svg xmlns="http://www.w3.org/2000/svg" xmlns:xlink="http://www.w3.org/1999/xlink" width="75" height="75" viewBox="0 0 75 75" fill="none"><rect  x="0" y="0" width="75" height="75" rx="11"    fill="#FF9538" ></rect><path     fill="#FFFFFF"  d="M24.0667 25.1958C22.6781 25.874 22 26.6167 22 27.424L22 29.6521C22 30.4594 22.6781 31.2021 24.0667 31.8802C25.4552 32.5583 27.3281 33.1073 29.7177 33.4948C32.1073 33.8823 34.6906 34.076 37.5 34.076C40.3094 34.076 42.8927 33.8823 45.2823 33.4948C47.6719 33.1073 49.5448 32.5583 50.9333 31.8802C52.3219 31.2021 53 30.4594 53 29.6521L53 27.424C53 26.6167 52.3219 25.874 50.9333 25.1958C49.5448 24.5177 47.6719 23.9688 45.2823 23.5812C42.8927 23.1938 40.3094 23 37.5 23C34.6906 23 32.1073 23.1938 29.7177 23.5812C27.3604 24.001 25.4552 24.5177 24.0667 25.1958ZM22 40.1146L22 42.924C22 43.7312 22.6781 44.474 24.0667 45.1521C25.4552 45.8302 27.3281 46.3792 29.7177 46.7667C32.1073 47.1542 34.6906 47.3479 37.5 47.3479C40.3094 47.3479 42.8927 47.1542 45.2823 46.7667C47.6719 46.3792 49.5448 45.8302 50.9333 45.1521C52.3219 44.474 53 43.7312 53 42.924L53 39.9854C51.3854 40.9542 49.2219 41.6969 46.4448 42.1812C43.6677 42.6979 40.6969 42.924 37.5 42.924C34.3031 42.924 31.3323 42.6979 28.5552 42.1812C25.7781 41.6969 23.6146 40.9542 22 39.9854M22 46.5729L22 49.576C22 50.3833 22.6781 51.126 24.0667 51.8042C25.4552 52.4823 27.3281 53.0312 29.7177 53.4187C32.1073 53.8062 34.6906 54 37.5 54C40.3094 54 42.8927 53.8062 45.2823 53.4187C47.6719 53.0312 49.5448 52.4823 50.9333 51.8042C52.3219 51.126 53 50.3833 53 49.576L53 46.6375C51.3854 47.6062 49.2219 48.349 46.4448 48.8333C43.6677 49.3177 40.6969 49.576 37.5 49.576C34.3031 49.576 31.3323 49.3177 28.5552 48.8333C25.7781 48.349 23.6146 47.6062 22 46.6375M22 33.3333L22 36.2719C22 37.0792 22.6781 37.8219 24.0667 38.5C25.4552 39.1781 27.3281 39.7271 29.7177 40.1146C32.1073 40.5021 34.6906 40.6958 37.5 40.6958C40.3094 40.6958 42.8927 40.5021 45.2823 40.1146C47.6719 39.7271 49.5448 39.1781 50.9333 38.5C52.3219 37.8219 53 37.0792 53 36.2719L53 33.3333C51.3854 34.3021 49.2219 35.0448 46.4448 35.5292C43.6677 36.0135 40.6969 36.2719 37.5 36.2719C34.3031 36.2719 31.3323 36.0135 28.5552 35.5292C25.7781 35.0448 23.6146 34.3021 22 33.3333Z"></path></svg>