<svg xmlns="http://www.w3.org/2000/svg" xmlns:xlink="http://www.w3.org/1999/xlink" width="75" height="75" viewBox="0 0 75 75" fill="none"><rect  x="0" y="0" width="75" height="75" rx="11"    fill="#FF7575" ></rect><path d="M57.189 31.5806C57.203 31.5786 57.2167 31.5763 57.2307 31.5737C57.2443 31.5712 57.258 31.5682 57.2717 31.565C57.2854 31.5618 57.2991 31.5583 57.3128 31.5545C57.3262 31.5507 57.3396 31.5466 57.353 31.5421C57.3664 31.5377 57.3795 31.533 57.3929 31.528C57.406 31.523 57.419 31.5177 57.4318 31.5121C57.4446 31.5065 57.4574 31.5006 57.4702 31.4945C57.4827 31.4883 57.4952 31.4818 57.5077 31.4751C57.5199 31.4684 57.5321 31.4614 57.5443 31.4541C57.5563 31.4468 57.5682 31.4393 57.5798 31.4315C57.5914 31.4237 57.603 31.4157 57.6143 31.4074C57.6259 31.399 57.6369 31.3905 57.6479 31.3816C57.6589 31.3728 57.6696 31.3638 57.6801 31.3545C57.6905 31.3452 57.7009 31.3357 57.711 31.3259C57.7211 31.3161 57.731 31.3062 57.7408 31.296C57.7506 31.2857 57.7601 31.2754 57.7693 31.2647C57.7786 31.2541 57.7875 31.2433 57.7961 31.2323C57.8048 31.2212 57.8134 31.21 57.8214 31.1986C57.8298 31.1872 57.8378 31.1756 57.8455 31.1639C57.8533 31.1521 57.8607 31.1402 57.8679 31.1281C57.875 31.116 57.8818 31.1038 57.8887 31.0913C57.8952 31.0789 57.9015 31.0664 57.9077 31.0537C57.9137 31.041 57.9193 31.0282 57.925 31.0152C57.9307 31.0023 57.9357 30.9892 57.9405 30.976C57.9455 30.9629 57.95 30.9496 57.9545 30.9362C57.9589 30.9228 57.9628 30.9093 57.9664 30.8958C57.9702 30.8822 57.9735 30.8686 57.9768 30.8549C57.9798 30.8411 57.9824 30.8274 57.9851 30.8135C57.9875 30.7997 57.9896 30.7858 57.9917 30.7718C57.9935 30.7579 57.9949 30.7439 57.9964 30.7299C57.9976 30.7159 57.9985 30.7019 57.9991 30.6878C57.9997 30.6738 58 30.6597 58 30.6457L58 24.8571C58 24.8104 57.9988 24.7637 57.9964 24.7169C57.9943 24.6702 57.9908 24.6236 57.9863 24.5771C57.9818 24.5306 57.9759 24.4842 57.969 24.4379C57.9622 24.3917 57.9545 24.3456 57.9452 24.2997C57.936 24.2539 57.9259 24.2083 57.9143 24.1629C57.903 24.1176 57.8905 24.0725 57.8771 24.0278C57.8634 23.983 57.8488 23.9386 57.833 23.8946C57.8173 23.8506 57.8003 23.807 57.7824 23.7638C57.7646 23.7206 57.7455 23.6778 57.7256 23.6356C57.7057 23.5933 57.6848 23.5515 57.6625 23.5103C57.6405 23.4691 57.6176 23.4284 57.5935 23.3883C57.5693 23.3482 57.5443 23.3087 57.5185 23.2698C57.4926 23.2309 57.4655 23.1927 57.4378 23.1551C57.4098 23.1176 57.381 23.0807 57.3515 23.0446C57.3217 23.0084 57.2911 22.973 57.2598 22.9384C57.2286 22.9038 57.1961 22.8699 57.1631 22.8368C57.1301 22.8038 57.0964 22.7715 57.0616 22.7401C57.0268 22.7087 56.9914 22.6782 56.9554 22.6485C56.9193 22.6189 56.8824 22.5901 56.8449 22.5623C56.8071 22.5344 56.769 22.5075 56.7301 22.4815C56.6914 22.4555 56.6518 22.4305 56.6116 22.4065C56.5714 22.3825 56.531 22.3594 56.4896 22.3374C56.4485 22.3153 56.4068 22.2943 56.3646 22.2743C56.3223 22.2543 56.2795 22.2354 56.2363 22.2175C56.1932 22.1996 56.1494 22.1828 56.1054 22.167C56.0613 22.1513 56.017 22.1366 55.9723 22.123C55.9274 22.1095 55.8824 22.097 55.8372 22.0856C55.7917 22.0743 55.7461 22.064 55.7003 22.0549C55.6545 22.0458 55.6083 22.0378 55.5622 22.0309C55.5161 22.0241 55.4696 22.0183 55.4229 22.0138C55.3762 22.0092 55.3298 22.0057 55.283 22.0034C55.2363 22.0011 55.1896 22 55.1429 22L20.8571 22C20.8104 22 20.7637 22.0011 20.717 22.0034C20.6702 22.0057 20.6236 22.0092 20.5771 22.0138C20.5306 22.0183 20.4842 22.0241 20.4379 22.0309C20.3917 22.0378 20.3456 22.0458 20.2997 22.0549C20.2539 22.064 20.2083 22.0743 20.1629 22.0856C20.1176 22.097 20.0725 22.1095 20.0278 22.123C19.983 22.1366 19.9386 22.1513 19.8946 22.167C19.8506 22.1828 19.807 22.1996 19.7638 22.2175C19.7206 22.2354 19.6778 22.2543 19.6356 22.2743C19.5933 22.2943 19.5515 22.3153 19.5103 22.3374C19.4691 22.3594 19.4284 22.3825 19.3883 22.4065C19.3482 22.4305 19.3087 22.4555 19.2698 22.4815C19.2309 22.5075 19.1927 22.5344 19.1551 22.5623C19.1176 22.5901 19.0807 22.6189 19.0446 22.6485C19.0084 22.6782 18.9731 22.7087 18.9384 22.7401C18.9038 22.7715 18.8699 22.8038 18.8368 22.8368C18.8038 22.8699 18.7715 22.9038 18.7401 22.9384C18.7087 22.973 18.6782 23.0084 18.6485 23.0446C18.6189 23.0807 18.5901 23.1176 18.5623 23.1551C18.5344 23.1927 18.5075 23.2309 18.4815 23.2698C18.4555 23.3087 18.4305 23.3482 18.4065 23.3883C18.3825 23.4284 18.3594 23.4691 18.3374 23.5103C18.3153 23.5515 18.2943 23.5933 18.2743 23.6356C18.2543 23.6778 18.2354 23.7206 18.2175 23.7638C18.1996 23.807 18.1828 23.8506 18.167 23.8946C18.1513 23.9386 18.1366 23.983 18.123 24.0278C18.1095 24.0725 18.097 24.1176 18.0856 24.1629C18.0743 24.2083 18.064 24.2539 18.0549 24.2997C18.0458 24.3456 18.0378 24.3917 18.0309 24.4379C18.0241 24.4842 18.0183 24.5306 18.0138 24.5771C18.0092 24.6236 18.0057 24.6702 18.0034 24.7169C18.0012 24.7637 18 24.8104 18 24.8571L18 30.6457C18 30.6597 18.0003 30.6738 18.0009 30.6878C18.0015 30.7019 18.0025 30.7159 18.0037 30.7299C18.0049 30.7439 18.0065 30.7579 18.0084 30.7718C18.0102 30.7857 18.0124 30.7996 18.0149 30.8135C18.0174 30.8273 18.0202 30.8411 18.0233 30.8548C18.0264 30.8685 18.0298 30.8821 18.0335 30.8957C18.0372 30.9093 18.0412 30.9227 18.0455 30.9361C18.0499 30.9495 18.0545 30.9628 18.0594 30.976C18.0643 30.9891 18.0695 31.0022 18.075 31.0151C18.0805 31.0281 18.0863 31.0409 18.0923 31.0536C18.0984 31.0663 18.1047 31.0788 18.1114 31.0912C18.118 31.1036 18.1249 31.1159 18.1321 31.1279C18.1392 31.1401 18.1467 31.152 18.1544 31.1637C18.1621 31.1755 18.1701 31.1871 18.1783 31.1985C18.1865 31.2099 18.195 31.2211 18.2037 31.2321C18.2125 31.2432 18.2214 31.254 18.2306 31.2646C18.2398 31.2752 18.2493 31.2856 18.259 31.2958C18.2686 31.306 18.2785 31.316 18.2887 31.3258C18.2988 31.3355 18.3091 31.3451 18.3197 31.3543C18.3302 31.3637 18.341 31.3727 18.3519 31.3815C18.3629 31.3903 18.374 31.3989 18.3854 31.4072C18.3967 31.4155 18.4082 31.4236 18.4199 31.4314C18.4316 31.4392 18.4435 31.4467 18.4555 31.454C18.4675 31.4613 18.4797 31.4683 18.4921 31.475C18.5044 31.4817 18.5169 31.4882 18.5296 31.4943C18.5422 31.5005 18.555 31.5064 18.5679 31.512C18.5808 31.5176 18.5938 31.5229 18.6069 31.5279C18.62 31.5329 18.6333 31.5376 18.6466 31.5421C18.66 31.5465 18.6734 31.5506 18.6869 31.5545C18.7005 31.5583 18.7141 31.5618 18.7278 31.565C18.7415 31.5682 18.7552 31.5711 18.769 31.5737C18.7829 31.5763 18.7967 31.5786 18.8106 31.5806C18.8947 31.5928 18.9785 31.6068 19.062 31.6227C19.1454 31.6387 19.2285 31.6564 19.3112 31.676C19.3938 31.6957 19.476 31.7171 19.5577 31.7404C19.6395 31.7637 19.7206 31.7888 19.8012 31.8157C19.8818 31.8426 19.9617 31.8713 20.0411 31.9018C20.1204 31.9322 20.199 31.9645 20.2768 31.9984C20.3547 32.0324 20.4318 32.0681 20.5081 32.1055C20.5844 32.1429 20.6598 32.182 20.7343 32.2228C20.8089 32.2636 20.8825 32.306 20.9551 32.3501C21.0277 32.3941 21.0994 32.4398 21.17 32.487C21.2406 32.5343 21.3101 32.5831 21.3786 32.6335C21.447 32.6838 21.5143 32.7357 21.5804 32.789C21.6465 32.8424 21.7114 32.8972 21.7751 32.9534C21.8388 33.0097 21.9012 33.0673 21.9623 33.1263C22.0234 33.1854 22.0832 33.2457 22.1416 33.3074C22.2 33.3691 22.257 33.4321 22.3126 33.4963C22.3682 33.5606 22.4224 33.626 22.475 33.6927C22.5277 33.7593 22.5789 33.8271 22.6286 33.8961C22.6782 33.965 22.7263 34.035 22.7729 34.1061C22.8194 34.1772 22.8644 34.2493 22.9077 34.3224C22.951 34.3955 22.9927 34.4695 23.0327 34.5444C23.0727 34.6194 23.1111 34.6952 23.1477 34.7718C23.1843 34.8485 23.2193 34.9259 23.2525 35.0041C23.2857 35.0824 23.3171 35.1613 23.3468 35.2409C23.3764 35.3205 23.4043 35.4007 23.4304 35.4816C23.4565 35.5625 23.4808 35.6439 23.5032 35.7258C23.5257 35.8077 23.5463 35.8901 23.5651 35.973C23.5839 36.0559 23.6008 36.1391 23.6159 36.2227C23.631 36.3063 23.6442 36.3903 23.6555 36.4745C23.6669 36.5587 23.6763 36.6431 23.6839 36.7277C23.6915 36.8124 23.6971 36.8971 23.7009 36.982C23.7047 37.0669 23.7066 37.1518 23.7066 37.2368C23.7066 37.3217 23.7047 37.4066 23.7009 37.4915C23.6971 37.5764 23.6915 37.6612 23.6839 37.7458C23.6763 37.8304 23.6669 37.9149 23.6555 37.999C23.6442 38.0832 23.631 38.1672 23.6159 38.2508C23.6008 38.3344 23.5839 38.4176 23.5651 38.5005C23.5463 38.5834 23.5257 38.6658 23.5032 38.7477C23.4808 38.8296 23.4565 38.911 23.4304 38.9919C23.4043 39.0728 23.3764 39.153 23.3468 39.2326C23.3171 39.3122 23.2857 39.3911 23.2525 39.4693C23.2193 39.5476 23.1843 39.625 23.1477 39.7017C23.1111 39.7783 23.0727 39.8541 23.0327 39.9291C22.9927 40.004 22.951 40.078 22.9077 40.1511C22.8644 40.2242 22.8194 40.2963 22.7729 40.3674C22.7263 40.4385 22.6782 40.5085 22.6286 40.5774C22.5789 40.6464 22.5277 40.7142 22.475 40.7808C22.4224 40.8475 22.3682 40.9129 22.3126 40.9771C22.257 41.0414 22.2 41.1044 22.1416 41.1661C22.0832 41.2278 22.0234 41.2881 21.9623 41.3472C21.9012 41.4062 21.8388 41.4638 21.7751 41.5201C21.7114 41.5763 21.6465 41.6311 21.5804 41.6845C21.5143 41.7379 21.447 41.7897 21.3786 41.8401C21.3101 41.8904 21.2406 41.9392 21.17 41.9865C21.0994 42.0337 21.0277 42.0794 20.9551 42.1235C20.8825 42.1675 20.8089 42.2099 20.7343 42.2507C20.6598 42.2915 20.5844 42.3306 20.5081 42.368C20.4318 42.4054 20.3547 42.4411 20.2768 42.4751C20.199 42.509 20.1204 42.5413 20.0411 42.5718C19.9617 42.6022 19.8818 42.6309 19.8012 42.6578C19.7206 42.6847 19.6395 42.7098 19.5577 42.7331C19.476 42.7564 19.3938 42.7779 19.3112 42.7975C19.2285 42.8171 19.1454 42.8349 19.062 42.8508C18.9785 42.8667 18.8947 42.8807 18.8106 42.8929C18.7967 42.8949 18.7828 42.8972 18.769 42.8998C18.7551 42.9024 18.7414 42.9053 18.7277 42.9085C18.7139 42.9117 18.7003 42.9152 18.6868 42.919C18.6732 42.9229 18.6598 42.927 18.6464 42.9314C18.633 42.9359 18.6198 42.9406 18.6066 42.9456C18.5935 42.9507 18.5804 42.956 18.5675 42.9616C18.5546 42.9672 18.5418 42.9731 18.5291 42.9793C18.5165 42.9854 18.504 42.9919 18.4916 42.9986C18.4793 43.0054 18.4671 43.0124 18.455 43.0197C18.443 43.027 18.4311 43.0345 18.4194 43.0423C18.4077 43.0501 18.3961 43.0582 18.3848 43.0665C18.3734 43.0749 18.3623 43.0835 18.3513 43.0923C18.3403 43.1012 18.3296 43.1102 18.319 43.1195C18.3085 43.1288 18.2981 43.1384 18.288 43.1482C18.2779 43.158 18.268 43.168 18.2583 43.1782C18.2486 43.1884 18.2391 43.1988 18.2299 43.2095C18.2207 43.2201 18.2117 43.231 18.203 43.2421C18.1943 43.2531 18.1858 43.2643 18.1776 43.2758C18.1694 43.2872 18.1614 43.2988 18.1537 43.3106C18.146 43.3224 18.1386 43.3343 18.1314 43.3464C18.1242 43.3585 18.1173 43.3708 18.1107 43.3833C18.1041 43.3957 18.0977 43.4083 18.0917 43.421C18.0856 43.4337 18.0799 43.4465 18.0744 43.4595C18.0689 43.4725 18.0637 43.4856 18.0588 43.4987C18.0539 43.5119 18.0493 43.5252 18.045 43.5387C18.0407 43.5521 18.0367 43.5656 18.033 43.5792C18.0293 43.5928 18.026 43.6064 18.0229 43.6201C18.0198 43.6339 18.017 43.6477 18.0146 43.6615C18.0121 43.6754 18.0099 43.6893 18.0081 43.7033C18.0063 43.7173 18.0047 43.7313 18.0035 43.7453C18.0023 43.7593 18.0014 43.7733 18.0008 43.7874C18.0002 43.8015 18 43.8156 18 43.8296L18 49.619C18 49.6658 18.0012 49.7125 18.0034 49.7592C18.0057 49.8059 18.0092 49.8526 18.0138 49.8991C18.0183 49.9456 18.0241 49.992 18.0309 50.0383C18.0378 50.0845 18.0458 50.1306 18.0549 50.1765C18.064 50.2223 18.0743 50.2679 18.0856 50.3133C18.097 50.3586 18.1095 50.4037 18.123 50.4484C18.1366 50.4932 18.1513 50.5376 18.167 50.5816C18.1828 50.6256 18.1996 50.6692 18.2175 50.7124C18.2354 50.7556 18.2543 50.7984 18.2743 50.8406C18.2943 50.8829 18.3153 50.9247 18.3374 50.9659C18.3594 51.0071 18.3825 51.0478 18.4065 51.0879C18.4305 51.128 18.4555 51.1675 18.4815 51.2064C18.5075 51.2453 18.5344 51.2835 18.5623 51.321C18.5901 51.3586 18.6189 51.3954 18.6485 51.4316C18.6782 51.4678 18.7087 51.5032 18.7401 51.5378C18.7715 51.5724 18.8038 51.6063 18.8368 51.6393C18.8699 51.6724 18.9038 51.7046 18.9384 51.736C18.9731 51.7673 19.0084 51.7979 19.0446 51.8277C19.0807 51.8571 19.1176 51.886 19.1551 51.914C19.1927 51.9417 19.2309 51.9688 19.2698 51.9946C19.3087 52.0205 19.3482 52.0455 19.3883 52.0696C19.4284 52.0938 19.4691 52.1167 19.5103 52.1387C19.5515 52.161 19.5933 52.1818 19.6356 52.2018C19.6778 52.2217 19.7206 52.2408 19.7638 52.2586C19.807 52.2765 19.8506 52.2935 19.8946 52.3092C19.9386 52.325 19.983 52.3396 20.0278 52.3533C20.0725 52.3667 20.1176 52.3792 20.1629 52.3905C20.2083 52.4021 20.2539 52.4122 20.2997 52.4214C20.3456 52.4307 20.3917 52.4384 20.4379 52.4452C20.4842 52.4521 20.5306 52.458 20.5771 52.4625C20.6236 52.467 20.6702 52.4705 20.717 52.4726C20.7637 52.475 20.8104 52.4762 20.8571 52.4762L55.1429 52.4762C55.1896 52.4762 55.2363 52.475 55.283 52.4726C55.3298 52.4705 55.3762 52.467 55.4229 52.4625C55.4696 52.458 55.5161 52.4521 55.5622 52.4452C55.6083 52.4384 55.6545 52.4307 55.7003 52.4214C55.7461 52.4122 55.7917 52.4021 55.8372 52.3905C55.8824 52.3792 55.9274 52.3667 55.9723 52.3533C56.017 52.3396 56.0613 52.325 56.1054 52.3092C56.1494 52.2935 56.1932 52.2765 56.2363 52.2586C56.2795 52.2408 56.322 52.2217 56.3646 52.2018C56.4068 52.1818 56.4485 52.161 56.4896 52.1387C56.531 52.1167 56.5714 52.0938 56.6116 52.0696C56.6518 52.0455 56.6914 52.0205 56.7301 51.9946C56.769 51.9688 56.8071 51.9417 56.8449 51.914C56.8824 51.886 56.9193 51.8571 56.9554 51.8277C56.9914 51.7979 57.0268 51.7673 57.0616 51.736C57.0964 51.7046 57.1301 51.6724 57.1631 51.6393C57.1961 51.6063 57.2286 51.5724 57.2598 51.5378C57.2911 51.5031 57.3217 51.4677 57.3515 51.4316C57.381 51.3954 57.4098 51.3586 57.4378 51.321C57.4655 51.2835 57.4926 51.2453 57.5185 51.2064C57.5443 51.1675 57.5693 51.128 57.5935 51.0879C57.6176 51.0478 57.6405 51.0071 57.6625 50.9659C57.6848 50.9247 57.7057 50.8829 57.7256 50.8406C57.7455 50.7984 57.7646 50.7556 57.7824 50.7124C57.8003 50.6692 57.8173 50.6256 57.833 50.5816C57.8488 50.5376 57.8634 50.4932 57.8771 50.4484C57.8905 50.4037 57.903 50.3586 57.9143 50.3133C57.9259 50.2679 57.936 50.2223 57.9452 50.1765C57.9545 50.1306 57.9622 50.0845 57.969 50.0383C57.9759 49.992 57.9818 49.9456 57.9863 49.8991C57.9908 49.8526 57.9943 49.8059 57.9964 49.7592C57.9988 49.7125 58 49.6658 58 49.619L58 43.8296C58 43.8156 57.9997 43.8015 57.9991 43.7875C57.9985 43.7734 57.9976 43.7594 57.9964 43.7454C57.9949 43.7313 57.9935 43.7174 57.9917 43.7035C57.9899 43.6895 57.9878 43.6756 57.9851 43.6618C57.9827 43.6479 57.9801 43.6341 57.9768 43.6204C57.9735 43.6067 57.9702 43.593 57.9667 43.5795C57.9628 43.5659 57.9589 43.5524 57.9545 43.539C57.95 43.5257 57.9455 43.5124 57.9408 43.4992C57.9357 43.486 57.9307 43.4729 57.925 43.46C57.9196 43.4471 57.914 43.4343 57.9077 43.4215C57.9015 43.4088 57.8952 43.3963 57.8887 43.3839C57.8818 43.3715 57.875 43.3593 57.8679 43.3471C57.8607 43.3351 57.8533 43.3231 57.8455 43.3114C57.8378 43.2996 57.8298 43.288 57.8217 43.2766C57.8134 43.2652 57.8048 43.254 57.7961 43.2429C57.7875 43.2319 57.7786 43.2211 57.7693 43.2105C57.7601 43.1999 57.7506 43.1894 57.7411 43.1792C57.7313 43.169 57.7214 43.159 57.7113 43.1493C57.7012 43.1396 57.6908 43.13 57.6804 43.1207C57.6696 43.1114 57.6589 43.1024 57.6479 43.0935C57.6369 43.0847 57.6259 43.0762 57.6146 43.0679C57.603 43.0596 57.5914 43.0515 57.5798 43.0437C57.5682 43.0359 57.5563 43.0284 57.5443 43.0211C57.5321 43.0138 57.5199 43.0068 57.5077 43.0001C57.4955 42.9934 57.483 42.9869 57.4702 42.9808C57.4574 42.9746 57.4446 42.9687 57.4318 42.9631C57.419 42.9575 57.406 42.9522 57.3929 42.9472C57.3795 42.9422 57.3664 42.9375 57.353 42.9331C57.3396 42.9287 57.3262 42.9246 57.3128 42.9207C57.2991 42.9169 57.2854 42.9134 57.2717 42.9102C57.258 42.907 57.2443 42.9041 57.2307 42.9016C57.2167 42.899 57.203 42.8967 57.189 42.8947C57.1048 42.8825 57.0211 42.8685 56.9375 42.8526C56.8542 42.8366 56.7711 42.8189 56.6884 42.7993C56.6057 42.7796 56.5235 42.7582 56.442 42.7349C56.3601 42.7116 56.2792 42.6865 56.1985 42.6596C56.1179 42.6327 56.0378 42.604 55.9586 42.5735C55.8792 42.5431 55.8006 42.5108 55.7226 42.4769C55.6449 42.4429 55.5679 42.4072 55.4914 42.3698C55.4152 42.3324 55.3399 42.2933 55.2652 42.2525C55.1908 42.2117 55.1173 42.1693 55.0443 42.1252C54.9717 42.0812 54.9 42.0355 54.8295 41.9883C54.7589 41.941 54.6893 41.8922 54.6211 41.8418C54.5527 41.7915 54.4854 41.7396 54.419 41.6863C54.353 41.6329 54.2881 41.5781 54.2244 41.5219C54.1607 41.4656 54.0982 41.408 54.0372 41.349C53.9762 41.2899 53.9164 41.2296 53.858 41.1679C53.7994 41.1062 53.7426 41.0432 53.6869 40.979C53.6312 40.9147 53.5771 40.8493 53.5244 40.7826C53.4717 40.716 53.4208 40.6482 53.3711 40.5792C53.3214 40.5103 53.2732 40.4403 53.2268 40.3692C53.1801 40.2981 53.1351 40.226 53.092 40.1529C53.0485 40.0798 53.0068 40.0058 52.967 39.9309C52.9268 39.8559 52.8884 39.7801 52.8518 39.7035C52.8152 39.6268 52.7804 39.5494 52.747 39.4712C52.714 39.3929 52.6824 39.314 52.6527 39.2344C52.6232 39.1548 52.5952 39.0746 52.569 38.9937C52.5432 38.9128 52.5187 38.8314 52.4964 38.7495C52.4738 38.6676 52.4533 38.5851 52.4345 38.5023C52.4158 38.4194 52.3988 38.3362 52.3836 38.2526C52.3685 38.169 52.3554 38.085 52.344 38.0008C52.3327 37.9166 52.3232 37.8322 52.3158 37.7476C52.3083 37.6629 52.3024 37.5782 52.2985 37.4933C52.2946 37.4084 52.2929 37.3235 52.2929 37.2385C52.2929 37.1536 52.2946 37.0687 52.2985 36.9838C52.3024 36.8989 52.3083 36.8141 52.3158 36.7295C52.3232 36.6449 52.3327 36.5604 52.344 36.4762C52.3554 36.3921 52.3685 36.3081 52.3836 36.2245C52.3988 36.1409 52.4158 36.0577 52.4345 35.9748C52.4533 35.8919 52.4738 35.8095 52.4964 35.7276C52.5187 35.6457 52.5432 35.5643 52.569 35.4834C52.5952 35.4025 52.6232 35.3223 52.6527 35.2427C52.6824 35.1631 52.714 35.0842 52.747 35.006C52.7804 34.9277 52.8152 34.8503 52.8518 34.7736C52.8884 34.697 52.9268 34.6212 52.967 34.5462C53.0068 34.4713 53.0485 34.3973 53.092 34.3242C53.1351 34.2511 53.1801 34.179 53.2268 34.1079C53.2732 34.0368 53.3214 33.9668 53.3711 33.8979C53.4208 33.8289 53.4717 33.7611 53.5244 33.6945C53.5771 33.6278 53.6312 33.5624 53.6869 33.4982C53.7426 33.4339 53.7994 33.3709 53.858 33.3092C53.9164 33.2475 53.9762 33.1872 54.0372 33.1281C54.0982 33.0691 54.1607 33.0115 54.2244 32.9552C54.2881 32.899 54.353 32.8442 54.419 32.7908C54.4854 32.7374 54.5527 32.6856 54.6211 32.6352C54.6893 32.5849 54.7589 32.5361 54.8295 32.4888C54.9 32.4416 54.9717 32.3959 55.0443 32.3518C55.1173 32.3078 55.1908 32.2654 55.2652 32.2246C55.3399 32.1838 55.4152 32.1447 55.4914 32.1073C55.5679 32.0699 55.6449 32.0342 55.7226 32.0002C55.8006 31.9663 55.8792 31.934 55.9586 31.9035C56.0378 31.8731 56.1179 31.8444 56.1985 31.8175C56.2792 31.7906 56.3601 31.7655 56.442 31.7422C56.5235 31.7189 56.6057 31.6974 56.6884 31.6778C56.7711 31.6582 56.8542 31.6404 56.9375 31.6245C57.0211 31.6086 57.1048 31.5946 57.189 31.5824L57.189 31.5806ZM28.4762 49.619L26.5714 49.619L26.5714 44.8571L28.4762 44.8571L28.4762 49.619ZM28.4762 42.9524L26.5714 42.9524L26.5714 38.1905L28.4762 38.1905L28.4762 42.9524ZM28.4762 36.2857L26.5714 36.2857L26.5714 31.5238L28.4762 31.5238L28.4762 36.2857ZM28.4762 29.619L26.5714 29.619L26.5714 24.8571L28.4762 24.8571L28.4762 29.619ZM46.5714 37.4353L41.8095 37.4353L41.8095 39.34L46.5714 39.34L46.5714 41.2448L41.8095 41.2448L41.8095 45.0543L39.9048 45.0543L39.9048 41.2448L35.1429 41.2448L35.1429 39.34L39.9048 39.34L39.9048 37.4353L35.1429 37.4353L35.1429 35.5305L39.9048 35.5305L39.9048 35.2037L39.5099 34.8089L35.4693 30.7686L36.8151 29.4214L40.8558 33.4621L44.8965 29.4214L46.2432 30.7682L42.2039 34.8089L41.8095 35.2032L41.8095 35.5301L46.5714 35.5301L46.5714 37.4353Z"   fill="#FFFFFF" ></path></svg>