<svg xmlns="http://www.w3.org/2000/svg" xmlns:xlink="http://www.w3.org/1999/xlink" width="75" height="75" viewBox="0 0 75 75" fill="none"><path d="M11.7188 0L63.2812 0C71.0938 0 75 3.90625 75 11.7187L75 63.2812C75 71.0938 71.0938 75 63.2812 75L11.7188 75C3.90625 75 0 71.0938 0 63.2812L0 11.7187C0 3.90625 3.90625 0 11.7188 0ZM51.2988 27.7793L23.7012 27.7793C23.6775 27.7796 23.6539 27.7805 23.6303 27.7819C23.6066 27.7833 23.583 27.7854 23.5595 27.7879C23.536 27.7905 23.5126 27.7936 23.4892 27.7974C23.4658 27.8011 23.4426 27.8054 23.4194 27.8103C23.3963 27.8152 23.3733 27.8206 23.3503 27.8266C23.3274 27.8325 23.3047 27.8391 23.2822 27.8462C23.2596 27.8533 23.2372 27.861 23.215 27.8692C23.1928 27.8773 23.1708 27.886 23.1491 27.8953C23.1273 27.9046 23.1058 27.9144 23.0845 27.9247C23.0632 27.935 23.0421 27.9458 23.0213 27.9571C23.0006 27.9685 22.9801 27.9803 22.9599 27.9926C22.9397 28.005 22.9198 28.0178 22.9003 28.0311C22.8807 28.0444 22.8615 28.0582 22.8426 28.0725C22.8237 28.0867 22.8051 28.1014 22.787 28.1166C22.7688 28.1317 22.751 28.1473 22.7336 28.1633C22.7161 28.1793 22.6991 28.1957 22.6825 28.2126C22.6659 28.2294 22.6497 28.2467 22.634 28.2643C22.6182 28.282 22.6028 28.3 22.588 28.3184C22.573 28.3367 22.5586 28.3554 22.5446 28.3745C22.5306 28.3936 22.5171 28.4131 22.5041 28.4328C22.4911 28.4525 22.4785 28.4726 22.4665 28.493C22.4544 28.5133 22.4429 28.534 22.4318 28.5549C22.4208 28.5758 22.4102 28.597 22.4002 28.6184C22.3901 28.6399 22.3807 28.6616 22.3717 28.6835C22.3627 28.7054 22.3543 28.7274 22.3464 28.7498C22.3386 28.7721 22.3312 28.7946 22.3244 28.8172C22.3176 28.8398 22.3114 28.8627 22.3058 28.8857C22.3 28.9086 22.2949 28.9318 22.2904 28.955C22.2858 28.9782 22.2819 29.0015 22.2784 29.0249C22.2751 29.0483 22.2722 29.0718 22.2699 29.0954C22.2677 29.1189 22.266 29.1425 22.2649 29.1661C22.2638 29.1898 22.2632 29.2134 22.2633 29.2371L22.2633 51.0035C22.2632 51.0272 22.2637 51.0507 22.2648 51.0744C22.2659 51.0981 22.2676 51.1216 22.2699 51.1452C22.2721 51.1687 22.2749 51.1923 22.2784 51.2156C22.2817 51.239 22.2857 51.2623 22.2902 51.2856C22.2948 51.3088 22.2999 51.3319 22.3055 51.3549C22.3112 51.3778 22.3174 51.4006 22.3242 51.4233C22.331 51.4459 22.3384 51.4684 22.3462 51.4907C22.354 51.5131 22.3625 51.5351 22.3715 51.557C22.3804 51.5789 22.3898 51.6005 22.3999 51.622C22.4099 51.6434 22.4205 51.6646 22.4315 51.6855C22.4426 51.7064 22.4541 51.7271 22.4662 51.7474C22.4782 51.7677 22.4908 51.7878 22.5038 51.8075C22.5168 51.8272 22.5304 51.8466 22.5444 51.8657C22.5584 51.8848 22.5728 51.9035 22.5877 51.9219C22.6026 51.9403 22.618 51.9582 22.6337 51.9759C22.6495 51.9935 22.6657 52.0107 22.6823 52.0275C22.6989 52.0443 22.716 52.0608 22.7334 52.0767C22.7509 52.0928 22.7687 52.1083 22.7868 52.1235C22.805 52.1386 22.8235 52.1533 22.8425 52.1675C22.8614 52.1817 22.8806 52.1954 22.9002 52.2087C22.9198 52.222 22.9397 52.2348 22.9598 52.2471C22.98 52.2594 23.0005 52.2712 23.0213 52.2825C23.0421 52.2938 23.0631 52.3046 23.0844 52.3148C23.1057 52.3252 23.1273 52.3349 23.1491 52.3441C23.1708 52.3533 23.1928 52.362 23.215 52.3701C23.2372 52.3783 23.2596 52.3859 23.2822 52.393C23.3048 52.4 23.3275 52.4065 23.3504 52.4125C23.3733 52.4184 23.3963 52.4238 23.4195 52.4286C23.4426 52.4334 23.4659 52.4377 23.4893 52.4413C23.5126 52.4451 23.5361 52.4481 23.5596 52.4507C23.5831 52.4533 23.6066 52.4552 23.6303 52.4566C23.6539 52.458 23.6775 52.4588 23.7012 52.459L51.2988 52.459C51.3225 52.4587 51.3461 52.4578 51.3698 52.4564C51.3935 52.4549 51.4171 52.4529 51.4406 52.4503C51.4641 52.4478 51.4876 52.4445 51.511 52.4408C51.5344 52.4371 51.5577 52.4328 51.5809 52.4279C51.604 52.423 51.6271 52.4176 51.65 52.4116C51.673 52.4056 51.6957 52.3991 51.7183 52.392C51.7408 52.3849 51.7633 52.3772 51.7854 52.369C51.8076 52.3608 51.8297 52.352 51.8515 52.3427C51.8733 52.3334 51.8949 52.3236 51.9162 52.3133C51.9375 52.303 51.9585 52.2921 51.9793 52.2808C52 52.2694 52.0206 52.2576 52.0408 52.2452C52.061 52.2328 52.0809 52.22 52.1005 52.2067C52.12 52.1933 52.1393 52.1795 52.1582 52.1652C52.1771 52.1509 52.1956 52.1362 52.2138 52.121C52.232 52.1059 52.2498 52.0903 52.2672 52.0742C52.2847 52.0582 52.3017 52.0417 52.3183 52.0249C52.3349 52.0079 52.3512 51.9907 52.3669 51.973C52.3827 51.9554 52.398 51.9373 52.4129 51.9189C52.4278 51.9005 52.4422 51.8817 52.4562 51.8626C52.4702 51.8434 52.4837 51.824 52.4967 51.8043C52.5097 51.7844 52.5223 51.7643 52.5344 51.744C52.5464 51.7235 52.5579 51.7029 52.569 51.6819C52.5801 51.661 52.5905 51.6398 52.6006 51.6183C52.6106 51.5968 52.62 51.5752 52.629 51.5532C52.6379 51.5313 52.6463 51.5092 52.6542 51.4868C52.662 51.4645 52.6693 51.4419 52.6761 51.4192C52.6829 51.3965 52.6891 51.3737 52.6948 51.3507C52.7004 51.3277 52.7055 51.3045 52.71 51.2813C52.7145 51.258 52.7185 51.2347 52.7219 51.2112C52.7252 51.1878 52.728 51.1643 52.7303 51.1407C52.7325 51.1171 52.7342 51.0935 52.7353 51.0699C52.7364 51.0462 52.7368 51.0225 52.7367 50.9988L52.7367 29.2371C52.7368 29.2134 52.7364 29.1898 52.7353 29.1661C52.7342 29.1425 52.7325 29.1189 52.7303 29.0953C52.728 29.0717 52.7252 29.0482 52.7219 29.0248C52.7185 29.0014 52.7145 28.978 52.71 28.9548C52.7054 28.9316 52.7004 28.9085 52.6948 28.8855C52.6891 28.8625 52.6829 28.8396 52.6761 28.817C52.6693 28.7943 52.662 28.7718 52.6542 28.7495C52.6463 28.7271 52.6379 28.705 52.6289 28.6831C52.62 28.6612 52.6105 28.6395 52.6005 28.6181C52.5905 28.5966 52.58 28.5754 52.5689 28.5544C52.5579 28.5335 52.5464 28.5129 52.5343 28.4925C52.5222 28.4721 52.5097 28.452 52.4966 28.4322C52.4836 28.4125 52.4701 28.3931 52.4561 28.3739C52.4421 28.3548 52.4276 28.3362 52.4128 28.3178C52.3979 28.2994 52.3825 28.2813 52.3668 28.2636C52.351 28.246 52.3348 28.2288 52.3181 28.2119C52.3015 28.1951 52.2845 28.1787 52.2671 28.1626C52.2497 28.1466 52.2319 28.131 52.2137 28.1158C52.1955 28.1007 52.1769 28.086 52.158 28.0717C52.1391 28.0575 52.1199 28.0437 52.1003 28.0304C52.0808 28.0171 52.0608 28.0043 52.0406 27.992C52.0204 27.9796 51.9999 27.9678 51.9791 27.9565C51.9584 27.9451 51.9373 27.9343 51.916 27.924C51.8947 27.9137 51.8731 27.9039 51.8513 27.8947C51.8295 27.8854 51.8075 27.8767 51.7853 27.8686C51.7631 27.8604 51.7407 27.8528 51.7181 27.8457C51.6955 27.8386 51.6728 27.8321 51.6499 27.8261C51.627 27.8202 51.604 27.8147 51.5807 27.8099C51.5575 27.8051 51.5343 27.8008 51.5109 27.7971C51.4876 27.7934 51.4641 27.7903 51.4406 27.7877C51.417 27.7852 51.3935 27.7832 51.3698 27.7818C51.3461 27.7804 51.3225 27.7795 51.2988 27.7793ZM42.2355 41.4574C42.2583 41.4551 42.281 41.4535 42.3038 41.4524C42.3266 41.4513 42.3494 41.4509 42.3722 41.451C42.395 41.4511 42.4178 41.4518 42.4406 41.4531C42.4634 41.4544 42.4861 41.4563 42.5088 41.4588C42.5314 41.4613 42.5541 41.4644 42.5766 41.4681C42.599 41.4718 42.6215 41.476 42.6438 41.4809C42.6661 41.4857 42.6883 41.4911 42.7103 41.4971C42.7323 41.5031 42.7541 41.5097 42.7758 41.5168C42.7975 41.524 42.8189 41.5317 42.8402 41.54C42.8615 41.5482 42.8825 41.557 42.9033 41.5664C42.9241 41.5757 42.9447 41.5856 42.965 41.5961C42.9853 41.6065 43.0052 41.6174 43.025 41.6289C43.0447 41.6404 43.0641 41.6524 43.0832 41.6648C43.1023 41.6774 43.121 41.6903 43.1395 41.7038C43.1579 41.7173 43.176 41.7312 43.1936 41.7456C43.2113 41.7601 43.2286 41.7749 43.2456 41.7902C43.2625 41.8055 43.279 41.8213 43.2951 41.8375C43.3111 41.8537 43.3268 41.8702 43.342 41.8872C43.3573 41.9042 43.372 41.9216 43.3863 41.9393C43.4006 41.9571 43.4145 41.9752 43.4279 41.9937C43.4413 42.0122 43.4542 42.031 43.4665 42.0502C43.4789 42.0694 43.4908 42.0888 43.5022 42.1086C43.5135 42.1284 43.5244 42.1485 43.5347 42.1687C43.545 42.1891 43.5549 42.2097 43.5641 42.2306C43.5733 42.2514 43.582 42.2725 43.5902 42.2938C43.5983 42.3152 43.6059 42.3366 43.6129 42.3584C43.62 42.38 43.6264 42.4019 43.6323 42.424C43.6382 42.446 43.6435 42.4682 43.6482 42.4906C43.653 42.5129 43.6571 42.5353 43.6607 42.5578C43.6643 42.5804 43.6672 42.603 43.6696 42.6257C43.672 42.6483 43.6737 42.6711 43.675 42.6939C43.6761 42.7167 43.6767 42.7395 43.6767 42.7623C43.6767 42.7851 43.6761 42.8079 43.675 42.8307C43.6737 42.8535 43.672 42.8762 43.6696 42.8989C43.6672 42.9216 43.6643 42.9442 43.6607 42.9668C43.6571 42.9893 43.653 43.0117 43.6482 43.034C43.6435 43.0564 43.6382 43.0786 43.6323 43.1006C43.6264 43.1226 43.62 43.1445 43.6129 43.1662C43.6059 43.1879 43.5983 43.2094 43.5902 43.2308C43.582 43.2521 43.5733 43.2731 43.5641 43.294C43.5549 43.3148 43.545 43.3355 43.5347 43.3558C43.5244 43.3761 43.5135 43.3962 43.5022 43.416C43.4908 43.4358 43.4789 43.4552 43.4665 43.4744C43.4542 43.4935 43.4413 43.5124 43.4279 43.5308C43.4145 43.5494 43.4006 43.5674 43.3863 43.5852C43.372 43.603 43.3573 43.6204 43.342 43.6374C43.3268 43.6544 43.3111 43.6709 43.2951 43.6871C43.279 43.7033 43.2625 43.7191 43.2456 43.7344C43.2286 43.7497 43.2113 43.7645 43.1936 43.779C43.176 43.7934 43.1579 43.8073 43.1395 43.8208C43.121 43.8343 43.1023 43.8472 43.0832 43.8597C43.0641 43.8722 43.0447 43.8841 43.025 43.8956C43.0053 43.9071 42.9853 43.9181 42.965 43.9285C42.9447 43.939 42.9241 43.9489 42.9033 43.9582C42.8825 43.9676 42.8615 43.9764 42.8402 43.9846C42.8189 43.9929 42.7975 44.0006 42.7758 44.0078C42.7541 44.0149 42.7323 44.0215 42.7103 44.0275C42.6883 44.0335 42.6661 44.0389 42.6438 44.0437C42.6215 44.0486 42.599 44.0528 42.5766 44.0565C42.5541 44.0602 42.5314 44.0633 42.5088 44.0658C42.4861 44.0683 42.4634 44.0702 42.4406 44.0715C42.4178 44.0727 42.395 44.0735 42.3722 44.0736C42.3494 44.0737 42.3266 44.0733 42.3038 44.0722C42.281 44.0711 42.2583 44.0695 42.2355 44.0672L38.7902 44.0672L38.7902 47.2312C38.7928 47.2539 38.7947 47.2765 38.7961 47.2992C38.7975 47.3219 38.7982 47.3446 38.7984 47.3674C38.7986 47.3902 38.7981 47.4129 38.7971 47.4357C38.7961 47.4584 38.7945 47.4811 38.7922 47.5037C38.79 47.5263 38.7872 47.5489 38.7838 47.5714C38.7803 47.5939 38.7764 47.6163 38.7718 47.6385C38.7672 47.6609 38.762 47.683 38.7562 47.705C38.7505 47.727 38.7442 47.7488 38.7373 47.7705C38.7303 47.7922 38.7229 47.8137 38.7149 47.835C38.7068 47.8563 38.6982 47.8773 38.6891 47.8982C38.6799 47.9191 38.6703 47.9396 38.6601 47.9599C38.6498 47.9802 38.6391 48.0003 38.6278 48.0201C38.6165 48.0398 38.6047 48.0592 38.5924 48.0784C38.5801 48.0975 38.5673 48.1163 38.554 48.1348C38.5408 48.1533 38.527 48.1714 38.5127 48.1891C38.4984 48.2068 38.4838 48.2242 38.4686 48.2412C38.4535 48.2581 38.4379 48.2747 38.4218 48.2908C38.4058 48.307 38.3894 48.3227 38.3725 48.338C38.3556 48.3533 38.3384 48.3681 38.3208 48.3825C38.3031 48.3968 38.2852 48.4107 38.2668 48.4241C38.2484 48.4375 38.2296 48.4505 38.2106 48.463C38.1916 48.4754 38.1722 48.4873 38.1525 48.4988C38.1328 48.5102 38.1129 48.5211 38.0927 48.5314C38.0724 48.5418 38.0519 48.5517 38.0312 48.561C38.0104 48.5703 37.9893 48.579 37.9682 48.5872C37.9469 48.5954 37.9255 48.603 37.9039 48.6101C37.8823 48.6171 37.8604 48.6236 37.8385 48.6296C37.8165 48.6355 37.7944 48.6408 37.7721 48.6455C37.7499 48.6503 37.7276 48.6545 37.7051 48.6581C37.6826 48.6617 37.66 48.6646 37.6374 48.667C37.6148 48.6694 37.5921 48.6712 37.5694 48.6724C37.5467 48.6736 37.5239 48.6742 37.5012 48.6742C37.4784 48.6742 37.4557 48.6736 37.433 48.6724C37.4102 48.6712 37.3876 48.6694 37.3649 48.667C37.3423 48.6646 37.3198 48.6617 37.2973 48.6581C37.2748 48.6545 37.2524 48.6503 37.2302 48.6455C37.208 48.6408 37.1859 48.6355 37.1639 48.6296C37.1419 48.6236 37.1201 48.6171 37.0985 48.6101C37.0769 48.603 37.0554 48.5954 37.0342 48.5872C37.013 48.579 36.992 48.5703 36.9712 48.561C36.9505 48.5517 36.93 48.5418 36.9097 48.5314C36.8895 48.5211 36.8695 48.5102 36.8498 48.4988C36.8301 48.4873 36.8108 48.4754 36.7917 48.463C36.7727 48.4505 36.754 48.4375 36.7356 48.4241C36.7172 48.4107 36.6992 48.3968 36.6816 48.3825C36.6639 48.3681 36.6467 48.3533 36.6299 48.338C36.613 48.3227 36.5966 48.307 36.5805 48.2908C36.5645 48.2747 36.5489 48.2581 36.5337 48.2412C36.5186 48.2242 36.5039 48.2068 36.4896 48.1891C36.4753 48.1714 36.4616 48.1533 36.4483 48.1348C36.4351 48.1163 36.4222 48.0975 36.4099 48.0784C36.3976 48.0592 36.3858 48.0398 36.3746 48.0201C36.3633 48.0003 36.3525 47.9802 36.3423 47.9599C36.3321 47.9396 36.3224 47.9191 36.3133 47.8982C36.3041 47.8773 36.2955 47.8563 36.2875 47.835C36.2795 47.8137 36.272 47.7922 36.2651 47.7705C36.2582 47.7488 36.2519 47.727 36.2461 47.705C36.2403 47.683 36.2352 47.6609 36.2306 47.6385C36.226 47.6163 36.222 47.5939 36.2186 47.5714C36.2151 47.5489 36.2123 47.5263 36.2101 47.5037C36.2079 47.4811 36.2062 47.4584 36.2052 47.4357C36.2042 47.4129 36.2038 47.3902 36.204 47.3674C36.2041 47.3446 36.2049 47.3219 36.2062 47.2992C36.2076 47.2765 36.2095 47.2539 36.2121 47.2312L36.2121 44.0719L32.7785 44.0719C32.7558 44.0741 32.733 44.0757 32.7102 44.0768C32.6874 44.0779 32.6646 44.0784 32.6418 44.0783C32.6189 44.0782 32.5961 44.0774 32.5733 44.0761C32.5505 44.0749 32.5277 44.073 32.505 44.0705C32.4823 44.0679 32.4597 44.0648 32.4372 44.0612C32.4146 44.0575 32.3922 44.0533 32.3699 44.0484C32.3476 44.0435 32.3254 44.0381 32.3034 44.0321C32.2813 44.0261 32.2595 44.0195 32.2378 44.0124C32.2161 44.0052 32.1946 43.9975 32.1733 43.9893C32.152 43.981 32.131 43.9722 32.1102 43.9628C32.0893 43.9534 32.0687 43.9435 32.0484 43.9331C32.0281 43.9226 32.0081 43.9117 31.9884 43.9002C31.9687 43.8887 31.9493 43.8768 31.9302 43.8642C31.911 43.8517 31.8922 43.8387 31.8738 43.8253C31.8554 43.8117 31.8373 43.7978 31.8196 43.7834C31.8019 43.7689 31.7845 43.7541 31.7676 43.7388C31.7507 43.7235 31.7342 43.7076 31.7181 43.6914C31.702 43.6753 31.6863 43.6587 31.6711 43.6416C31.6559 43.6246 31.6411 43.6073 31.6267 43.5895C31.6124 43.5717 31.5986 43.5536 31.5852 43.5351C31.5718 43.5165 31.5589 43.4977 31.5465 43.4785C31.5341 43.4593 31.5222 43.4399 31.5108 43.4201C31.4994 43.4003 31.4886 43.3802 31.4782 43.3598C31.4679 43.3394 31.4581 43.3189 31.4488 43.298C31.4396 43.2771 31.4309 43.256 31.4227 43.2347C31.4146 43.2134 31.407 43.1919 31.3999 43.1701C31.3928 43.1484 31.3864 43.1265 31.3805 43.1044C31.3746 43.0824 31.3693 43.0602 31.3646 43.0378C31.3598 43.0155 31.3557 42.993 31.3521 42.9705C31.3485 42.9479 31.3456 42.9253 31.3433 42.9026C31.3408 42.8798 31.3391 42.8571 31.3379 42.8343C31.3367 42.8115 31.3361 42.7887 31.3361 42.7658C31.3361 42.743 31.3367 42.7201 31.3379 42.6973C31.3391 42.6746 31.3408 42.6518 31.3433 42.6291C31.3456 42.6064 31.3485 42.5837 31.3521 42.5612C31.3557 42.5386 31.3598 42.5161 31.3646 42.4938C31.3693 42.4715 31.3746 42.4493 31.3805 42.4272C31.3864 42.4052 31.3928 42.3833 31.4 42.3615C31.407 42.3398 31.4146 42.3182 31.4227 42.2969C31.4309 42.2756 31.4396 42.2545 31.4488 42.2336C31.4581 42.2128 31.4679 42.1922 31.4782 42.1718C31.4886 42.1514 31.4994 42.1313 31.5108 42.1115C31.5222 42.0918 31.5341 42.0723 31.5465 42.0531C31.5589 42.0339 31.5718 42.0151 31.5852 41.9965C31.5986 41.978 31.6124 41.9599 31.6267 41.9421C31.6411 41.9243 31.6559 41.907 31.6711 41.89C31.6863 41.8729 31.702 41.8564 31.7181 41.8402C31.7342 41.824 31.7507 41.8082 31.7676 41.7929C31.7845 41.7776 31.8019 41.7627 31.8196 41.7483C31.8373 41.7338 31.8554 41.7199 31.8738 41.7064C31.8922 41.693 31.911 41.6799 31.9302 41.6674C31.9493 41.6549 31.9687 41.6429 31.9884 41.6314C32.0081 41.6199 32.0281 41.609 32.0484 41.5986C32.0687 41.5881 32.0893 41.5782 32.1102 41.5688C32.131 41.5594 32.152 41.5507 32.1733 41.5424C32.1946 41.5341 32.2161 41.5264 32.2378 41.5192C32.2595 41.5121 32.2813 41.5055 32.3034 41.4995C32.3254 41.4935 32.3476 41.4881 32.3699 41.4833C32.3922 41.4784 32.4146 41.4741 32.4372 41.4705C32.4597 41.4668 32.4823 41.4637 32.505 41.4611C32.5277 41.4587 32.5505 41.4568 32.5733 41.4555C32.5961 41.4542 32.6189 41.4535 32.6418 41.4533C32.6646 41.4532 32.6874 41.4537 32.7102 41.4548C32.733 41.4559 32.7558 41.4575 32.7785 41.4598L36.2168 41.4598L36.2168 39.5848L32.7773 39.5848C32.7546 39.587 32.7319 39.5886 32.709 39.5897C32.6862 39.5908 32.6634 39.5913 32.6406 39.5912C32.6177 39.5911 32.5949 39.5903 32.5721 39.589C32.5493 39.5878 32.5266 39.5859 32.5039 39.5834C32.4812 39.5808 32.4585 39.5777 32.436 39.5741C32.4135 39.5704 32.3911 39.5662 32.3687 39.5612C32.3464 39.5564 32.3243 39.551 32.3022 39.545C32.2802 39.539 32.2584 39.5324 32.2366 39.5253C32.2149 39.5181 32.1935 39.5104 32.1721 39.5021C32.1508 39.4939 32.1298 39.4851 32.109 39.4757C32.0881 39.4663 32.0676 39.4564 32.0473 39.446C32.027 39.4355 32.0069 39.4246 31.9872 39.4131C31.9675 39.4016 31.9481 39.3896 31.929 39.3771C31.9099 39.3646 31.891 39.3516 31.8727 39.3381C31.8542 39.3246 31.8361 39.3107 31.8185 39.2963C31.8007 39.2818 31.7834 39.267 31.7665 39.2517C31.7495 39.2363 31.7331 39.2205 31.7169 39.2043C31.7008 39.1882 31.6852 39.1716 31.6699 39.1545C31.6547 39.1375 31.6399 39.1202 31.6255 39.1024C31.6113 39.0846 31.5974 39.0665 31.584 39.048C31.5706 39.0294 31.5577 39.0106 31.5453 38.9914C31.533 38.9722 31.521 38.9528 31.5096 38.933C31.4982 38.9131 31.4874 38.8931 31.4771 38.8727C31.4667 38.8523 31.4569 38.8318 31.4476 38.8109C31.4384 38.79 31.4297 38.7689 31.4216 38.7476C31.4134 38.7263 31.4058 38.7048 31.3988 38.683C31.3917 38.6612 31.3853 38.6393 31.3794 38.6173C31.3734 38.5953 31.3682 38.5731 31.3634 38.5507C31.3586 38.5284 31.3545 38.5059 31.351 38.4833C31.3474 38.4608 31.3445 38.4382 31.3421 38.4154C31.3397 38.3927 31.3379 38.37 31.3367 38.3472C31.3355 38.3244 31.3349 38.3016 31.3349 38.2787C31.3349 38.2559 31.3355 38.233 31.3367 38.2102C31.3379 38.1874 31.3397 38.1647 31.3421 38.142C31.3444 38.1193 31.3474 38.0966 31.351 38.0741C31.3545 38.0515 31.3586 38.029 31.3634 38.0067C31.3682 37.9843 31.3734 37.9622 31.3794 37.9401C31.3853 37.9181 31.3917 37.8962 31.3988 37.8744C31.4058 37.8527 31.4134 37.8311 31.4216 37.8098C31.4297 37.7885 31.4384 37.7674 31.4476 37.7465C31.4569 37.7257 31.4667 37.7051 31.4771 37.6847C31.4874 37.6643 31.4982 37.6442 31.5097 37.6244C31.521 37.6047 31.533 37.5852 31.5453 37.566C31.5577 37.5468 31.5706 37.528 31.584 37.5094C31.5974 37.4909 31.6113 37.4728 31.6255 37.455C31.6399 37.4372 31.6547 37.4199 31.6699 37.4029C31.6852 37.3858 31.7008 37.3693 31.7169 37.3531C31.7331 37.3369 31.7495 37.3211 31.7665 37.3058C31.7834 37.2904 31.8007 37.2756 31.8185 37.2612C31.8361 37.2467 31.8542 37.2328 31.8727 37.2193C31.891 37.2058 31.9099 37.1928 31.929 37.1803C31.9481 37.1678 31.9675 37.1558 31.9872 37.1443C32.0069 37.1328 32.027 37.1219 32.0473 37.1114C32.0676 37.101 32.0881 37.0911 32.109 37.0817C32.1298 37.0724 32.1508 37.0635 32.1721 37.0553C32.1935 37.047 32.2149 37.0393 32.2366 37.0321C32.2584 37.025 32.2802 37.0184 32.3022 37.0124C32.3243 37.0064 32.3464 37.001 32.3687 36.9962C32.3911 36.9913 32.4135 36.987 32.436 36.9833C32.4585 36.9797 32.4812 36.9766 32.5039 36.9741C32.5266 36.9715 32.5493 36.9696 32.5721 36.9684C32.5949 36.9671 32.6177 36.9664 32.6406 36.9662C32.6634 36.9661 32.6862 36.9666 32.709 36.9677C32.7319 36.9688 32.7546 36.9704 32.7773 36.9726L34.6805 36.9726L33.9773 35.6062L33.1441 33.9891C33.1328 33.9696 33.1219 33.9498 33.1115 33.9298C33.101 33.9098 33.0911 33.8895 33.0817 33.8691C33.0722 33.8486 33.0633 33.8279 33.0549 33.807C33.0464 33.786 33.0385 33.7649 33.031 33.7436C33.0236 33.7223 33.0166 33.7008 33.0103 33.6792C33.0039 33.6576 32.998 33.6358 32.9927 33.6139C32.9873 33.592 32.9825 33.57 32.9782 33.5478C32.9739 33.5257 32.9701 33.5034 32.9669 33.481C32.9637 33.4587 32.961 33.4364 32.9589 33.4139C32.9568 33.3914 32.9552 33.3689 32.9541 33.3464C32.953 33.3239 32.9525 33.3013 32.9525 33.2788C32.9526 33.2562 32.9531 33.2336 32.9542 33.2111C32.9553 33.1886 32.957 33.1661 32.9592 33.1436C32.9614 33.1211 32.9641 33.0988 32.9674 33.0765C32.9707 33.0541 32.9745 33.0319 32.9788 33.0098C32.9832 32.9876 32.9881 32.9656 32.9934 32.9437C32.9988 32.9218 33.0048 32.9 33.0112 32.8784C33.0177 32.8568 33.0246 32.8353 33.0321 32.814C33.0396 32.7928 33.0476 32.7717 33.0561 32.7508C33.0646 32.7299 33.0736 32.7091 33.0831 32.6887C33.0926 32.6683 33.1025 32.6481 33.113 32.6281C33.1235 32.6081 33.1344 32.5884 33.1458 32.5689C33.1572 32.5494 33.1691 32.5302 33.1814 32.5114C33.1938 32.4925 33.2065 32.4739 33.2198 32.4557C33.2331 32.4373 33.2467 32.4194 33.2608 32.4018C33.2749 32.3842 33.2894 32.3669 33.3043 32.35C33.3193 32.333 33.3346 32.3166 33.3503 32.3004C33.3661 32.2842 33.3821 32.2684 33.3986 32.253C33.4151 32.2375 33.4319 32.2225 33.4491 32.208C33.4663 32.1934 33.4839 32.1792 33.5018 32.1655C33.5197 32.1517 33.5379 32.1384 33.5564 32.1256C33.575 32.1127 33.5938 32.1002 33.6129 32.0883C33.6333 32.079 33.6539 32.0703 33.6747 32.0621C33.6956 32.0539 33.7166 32.0462 33.7378 32.0391C33.7589 32.032 33.7803 32.0253 33.8019 32.0191C33.8234 32.0131 33.8451 32.0074 33.8668 32.0024C33.8886 31.9973 33.9105 31.9928 33.9326 31.9888C33.9546 31.9848 33.9768 31.9813 33.999 31.9785C34.0211 31.9756 34.0433 31.9733 34.0657 31.9715C34.088 31.9696 34.1104 31.9684 34.1327 31.9676C34.155 31.967 34.1774 31.9668 34.1998 31.9672C34.2222 31.9676 34.2445 31.9685 34.2669 31.97C34.2892 31.9715 34.3115 31.9735 34.3337 31.9761C34.3559 31.9786 34.3781 31.9818 34.4002 31.9854C34.4222 31.9892 34.4442 31.9934 34.4661 31.9981C34.488 32.0029 34.5097 32.0081 34.5313 32.0139C34.553 32.0197 34.5744 32.0261 34.5957 32.033C34.617 32.0399 34.6381 32.0473 34.6591 32.0552C34.68 32.0631 34.7008 32.0715 34.7213 32.0804C34.7418 32.0893 34.7621 32.0987 34.7821 32.1086C34.8022 32.1185 34.822 32.1289 34.8416 32.1398C34.8612 32.1507 34.8804 32.1622 34.8994 32.174C34.9184 32.1858 34.9371 32.1981 34.9555 32.2109C34.9739 32.2236 34.9919 32.2368 35.0097 32.2505C35.0274 32.2641 35.0448 32.2782 35.0618 32.2927C35.0789 32.3072 35.0956 32.3221 35.1119 32.3374C35.1283 32.3527 35.1442 32.3684 35.1597 32.3845C35.1753 32.4007 35.1905 32.4171 35.2052 32.434C35.2199 32.4508 35.2343 32.468 35.2481 32.4855C35.262 32.503 35.2755 32.5209 35.2885 32.5392C35.3015 32.5574 35.3141 32.5759 35.3262 32.5947C35.3383 32.6136 35.3499 32.6326 35.3611 32.652C35.3722 32.6714 35.3829 32.6911 35.3931 32.711C35.4033 32.7309 35.413 32.751 35.4223 32.7715L36.0914 34.0687L36.1289 34.1309L36.8191 35.4644L36.8262 35.4644L37.5293 36.8168L38.2324 35.4644L38.2395 35.4644L38.9297 34.1309C38.9385 34.1085 38.9503 34.0879 38.9648 34.0687L39.634 32.7691C39.6431 32.7487 39.6528 32.7285 39.663 32.7085C39.6732 32.6885 39.6839 32.6688 39.695 32.6493C39.7062 32.6299 39.7178 32.6107 39.7299 32.5918C39.7419 32.573 39.7545 32.5544 39.7676 32.5362C39.7805 32.5179 39.794 32.5 39.8079 32.4823C39.8218 32.4647 39.8361 32.4475 39.8509 32.4306C39.8656 32.4137 39.8807 32.3972 39.8963 32.381C39.9119 32.3649 39.9279 32.3492 39.9442 32.3338C39.9606 32.3185 39.9773 32.3035 39.9943 32.289C40.0114 32.2745 40.0288 32.2604 40.0466 32.2467C40.0644 32.233 40.0825 32.2198 40.1009 32.207C40.1194 32.1943 40.1381 32.1819 40.1572 32.1701C40.1761 32.1582 40.1955 32.1469 40.2151 32.136C40.2346 32.125 40.2545 32.1146 40.2746 32.1048C40.2948 32.0949 40.3151 32.0854 40.3356 32.0765C40.3562 32.0675 40.377 32.0591 40.398 32.0513C40.419 32.0434 40.4402 32.036 40.4615 32.0292C40.4829 32.0224 40.5044 32.0161 40.5261 32.0103C40.5477 32.0045 40.5695 31.9992 40.5914 31.9945C40.6133 31.9898 40.6354 31.9857 40.6575 31.982C40.6797 31.9784 40.7019 31.9753 40.7241 31.9728C40.7464 31.9703 40.7687 31.9683 40.7911 31.9669C40.8135 31.9655 40.8359 31.9646 40.8583 31.9643C40.8807 31.964 40.9031 31.9642 40.9255 31.965C40.9479 31.9658 40.9704 31.9671 40.9927 31.969C41.015 31.9709 41.0373 31.9734 41.0595 31.9764C41.0818 31.9794 41.1039 31.983 41.1259 31.987C41.148 31.9911 41.1699 31.9957 41.1917 32.0009C41.2135 32.0061 41.2352 32.0118 41.2567 32.018C41.2783 32.0243 41.2997 32.0311 41.3209 32.0383C41.3421 32.0456 41.3631 32.0534 41.3839 32.0618C41.4048 32.0701 41.4253 32.079 41.4457 32.0883C41.4648 32.1002 41.4836 32.1127 41.5022 32.1256C41.5207 32.1384 41.5389 32.1517 41.5568 32.1655C41.5747 32.1792 41.5923 32.1934 41.6095 32.208C41.6267 32.2225 41.6435 32.2375 41.6599 32.253C41.6764 32.2684 41.6925 32.2842 41.7083 32.3004C41.724 32.3166 41.7393 32.333 41.7543 32.35C41.7692 32.3669 41.7837 32.3842 41.7978 32.4018C41.8119 32.4194 41.8255 32.4373 41.8388 32.4557C41.8521 32.4739 41.8648 32.4925 41.8772 32.5114C41.8895 32.5303 41.9013 32.5495 41.9128 32.5689C41.9242 32.5884 41.9351 32.6081 41.9456 32.6281C41.9561 32.6481 41.966 32.6683 41.9755 32.6887C41.985 32.7092 41.994 32.7299 42.0025 32.7508C42.011 32.7717 42.019 32.7928 42.0265 32.814C42.034 32.8353 42.0409 32.8568 42.0474 32.8784C42.0538 32.9 42.0598 32.9218 42.0652 32.9437C42.0705 32.9656 42.0754 32.9876 42.0798 33.0098C42.0841 33.0319 42.0879 33.0541 42.0912 33.0765C42.0945 33.0988 42.0972 33.1211 42.0994 33.1436C42.1016 33.1661 42.1033 33.1886 42.1044 33.2111C42.1055 33.2336 42.1061 33.2562 42.1061 33.2788C42.1061 33.3013 42.1056 33.3239 42.1045 33.3464C42.1034 33.3689 42.1018 33.3914 42.0997 33.4139C42.0976 33.4364 42.0949 33.4587 42.0917 33.481C42.0885 33.5034 42.0847 33.5257 42.0804 33.5478C42.0761 33.57 42.0713 33.592 42.0659 33.6139C42.0606 33.6358 42.0547 33.6576 42.0483 33.6792C42.042 33.7008 42.035 33.7223 42.0276 33.7436C42.0201 33.7649 42.0122 33.786 42.0037 33.807C41.9953 33.8279 41.9864 33.8486 41.9769 33.8691C41.9675 33.8895 41.9576 33.9098 41.9471 33.9298C41.9367 33.9498 41.9258 33.9696 41.9145 33.9891L41.0812 35.6062L40.3781 36.9726L42.2355 36.9726C42.2583 36.9704 42.281 36.9688 42.3039 36.9677C42.3267 36.9666 42.3495 36.9661 42.3723 36.9662C42.3951 36.9664 42.418 36.9671 42.4408 36.9684C42.4636 36.9696 42.4863 36.9715 42.509 36.9741C42.5317 36.9766 42.5544 36.9797 42.5769 36.9833C42.5994 36.987 42.6218 36.9913 42.6442 36.9962C42.6665 37.001 42.6886 37.0064 42.7107 37.0124C42.7327 37.0184 42.7545 37.025 42.7763 37.0322C42.798 37.0393 42.8194 37.047 42.8407 37.0553C42.8621 37.0635 42.8831 37.0724 42.9039 37.0817C42.9248 37.0911 42.9453 37.101 42.9656 37.1114C42.9859 37.1219 43.006 37.1328 43.0257 37.1443C43.0454 37.1558 43.0648 37.1678 43.0839 37.1804C43.103 37.1929 43.1218 37.2059 43.1402 37.2193C43.1587 37.2328 43.1768 37.2467 43.1944 37.2612C43.2122 37.2756 43.2295 37.2905 43.2464 37.3058C43.2634 37.3211 43.2798 37.3369 43.2959 37.3531C43.3121 37.3693 43.3277 37.3859 43.343 37.4029C43.3582 37.4199 43.373 37.4372 43.3874 37.455C43.4016 37.4728 43.4155 37.4909 43.4289 37.5094C43.4423 37.528 43.4552 37.5468 43.4676 37.566C43.4799 37.5852 43.4919 37.6047 43.5032 37.6244C43.5146 37.6443 43.5255 37.6643 43.5358 37.6847C43.5461 37.7051 43.556 37.7257 43.5652 37.7465C43.5745 37.7674 43.5832 37.7886 43.5913 37.8099C43.5995 37.8312 43.6071 37.8527 43.6141 37.8744C43.6211 37.8962 43.6276 37.9181 43.6335 37.9401C43.6395 37.9622 43.6447 37.9844 43.6495 38.0068C43.6542 38.0291 43.6583 38.0515 43.6619 38.0741C43.6655 38.0966 43.6684 38.1193 43.6708 38.142C43.6732 38.1647 43.675 38.1874 43.6761 38.2102C43.6773 38.233 43.6779 38.2559 43.678 38.2787C43.6779 38.3016 43.6773 38.3244 43.6761 38.3472C43.675 38.37 43.6732 38.3927 43.6708 38.4154C43.6684 38.4382 43.6655 38.4608 43.6619 38.4833C43.6583 38.5059 43.6542 38.5284 43.6495 38.5507C43.6447 38.5731 43.6395 38.5953 43.6335 38.6173C43.6276 38.6393 43.6211 38.6612 43.6141 38.683C43.6071 38.7048 43.5995 38.7263 43.5913 38.7476C43.5832 38.7689 43.5745 38.79 43.5652 38.8109C43.556 38.8318 43.5461 38.8524 43.5358 38.8728C43.5255 38.8931 43.5146 38.9132 43.5032 38.933C43.4919 38.9528 43.4799 38.9722 43.4676 38.9914C43.4552 39.0106 43.4423 39.0294 43.4289 39.048C43.4155 39.0665 43.4016 39.0846 43.3874 39.1024C43.373 39.1202 43.3582 39.1375 43.343 39.1545C43.3277 39.1716 43.3121 39.1882 43.2959 39.2043C43.2798 39.2205 43.2634 39.2363 43.2464 39.2517C43.2295 39.267 43.2122 39.2818 43.1944 39.2963C43.1768 39.3107 43.1587 39.3246 43.1402 39.3382C43.1218 39.3516 43.103 39.3646 43.0839 39.3771C43.0648 39.3896 43.0454 39.4016 43.0257 39.4131C43.006 39.4246 42.9859 39.4355 42.9656 39.446C42.9453 39.4564 42.9248 39.4663 42.9039 39.4757C42.8831 39.4851 42.8621 39.4939 42.8407 39.5021C42.8194 39.5104 42.798 39.5181 42.7763 39.5253C42.7545 39.5324 42.7327 39.539 42.7107 39.545C42.6886 39.551 42.6665 39.5564 42.6442 39.5612C42.6218 39.5662 42.5994 39.5704 42.5769 39.5741C42.5544 39.5777 42.5317 39.5808 42.509 39.5834C42.4863 39.5859 42.4636 39.5878 42.4408 39.5891C42.418 39.5903 42.3951 39.5911 42.3723 39.5912C42.3495 39.5913 42.3267 39.5908 42.3039 39.5897C42.281 39.5886 42.2583 39.587 42.2355 39.5848L38.7879 39.5848L38.7879 41.4598L42.2355 41.4598L42.2355 41.4574ZM26.0508 25.1543L49.0312 25.1543C49.0539 25.1563 49.0766 25.1578 49.0993 25.1586C49.122 25.1595 49.1447 25.1598 49.1674 25.1594C49.1902 25.1591 49.2129 25.1582 49.2355 25.1567C49.2582 25.1552 49.2808 25.1531 49.3034 25.1504C49.326 25.1478 49.3485 25.1446 49.3708 25.1407C49.3932 25.1368 49.4155 25.1324 49.4377 25.1274C49.4599 25.1224 49.4818 25.1169 49.5037 25.1107C49.5256 25.1046 49.5474 25.0978 49.5689 25.0906C49.5905 25.0833 49.6118 25.0756 49.6329 25.0671C49.654 25.0587 49.6749 25.0498 49.6956 25.0404C49.7162 25.031 49.7366 25.0209 49.7568 25.0104C49.7769 24.9999 49.7969 24.9888 49.8164 24.9773C49.836 24.9658 49.8552 24.9537 49.8741 24.9412C49.8931 24.9286 49.9117 24.9156 49.93 24.9021C49.9482 24.8886 49.9662 24.8746 49.9837 24.8602C50.0013 24.8457 50.0184 24.8308 50.0352 24.8155C50.052 24.8002 50.0684 24.7844 50.0843 24.7682C50.1002 24.752 50.1157 24.7354 50.1308 24.7184C50.146 24.7014 50.1606 24.6841 50.1748 24.6664C50.189 24.6486 50.2027 24.6305 50.2159 24.612C50.2292 24.5935 50.242 24.5748 50.2542 24.5557C50.2666 24.5366 50.2783 24.5171 50.2896 24.4974C50.3008 24.4776 50.3116 24.4576 50.3218 24.4373C50.3321 24.417 50.3418 24.3965 50.3509 24.3757C50.3601 24.3549 50.3687 24.3338 50.3768 24.3126C50.3849 24.2914 50.3924 24.2699 50.3993 24.2483C50.4063 24.2267 50.4127 24.2049 50.4185 24.1829C50.4244 24.1609 50.4297 24.1388 50.4343 24.1166C50.439 24.0944 50.4431 24.0721 50.4467 24.0496C50.4502 24.0271 50.4531 24.0046 50.4554 23.982C50.4578 23.9593 50.4595 23.9367 50.4607 23.914C50.462 23.8913 50.4625 23.8686 50.4625 23.8459C50.4625 23.8232 50.462 23.8005 50.4607 23.7778C50.4595 23.7551 50.4578 23.7324 50.4554 23.7098C50.4531 23.6872 50.4502 23.6647 50.4467 23.6422C50.4431 23.6197 50.439 23.5974 50.4343 23.5752C50.4297 23.5529 50.4244 23.5308 50.4185 23.5089C50.4127 23.4869 50.4063 23.4651 50.3993 23.4435C50.3924 23.4219 50.3849 23.4004 50.3768 23.3792C50.3687 23.3579 50.3601 23.3369 50.3509 23.3161C50.3418 23.2953 50.3321 23.2748 50.3218 23.2545C50.3116 23.2342 50.3008 23.2141 50.2896 23.1944C50.2783 23.1747 50.2666 23.1552 50.2542 23.1361C50.242 23.117 50.2292 23.0982 50.2159 23.0798C50.2027 23.0613 50.189 23.0432 50.1748 23.0254C50.1606 23.0077 50.146 22.9904 50.1308 22.9734C50.1157 22.9564 50.1002 22.9397 50.0843 22.9236C50.0684 22.9074 50.052 22.8916 50.0352 22.8763C50.0184 22.861 50.0013 22.8461 49.9837 22.8316C49.9662 22.8172 49.9482 22.8032 49.93 22.7897C49.9118 22.7762 49.8931 22.7632 49.8741 22.7506C49.8552 22.7381 49.836 22.726 49.8164 22.7144C49.7969 22.7029 49.7769 22.6919 49.7568 22.6813C49.7366 22.6709 49.7162 22.6608 49.6956 22.6514C49.6749 22.6419 49.654 22.633 49.6329 22.6247C49.6118 22.6162 49.5905 22.6085 49.5689 22.6012C49.5474 22.594 49.5257 22.5872 49.5038 22.5811C49.4819 22.5749 49.4599 22.5694 49.4377 22.5644C49.4155 22.5594 49.3932 22.555 49.3709 22.5511C49.3485 22.5472 49.326 22.544 49.3034 22.5414C49.2808 22.5387 49.2582 22.5366 49.2355 22.5351C49.2129 22.5335 49.1902 22.5327 49.1674 22.5324C49.1447 22.532 49.122 22.5323 49.0993 22.5332C49.0766 22.534 49.0539 22.5354 49.0312 22.5375L26.0484 22.5375C26.0258 22.5354 26.0031 22.534 25.9804 22.5332C25.9576 22.5323 25.9349 22.532 25.9121 22.5324C25.8894 22.5327 25.8666 22.5335 25.844 22.5351C25.8213 22.5366 25.7987 22.5387 25.7761 22.5414C25.7535 22.5441 25.731 22.5473 25.7085 22.5511C25.6861 22.555 25.6638 22.5594 25.6417 22.5644C25.6195 22.5694 25.5974 22.575 25.5755 22.5811C25.5536 22.5873 25.5319 22.594 25.5103 22.6013C25.4888 22.6085 25.4675 22.6164 25.4463 22.6247C25.4251 22.6332 25.4043 22.6421 25.3835 22.6515C25.3628 22.661 25.3424 22.671 25.3222 22.6815C25.3021 22.692 25.2822 22.7031 25.2626 22.7147C25.2431 22.7262 25.2238 22.7383 25.2048 22.7509C25.1859 22.7634 25.1672 22.7764 25.149 22.79C25.1306 22.8035 25.1127 22.8175 25.0952 22.8319C25.0776 22.8464 25.0604 22.8613 25.0436 22.8766C25.0269 22.892 25.0104 22.9077 24.9945 22.9239C24.9785 22.9401 24.963 22.9567 24.9479 22.9737C24.9327 22.9908 24.9181 23.0082 24.9039 23.0259C24.8897 23.0437 24.876 23.0618 24.8627 23.0803C24.8495 23.0988 24.8366 23.1176 24.8243 23.1367C24.8121 23.1558 24.8003 23.1753 24.789 23.1951C24.7778 23.2148 24.767 23.2348 24.7567 23.2551C24.7465 23.2754 24.7367 23.296 24.7276 23.3168C24.7184 23.3377 24.7099 23.3587 24.7017 23.3799C24.6937 23.4012 24.6861 23.4227 24.6792 23.4443C24.6722 23.4659 24.6658 23.4877 24.66 23.5098C24.6541 23.5318 24.6489 23.5539 24.6442 23.5761C24.6395 23.5984 24.6354 23.6207 24.6319 23.6432C24.6283 23.6657 24.6254 23.6882 24.623 23.7108C24.6207 23.7335 24.6189 23.7562 24.6177 23.7789C24.6166 23.8016 24.616 23.8243 24.616 23.8471C24.616 23.8698 24.6166 23.8925 24.6177 23.9153C24.6189 23.938 24.6207 23.9607 24.623 23.9833C24.6254 24.0059 24.6283 24.0284 24.6319 24.0509C24.6354 24.0734 24.6395 24.0957 24.6442 24.118C24.6489 24.1403 24.6541 24.1624 24.66 24.1843C24.6658 24.2064 24.6722 24.2282 24.6792 24.2498C24.6861 24.2714 24.6937 24.2929 24.7017 24.3142C24.7099 24.3354 24.7184 24.3565 24.7276 24.3773C24.7367 24.3981 24.7465 24.4187 24.7567 24.439C24.767 24.4593 24.7778 24.4794 24.789 24.4991C24.8003 24.5188 24.8121 24.5383 24.8243 24.5574C24.8366 24.5766 24.8495 24.5954 24.8627 24.6138C24.876 24.6324 24.8897 24.6505 24.9039 24.6683C24.9181 24.686 24.9327 24.7033 24.9479 24.7204C24.963 24.7374 24.9785 24.754 24.9945 24.7702C25.0104 24.7864 25.0269 24.8021 25.0436 24.8175C25.0604 24.8328 25.0776 24.8478 25.0952 24.8622C25.1127 24.8766 25.1306 24.8906 25.149 24.9042C25.1672 24.9177 25.1859 24.9308 25.2048 24.9433C25.2238 24.9559 25.2431 24.968 25.2626 24.9795C25.2822 24.991 25.3021 25.0021 25.3222 25.0126C25.3424 25.0231 25.3628 25.0331 25.3835 25.0426C25.4043 25.052 25.4251 25.061 25.4463 25.0694C25.4675 25.0778 25.4888 25.0856 25.5103 25.0928C25.5319 25.1001 25.5536 25.1068 25.5755 25.113C25.5974 25.1191 25.6195 25.1247 25.6417 25.1297C25.6638 25.1347 25.6861 25.1391 25.7085 25.143C25.731 25.1468 25.7535 25.15 25.7761 25.1528C25.7987 25.1555 25.8213 25.1575 25.844 25.1591C25.8666 25.1606 25.8894 25.1615 25.9121 25.1618C25.9349 25.1621 25.9576 25.1618 25.9804 25.161C26.0031 25.1602 26.0258 25.1587 26.0484 25.1566L26.0508 25.1543Z"   fill="#52B4FF" ></path></svg>