<svg xmlns="http://www.w3.org/2000/svg" xmlns:xlink="http://www.w3.org/1999/xlink" width="75" height="75" viewBox="0 0 75 75" fill="none"><rect  x="0" y="0" width="75" height="75" rx="11"    fill="#8086F2" ></rect><path d="M50.6875 22.6875C53.3453 22.6875 55.5 24.8422 55.5 27.5L55.5 33.625C55.5 33.6465 55.4995 33.668 55.4984 33.6894C55.4973 33.7109 55.4958 33.7323 55.4937 33.7536C55.4916 33.775 55.4889 33.7963 55.4858 33.8176C55.4826 33.8388 55.479 33.86 55.4748 33.881C55.4706 33.9021 55.4659 33.9231 55.4607 33.9439C55.4554 33.9647 55.4497 33.9854 55.4435 34.006C55.4373 34.0265 55.4305 34.0469 55.4233 34.0672C55.416 34.0874 55.4083 34.1074 55.4001 34.1273C55.3919 34.1471 55.3832 34.1667 55.374 34.1861C55.3648 34.2055 55.3551 34.2247 55.345 34.2437C55.3349 34.2626 55.3243 34.2813 55.3133 34.2998C55.3022 34.3182 55.2907 34.3363 55.2788 34.3542C55.2668 34.372 55.2545 34.3896 55.2417 34.4069C55.2289 34.4241 55.2157 34.441 55.2021 34.4576C55.1885 34.4742 55.1744 34.4905 55.16 34.5064C55.1456 34.5223 55.1308 34.5379 55.1156 34.5531C55.1004 34.5682 55.0848 34.5831 55.0689 34.5975C55.053 34.6119 55.0367 34.6259 55.0201 34.6396C55.0035 34.6532 54.9866 34.6664 54.9694 34.6792C54.9521 34.692 54.9345 34.7043 54.9167 34.7163C54.8988 34.7282 54.8807 34.7397 54.8623 34.7508C54.8438 34.7618 54.8251 34.7724 54.8062 34.7825C54.7872 34.7926 54.7681 34.8023 54.7486 34.8115C54.7292 34.8207 54.7096 34.8294 54.6898 34.8376C54.6699 34.8458 54.6499 34.8535 54.6297 34.8608C54.6094 34.868 54.589 34.8747 54.5685 34.881C54.5479 34.8872 54.5272 34.8929 54.5064 34.8981C54.4856 34.9033 54.4646 34.9081 54.4435 34.9122C54.4225 34.9165 54.4013 34.9201 54.3801 34.9233C54.3588 34.9264 54.3375 34.9291 54.3161 34.9312C54.2947 34.9332 54.2733 34.9348 54.2519 34.9359C54.2304 34.9369 54.209 34.9375 54.1875 34.9375C54.1374 34.9375 54.0873 34.9387 54.0372 34.9412C53.9872 34.9436 53.9372 34.9473 53.8873 34.9522C53.8374 34.9571 53.7877 34.9633 53.7381 34.9706C53.6886 34.978 53.6392 34.9865 53.59 34.9963C53.5409 35.0061 53.492 35.0171 53.4434 35.0293C53.3947 35.0414 53.3465 35.0548 53.2985 35.0693C53.2505 35.0839 53.2029 35.0996 53.1558 35.1165C53.1086 35.1334 53.0618 35.1514 53.0155 35.1706C52.9692 35.1898 52.9234 35.2101 52.8781 35.2315C52.8328 35.253 52.788 35.2755 52.7438 35.2991C52.6996 35.3227 52.656 35.3474 52.613 35.3732C52.5701 35.3989 52.5277 35.4258 52.4861 35.4536C52.4444 35.4815 52.4034 35.5103 52.3632 35.5402C52.3229 35.57 52.2834 35.6009 52.2447 35.6326C52.2059 35.6644 52.168 35.6972 52.1309 35.7308C52.0937 35.7645 52.0574 35.799 52.022 35.8345C51.9865 35.8699 51.952 35.9062 51.9183 35.9433C51.8847 35.9805 51.8519 36.0184 51.8201 36.0572C51.7884 36.0959 51.7575 36.1354 51.7277 36.1757C51.6978 36.2159 51.669 36.2569 51.6411 36.2985C51.6133 36.3402 51.5865 36.3825 51.5607 36.4256C51.535 36.4685 51.5102 36.5121 51.4866 36.5563C51.463 36.6005 51.4405 36.6453 51.419 36.6906C51.3976 36.7359 51.3773 36.7817 51.3581 36.828C51.3389 36.8743 51.3209 36.9211 51.304 36.9682C51.2871 37.0154 51.2714 37.063 51.2569 37.111C51.2423 37.1589 51.2289 37.2072 51.2168 37.2558C51.2046 37.3044 51.1936 37.3533 51.1839 37.4025C51.1741 37.4517 51.1655 37.501 51.1581 37.5506C51.1508 37.6002 51.1447 37.6499 51.1397 37.6998C51.1348 37.7497 51.1312 37.7996 51.1287 37.8497C51.1262 37.8998 51.125 37.9499 51.125 38C51.125 38.0501 51.1262 38.1002 51.1287 38.1503C51.1312 38.2003 51.1348 38.2503 51.1397 38.3002C51.1447 38.3501 51.1508 38.3998 51.1581 38.4494C51.1655 38.4989 51.1741 38.5483 51.1839 38.5975C51.1936 38.6466 51.2046 38.6955 51.2168 38.7441C51.2289 38.7927 51.2423 38.841 51.2569 38.889C51.2714 38.9369 51.2871 38.9845 51.304 39.0317C51.3209 39.0789 51.3389 39.1257 51.3581 39.172C51.3773 39.2183 51.3976 39.264 51.419 39.3094C51.4405 39.3547 51.463 39.3994 51.4866 39.4437C51.5102 39.4878 51.535 39.5314 51.5607 39.5744C51.5865 39.6174 51.6133 39.6597 51.6411 39.7014C51.669 39.7431 51.6978 39.7841 51.7277 39.8243C51.7575 39.8646 51.7884 39.9041 51.8202 39.9428C51.8519 39.9816 51.8847 40.0195 51.9183 40.0566C51.952 40.0938 51.9865 40.1301 52.022 40.1655C52.0574 40.2009 52.0937 40.2355 52.1309 40.2691C52.168 40.3028 52.2059 40.3355 52.2447 40.3673C52.2834 40.3991 52.3229 40.43 52.3632 40.4598C52.4034 40.4897 52.4444 40.5185 52.4861 40.5464C52.5277 40.5742 52.5701 40.601 52.613 40.6268C52.656 40.6525 52.6996 40.6772 52.7438 40.7009C52.788 40.7245 52.8328 40.747 52.8781 40.7685C52.9234 40.7899 52.9692 40.8102 53.0155 40.8294C53.0618 40.8485 53.1086 40.8666 53.1558 40.8835C53.2029 40.9003 53.2505 40.9161 53.2985 40.9306C53.3465 40.9452 53.3947 40.9585 53.4434 40.9707C53.492 40.9829 53.5409 40.9938 53.59 41.0036C53.6392 41.0134 53.6886 41.022 53.7381 41.0294C53.7877 41.0367 53.8374 41.0428 53.8873 41.0477C53.9372 41.0527 53.9872 41.0563 54.0372 41.0588C54.0873 41.0613 54.1374 41.0625 54.1875 41.0625C54.209 41.0625 54.2304 41.063 54.2519 41.0641C54.2733 41.0651 54.2947 41.0667 54.3161 41.0688C54.3375 41.0709 54.3588 41.0735 54.3801 41.0767C54.4013 41.0798 54.4225 41.0835 54.4435 41.0877C54.4646 41.0919 54.4856 41.0966 54.5064 41.1018C54.5272 41.107 54.5479 41.1128 54.5685 41.119C54.589 41.1253 54.6094 41.132 54.6297 41.1392C54.6499 41.1465 54.6699 41.1542 54.6898 41.1624C54.7096 41.1706 54.7292 41.1793 54.7486 41.1885C54.7681 41.1977 54.7872 41.2073 54.8062 41.2175C54.8251 41.2276 54.8438 41.2382 54.8623 41.2492C54.8807 41.2602 54.8988 41.2718 54.9167 41.2837C54.9345 41.2956 54.9521 41.308 54.9694 41.3208C54.9866 41.3336 55.0035 41.3468 55.0201 41.3604C55.0367 41.3741 55.053 41.3881 55.0689 41.4025C55.0848 41.4169 55.1004 41.4317 55.1156 41.4469C55.1308 41.4621 55.1456 41.4777 55.16 41.4936C55.1744 41.5095 55.1885 41.5257 55.2021 41.5423C55.2157 41.559 55.2289 41.5759 55.2417 41.5931C55.2545 41.6104 55.2668 41.6279 55.2788 41.6458C55.2907 41.6637 55.3022 41.6818 55.3133 41.7002C55.3243 41.7186 55.3349 41.7373 55.345 41.7563C55.3551 41.7752 55.3648 41.7944 55.374 41.8138C55.3832 41.8332 55.3919 41.8529 55.4001 41.8727C55.4083 41.8925 55.416 41.9126 55.4233 41.9328C55.4305 41.953 55.4373 41.9735 55.4435 41.994C55.4497 42.0146 55.4554 42.0352 55.4607 42.0561C55.4659 42.0769 55.4706 42.0979 55.4748 42.1189C55.479 42.14 55.4826 42.1611 55.4858 42.1824C55.4889 42.2036 55.4916 42.225 55.4937 42.2463C55.4958 42.2677 55.4973 42.2891 55.4984 42.3106C55.4995 42.332 55.5 42.3535 55.5 42.375L55.5 48.5C55.5 51.1578 53.3453 53.3125 50.6875 53.3125L25.3125 53.3125C22.6547 53.3125 20.5 51.1578 20.5 48.5L20.5 42.375C20.5 42.3535 20.5005 42.3321 20.5016 42.3106C20.5026 42.2892 20.5042 42.2677 20.5063 42.2463C20.5084 42.225 20.5111 42.2036 20.5142 42.1824C20.5174 42.1611 20.521 42.14 20.5252 42.1189C20.5294 42.0979 20.5341 42.0769 20.5393 42.0561C20.5446 42.0352 20.5503 42.0146 20.5565 41.994C20.5628 41.9735 20.5695 41.953 20.5767 41.9328C20.584 41.9126 20.5917 41.8926 20.5999 41.8727C20.6081 41.8529 20.6168 41.8332 20.626 41.8138C20.6352 41.7944 20.6449 41.7752 20.655 41.7563C20.6651 41.7373 20.6757 41.7186 20.6867 41.7002C20.6978 41.6818 20.7093 41.6637 20.7212 41.6458C20.7331 41.6279 20.7455 41.6104 20.7583 41.5931C20.7711 41.5759 20.7843 41.559 20.7979 41.5423C20.8116 41.5257 20.8256 41.5095 20.84 41.4936C20.8544 41.4777 20.8692 41.4621 20.8844 41.4469C20.8996 41.4317 20.9152 41.4169 20.9311 41.4025C20.947 41.3881 20.9633 41.3741 20.9799 41.3604C20.9965 41.3468 21.0134 41.3336 21.0306 41.3208C21.0479 41.308 21.0655 41.2956 21.0833 41.2837C21.1012 41.2718 21.1193 41.2602 21.1377 41.2492C21.1562 41.2382 21.1749 41.2276 21.1938 41.2175C21.2127 41.2073 21.2319 41.1977 21.2514 41.1885C21.2708 41.1793 21.2904 41.1706 21.3102 41.1624C21.3301 41.1542 21.3501 41.1465 21.3703 41.1392C21.3905 41.132 21.4109 41.1253 21.4315 41.119C21.4521 41.1128 21.4728 41.107 21.4936 41.1018C21.5144 41.0966 21.5354 41.0919 21.5564 41.0877C21.5775 41.0835 21.5987 41.0798 21.6199 41.0767C21.6412 41.0735 21.6625 41.0709 21.6839 41.0688C21.7052 41.0667 21.7267 41.0651 21.7481 41.0641C21.7696 41.063 21.791 41.0625 21.8125 41.0625C21.8626 41.0625 21.9127 41.0613 21.9628 41.0588C22.0128 41.0563 22.0628 41.0527 22.1127 41.0477C22.1626 41.0428 22.2123 41.0367 22.2619 41.0294C22.3114 41.022 22.3608 41.0134 22.41 41.0036C22.4591 40.9938 22.508 40.9829 22.5566 40.9707C22.6052 40.9585 22.6535 40.9452 22.7015 40.9306C22.7495 40.9161 22.797 40.9003 22.8442 40.8835C22.8914 40.8666 22.9382 40.8485 22.9845 40.8294C23.0308 40.8102 23.0766 40.7899 23.1219 40.7685C23.1672 40.747 23.2119 40.7245 23.2562 40.7009C23.3003 40.6772 23.3439 40.6525 23.387 40.6268C23.4299 40.601 23.4723 40.5742 23.5139 40.5464C23.5556 40.5185 23.5966 40.4897 23.6368 40.4598C23.6771 40.43 23.7166 40.3991 23.7553 40.3673C23.7941 40.3355 23.832 40.3028 23.8691 40.2691C23.9063 40.2355 23.9426 40.2009 23.978 40.1655C24.0135 40.1301 24.048 40.0938 24.0817 40.0566C24.1153 40.0195 24.1481 39.9816 24.1798 39.9428C24.2116 39.9041 24.2425 39.8646 24.2723 39.8243C24.3022 39.7841 24.331 39.7431 24.3589 39.7014C24.3867 39.6597 24.4135 39.6174 24.4393 39.5744C24.465 39.5314 24.4897 39.4878 24.5134 39.4437C24.537 39.3994 24.5595 39.3547 24.581 39.3094C24.6024 39.264 24.6227 39.2183 24.6419 39.172C24.6611 39.1257 24.6791 39.0789 24.696 39.0317C24.7129 38.9845 24.7286 38.9369 24.7431 38.889C24.7577 38.841 24.771 38.7927 24.7832 38.7441C24.7954 38.6955 24.8064 38.6466 24.8162 38.5975C24.8259 38.5483 24.8345 38.4989 24.8419 38.4494C24.8492 38.3998 24.8553 38.3501 24.8602 38.3002C24.8652 38.2503 24.8689 38.2003 24.8713 38.1503C24.8738 38.1002 24.875 38.0501 24.875 38C24.875 37.9499 24.8738 37.8998 24.8713 37.8497C24.8689 37.7996 24.8652 37.7497 24.8602 37.6998C24.8553 37.6499 24.8492 37.6002 24.8419 37.5506C24.8345 37.501 24.8259 37.4517 24.8162 37.4025C24.8064 37.3533 24.7954 37.3044 24.7832 37.2558C24.771 37.2072 24.7577 37.1589 24.7431 37.111C24.7286 37.063 24.7129 37.0154 24.696 36.9683C24.6791 36.9211 24.6611 36.8743 24.6419 36.828C24.6227 36.7817 24.6024 36.7359 24.581 36.6906C24.5595 36.6453 24.537 36.6005 24.5134 36.5563C24.4897 36.5121 24.465 36.4685 24.4393 36.4256C24.4135 36.3825 24.3867 36.3402 24.3589 36.2985C24.331 36.2569 24.3022 36.2159 24.2723 36.1757C24.2425 36.1354 24.2116 36.0959 24.1798 36.0572C24.1481 36.0184 24.1153 35.9805 24.0817 35.9433C24.048 35.9062 24.0135 35.8699 23.978 35.8345C23.9426 35.799 23.9063 35.7645 23.8691 35.7308C23.832 35.6972 23.7941 35.6644 23.7553 35.6326C23.7166 35.6009 23.6771 35.57 23.6368 35.5402C23.5966 35.5103 23.5556 35.4815 23.5139 35.4536C23.4723 35.4258 23.4299 35.399 23.387 35.3732C23.3439 35.3474 23.3003 35.3227 23.2562 35.2991C23.2119 35.2755 23.1672 35.253 23.1219 35.2315C23.0766 35.2101 23.0308 35.1898 22.9845 35.1706C22.9382 35.1515 22.8914 35.1334 22.8442 35.1165C22.797 35.0996 22.7495 35.0839 22.7015 35.0693C22.6535 35.0548 22.6052 35.0414 22.5566 35.0293C22.508 35.0171 22.4591 35.0061 22.41 34.9963C22.3608 34.9865 22.3114 34.978 22.2619 34.9707C22.2123 34.9633 22.1626 34.9572 22.1127 34.9522C22.0628 34.9473 22.0128 34.9436 21.9628 34.9412C21.9127 34.9387 21.8626 34.9375 21.8125 34.9375C21.791 34.9375 21.7696 34.9369 21.7481 34.9359C21.7267 34.9348 21.7052 34.9332 21.6839 34.9312C21.6625 34.9291 21.6412 34.9264 21.6199 34.9233C21.5987 34.9201 21.5775 34.9165 21.5564 34.9122C21.5354 34.9081 21.5144 34.9033 21.4936 34.8981C21.4728 34.8929 21.4521 34.8872 21.4315 34.881C21.4109 34.8747 21.3905 34.868 21.3703 34.8608C21.3501 34.8535 21.3301 34.8458 21.3102 34.8376C21.2904 34.8294 21.2708 34.8207 21.2514 34.8115C21.2319 34.8023 21.2127 34.7926 21.1938 34.7825C21.1749 34.7724 21.1562 34.7618 21.1377 34.7508C21.1193 34.7397 21.1012 34.7282 21.0833 34.7163C21.0655 34.7043 21.0479 34.692 21.0306 34.6792C21.0134 34.6664 20.9965 34.6532 20.9799 34.6396C20.9633 34.6259 20.947 34.6119 20.9311 34.5975C20.9152 34.5831 20.8996 34.5682 20.8844 34.5531C20.8692 34.5379 20.8544 34.5223 20.84 34.5064C20.8256 34.4905 20.8116 34.4742 20.7979 34.4576C20.7843 34.441 20.7711 34.4241 20.7583 34.4069C20.7455 34.3896 20.7331 34.372 20.7212 34.3542C20.7093 34.3363 20.6978 34.3182 20.6867 34.2998C20.6757 34.2813 20.6651 34.2626 20.655 34.2437C20.6449 34.2247 20.6352 34.2055 20.626 34.1861C20.6168 34.1667 20.6081 34.1471 20.5999 34.1273C20.5917 34.1074 20.584 34.0874 20.5767 34.0672C20.5695 34.0469 20.5628 34.0265 20.5565 34.006C20.5503 33.9854 20.5446 33.9647 20.5393 33.9439C20.5341 33.9231 20.5294 33.9021 20.5252 33.881C20.521 33.86 20.5174 33.8388 20.5142 33.8176C20.5111 33.7963 20.5084 33.775 20.5063 33.7536C20.5042 33.7323 20.5026 33.7109 20.5016 33.6894C20.5005 33.668 20.5 33.6465 20.5 33.625L20.5 27.5C20.5 24.8422 22.6547 22.6875 25.3125 22.6875L50.6875 22.6875ZM43.25 40.1875L32.75 40.1875C32.7285 40.1875 32.707 40.188 32.6856 40.1891C32.6641 40.1901 32.6427 40.1917 32.6213 40.1938C32.6 40.1959 32.5787 40.1985 32.5574 40.2017C32.5362 40.2049 32.515 40.2085 32.4939 40.2127C32.4729 40.2169 32.452 40.2216 32.4311 40.2268C32.4103 40.232 32.3896 40.2378 32.369 40.244C32.3484 40.2502 32.328 40.257 32.3079 40.2642C32.2876 40.2715 32.2676 40.2792 32.2477 40.2874C32.2279 40.2956 32.2082 40.3043 32.1888 40.3135C32.1694 40.3227 32.1502 40.3323 32.1313 40.3425C32.1123 40.3526 32.0936 40.3632 32.0753 40.3742C32.0568 40.3852 32.0387 40.3967 32.0208 40.4087C32.003 40.4206 31.9854 40.433 31.9682 40.4458C31.9509 40.4586 31.934 40.4718 31.9174 40.4854C31.9007 40.499 31.8845 40.5131 31.8686 40.5275C31.8527 40.5419 31.8371 40.5567 31.8219 40.5719C31.8067 40.5871 31.7919 40.6026 31.7775 40.6185C31.7631 40.6345 31.7491 40.6507 31.7354 40.6674C31.7218 40.684 31.7086 40.7009 31.6958 40.7181C31.683 40.7354 31.6706 40.753 31.6587 40.7708C31.6468 40.7886 31.6353 40.8068 31.6243 40.8252C31.6132 40.8436 31.6026 40.8623 31.5925 40.8813C31.5823 40.9002 31.5727 40.9194 31.5635 40.9388C31.5543 40.9582 31.5456 40.9779 31.5374 40.9977C31.5292 41.0175 31.5215 41.0376 31.5143 41.0578C31.507 41.078 31.5003 41.0984 31.494 41.119C31.4878 41.1395 31.4821 41.1602 31.4768 41.1811C31.4716 41.2019 31.4669 41.2229 31.4627 41.2439C31.4586 41.265 31.4549 41.2862 31.4517 41.3074C31.4485 41.3287 31.4459 41.35 31.4438 41.3713C31.4417 41.3927 31.4401 41.4141 31.4391 41.4356C31.438 41.457 31.4375 41.4785 31.4375 41.5C31.4375 41.5215 31.438 41.5429 31.4391 41.5644C31.4401 41.5858 31.4417 41.6073 31.4438 41.6286C31.4459 41.65 31.4485 41.6713 31.4517 41.6926C31.4549 41.7138 31.4586 41.735 31.4627 41.756C31.4669 41.7771 31.4716 41.7981 31.4768 41.8189C31.4821 41.8397 31.4878 41.8604 31.494 41.881C31.5003 41.9015 31.507 41.9219 31.5143 41.9422C31.5215 41.9624 31.5292 41.9824 31.5374 42.0023C31.5456 42.0221 31.5543 42.0417 31.5635 42.0611C31.5727 42.0805 31.5823 42.0997 31.5925 42.1187C31.6026 42.1376 31.6132 42.1563 31.6243 42.1748C31.6353 42.1932 31.6468 42.2113 31.6587 42.2292C31.6706 42.247 31.683 42.2646 31.6958 42.2819C31.7086 42.2991 31.7218 42.316 31.7354 42.3326C31.7491 42.3492 31.7631 42.3655 31.7775 42.3814C31.7919 42.3973 31.8067 42.4129 31.8219 42.4281C31.8371 42.4432 31.8527 42.4581 31.8686 42.4725C31.8845 42.4869 31.9007 42.5009 31.9174 42.5146C31.934 42.5282 31.9509 42.5414 31.9682 42.5542C31.9854 42.567 32.003 42.5793 32.0208 42.5913C32.0387 42.6032 32.0568 42.6147 32.0753 42.6258C32.0937 42.6368 32.1123 42.6474 32.1313 42.6575C32.1502 42.6676 32.1694 42.6773 32.1888 42.6865C32.2082 42.6957 32.2279 42.7044 32.2477 42.7126C32.2676 42.7208 32.2876 42.7285 32.3078 42.7358C32.328 42.743 32.3484 42.7497 32.369 42.756C32.3896 42.7622 32.4103 42.7679 32.4311 42.7731C32.452 42.7783 32.4729 42.7831 32.4939 42.7872C32.515 42.7915 32.5362 42.7951 32.5574 42.7983C32.5787 42.8014 32.6 42.8041 32.6213 42.8062C32.6427 42.8082 32.6641 42.8098 32.6856 42.8109C32.707 42.8119 32.7285 42.8125 32.75 42.8125L43.25 42.8125C43.2715 42.8125 43.2929 42.8119 43.3144 42.8109C43.3359 42.8098 43.3573 42.8082 43.3787 42.8062C43.4 42.8041 43.4213 42.8014 43.4426 42.7983C43.4638 42.7951 43.485 42.7915 43.5061 42.7872C43.5271 42.7831 43.5481 42.7783 43.5689 42.7731C43.5897 42.7679 43.6104 42.7622 43.631 42.756C43.6516 42.7497 43.6719 42.743 43.6922 42.7358C43.7124 42.7285 43.7324 42.7208 43.7523 42.7126C43.7721 42.7044 43.7917 42.6957 43.8112 42.6865C43.8306 42.6773 43.8498 42.6676 43.8687 42.6575C43.8876 42.6474 43.9063 42.6368 43.9248 42.6258C43.9432 42.6147 43.9613 42.6032 43.9792 42.5913C43.997 42.5793 44.0146 42.567 44.0318 42.5542C44.0491 42.5414 44.066 42.5282 44.0827 42.5146C44.0992 42.5009 44.1155 42.4869 44.1314 42.4725C44.1473 42.4581 44.1629 42.4432 44.1781 42.4281C44.1932 42.4129 44.208 42.3973 44.2225 42.3814C44.2369 42.3655 44.251 42.3492 44.2646 42.3326C44.2782 42.316 44.2914 42.2991 44.3042 42.2819C44.317 42.2646 44.3294 42.247 44.3413 42.2292C44.3532 42.2113 44.3647 42.1932 44.3758 42.1748C44.3868 42.1563 44.3974 42.1376 44.4075 42.1187C44.4176 42.0997 44.4273 42.0805 44.4365 42.0611C44.4457 42.0417 44.4543 42.0221 44.4626 42.0023C44.4708 41.9824 44.4785 41.9624 44.4858 41.9422C44.493 41.9219 44.4998 41.9015 44.506 41.881C44.5122 41.8604 44.5179 41.8397 44.5232 41.8189C44.5284 41.7981 44.5331 41.7771 44.5373 41.756C44.5415 41.735 44.5451 41.7138 44.5483 41.6926C44.5514 41.6713 44.5541 41.65 44.5562 41.6286C44.5583 41.6073 44.5598 41.5858 44.5609 41.5644C44.562 41.5429 44.5625 41.5215 44.5625 41.5C44.5625 41.4785 44.562 41.457 44.5609 41.4356C44.5598 41.4141 44.5583 41.3927 44.5562 41.3713C44.5541 41.35 44.5514 41.3287 44.5483 41.3074C44.5451 41.2862 44.5415 41.265 44.5373 41.2439C44.5331 41.2229 44.5284 41.2019 44.5232 41.1811C44.5179 41.1602 44.5122 41.1395 44.506 41.119C44.4998 41.0984 44.493 41.078 44.4858 41.0578C44.4785 41.0376 44.4708 41.0175 44.4626 40.9977C44.4543 40.9779 44.4457 40.9582 44.4365 40.9388C44.4273 40.9194 44.4176 40.9002 44.4075 40.8813C44.3974 40.8623 44.3868 40.8436 44.3758 40.8252C44.3647 40.8068 44.3532 40.7886 44.3413 40.7708C44.3294 40.753 44.317 40.7354 44.3042 40.7181C44.2914 40.7009 44.2782 40.684 44.2646 40.6674C44.251 40.6507 44.2369 40.6345 44.2225 40.6185C44.208 40.6026 44.1932 40.5871 44.1781 40.5719C44.1629 40.5567 44.1473 40.5419 44.1314 40.5275C44.1155 40.5131 44.0992 40.499 44.0827 40.4854C44.066 40.4718 44.0491 40.4586 44.0318 40.4458C44.0146 40.433 43.997 40.4206 43.9792 40.4087C43.9613 40.3967 43.9432 40.3852 43.9248 40.3742C43.9063 40.3632 43.8876 40.3526 43.8687 40.3425C43.8498 40.3323 43.8306 40.3227 43.8112 40.3135C43.7917 40.3043 43.7721 40.2956 43.7523 40.2874C43.7324 40.2792 43.7124 40.2715 43.6922 40.2642C43.6719 40.257 43.6516 40.2502 43.631 40.244C43.6104 40.2378 43.5897 40.232 43.5689 40.2268C43.5481 40.2216 43.5271 40.2169 43.5061 40.2127C43.485 40.2085 43.4638 40.2049 43.4426 40.2017C43.4213 40.1985 43.4 40.1959 43.3787 40.1938C43.3573 40.1917 43.3359 40.1901 43.3144 40.1891C43.2929 40.188 43.2715 40.1875 43.25 40.1875ZM43.25 33.1875L32.75 33.1875C32.7285 33.1875 32.707 33.188 32.6856 33.1891C32.6641 33.1901 32.6427 33.1917 32.6213 33.1938C32.6 33.1959 32.5787 33.1985 32.5574 33.2017C32.5362 33.2048 32.515 33.2085 32.4939 33.2127C32.4729 33.2169 32.452 33.2216 32.4311 33.2268C32.4103 33.232 32.3896 33.2377 32.369 33.244C32.3484 33.2503 32.328 33.257 32.3079 33.2642C32.2876 33.2715 32.2676 33.2792 32.2477 33.2874C32.2279 33.2956 32.2082 33.3043 32.1888 33.3135C32.1694 33.3227 32.1502 33.3323 32.1313 33.3425C32.1123 33.3526 32.0936 33.3632 32.0753 33.3742C32.0568 33.3852 32.0387 33.3968 32.0208 33.4087C32.003 33.4206 31.9854 33.433 31.9682 33.4458C31.9509 33.4586 31.934 33.4718 31.9174 33.4854C31.9007 33.4991 31.8845 33.5131 31.8686 33.5275C31.8527 33.5419 31.8371 33.5567 31.8219 33.5719C31.8067 33.5871 31.7919 33.6027 31.7775 33.6186C31.7631 33.6345 31.7491 33.6507 31.7354 33.6673C31.7218 33.684 31.7086 33.7009 31.6958 33.7181C31.683 33.7354 31.6706 33.7529 31.6587 33.7708C31.6468 33.7887 31.6353 33.8068 31.6243 33.8252C31.6132 33.8436 31.6026 33.8623 31.5925 33.8813C31.5823 33.9002 31.5727 33.9194 31.5635 33.9388C31.5543 33.9582 31.5456 33.9779 31.5374 33.9977C31.5292 34.0175 31.5215 34.0376 31.5143 34.0578C31.507 34.078 31.5003 34.0985 31.494 34.119C31.4878 34.1396 31.4821 34.1602 31.4768 34.1811C31.4716 34.2019 31.4669 34.2229 31.4627 34.2439C31.4586 34.265 31.4549 34.2861 31.4517 34.3074C31.4485 34.3286 31.4459 34.35 31.4438 34.3713C31.4417 34.3927 31.4401 34.4141 31.4391 34.4356C31.438 34.457 31.4375 34.4785 31.4375 34.5C31.4375 34.5215 31.438 34.5429 31.4391 34.5644C31.4401 34.5858 31.4417 34.6073 31.4438 34.6286C31.4459 34.65 31.4485 34.6713 31.4517 34.6926C31.4549 34.7138 31.4586 34.735 31.4627 34.756C31.4669 34.7771 31.4716 34.7981 31.4768 34.8189C31.4821 34.8397 31.4878 34.8604 31.494 34.881C31.5003 34.9015 31.507 34.9219 31.5143 34.9421C31.5215 34.9624 31.5292 34.9824 31.5374 35.0022C31.5456 35.0221 31.5543 35.0417 31.5635 35.0611C31.5727 35.0806 31.5823 35.0998 31.5925 35.1187C31.6026 35.1376 31.6132 35.1563 31.6243 35.1747C31.6353 35.1932 31.6468 35.2113 31.6587 35.2292C31.6706 35.247 31.683 35.2646 31.6958 35.2818C31.7086 35.2991 31.7218 35.316 31.7354 35.3326C31.7491 35.3492 31.7631 35.3655 31.7775 35.3814C31.7919 35.3973 31.8067 35.4129 31.8219 35.4281C31.8371 35.4432 31.8527 35.458 31.8686 35.4725C31.8845 35.4869 31.9007 35.5009 31.9174 35.5146C31.934 35.5282 31.9509 35.5414 31.9682 35.5542C31.9854 35.567 32.003 35.5794 32.0208 35.5913C32.0387 35.6032 32.0568 35.6147 32.0753 35.6258C32.0937 35.6368 32.1123 35.6474 32.1313 35.6575C32.1502 35.6676 32.1694 35.6773 32.1888 35.6865C32.2082 35.6956 32.2279 35.7043 32.2477 35.7126C32.2676 35.7208 32.2876 35.7285 32.3078 35.7358C32.328 35.743 32.3484 35.7497 32.369 35.756C32.3896 35.7622 32.4103 35.768 32.4311 35.7732C32.452 35.7784 32.4729 35.7831 32.4939 35.7873C32.515 35.7915 32.5362 35.7951 32.5574 35.7983C32.5787 35.8014 32.6 35.8041 32.6213 35.8062C32.6427 35.8083 32.6641 35.8099 32.6856 35.8109C32.707 35.812 32.7285 35.8125 32.75 35.8125L43.25 35.8125C43.2715 35.8125 43.2929 35.812 43.3144 35.8109C43.3359 35.8099 43.3573 35.8083 43.3787 35.8062C43.4 35.8041 43.4213 35.8014 43.4426 35.7983C43.4638 35.7951 43.485 35.7915 43.5061 35.7873C43.5271 35.7831 43.5481 35.7784 43.5689 35.7732C43.5897 35.768 43.6104 35.7622 43.631 35.756C43.6516 35.7497 43.6719 35.743 43.6922 35.7358C43.7124 35.7285 43.7324 35.7208 43.7523 35.7126C43.7721 35.7043 43.7917 35.6956 43.8112 35.6865C43.8306 35.6773 43.8498 35.6676 43.8687 35.6575C43.8876 35.6474 43.9063 35.6368 43.9248 35.6258C43.9432 35.6147 43.9613 35.6032 43.9792 35.5913C43.997 35.5794 44.0146 35.567 44.0318 35.5542C44.0491 35.5414 44.066 35.5282 44.0827 35.5146C44.0992 35.5009 44.1155 35.4869 44.1314 35.4725C44.1473 35.458 44.1629 35.4432 44.1781 35.4281C44.1932 35.4129 44.208 35.3973 44.2225 35.3814C44.2369 35.3655 44.251 35.3492 44.2646 35.3326C44.2782 35.316 44.2914 35.2991 44.3042 35.2818C44.317 35.2646 44.3294 35.247 44.3413 35.2292C44.3532 35.2113 44.3647 35.1932 44.3758 35.1747C44.3868 35.1563 44.3974 35.1376 44.4075 35.1187C44.4176 35.0998 44.4273 35.0806 44.4365 35.0611C44.4457 35.0417 44.4543 35.0221 44.4626 35.0022C44.4708 34.9824 44.4785 34.9624 44.4858 34.9421C44.493 34.9219 44.4998 34.9015 44.506 34.881C44.5122 34.8604 44.5179 34.8397 44.5232 34.8189C44.5284 34.7981 44.5331 34.7771 44.5373 34.756C44.5415 34.735 44.5451 34.7138 44.5483 34.6926C44.5514 34.6713 44.5541 34.65 44.5562 34.6286C44.5583 34.6073 44.5598 34.5858 44.5609 34.5644C44.562 34.5429 44.5625 34.5215 44.5625 34.5C44.5625 34.4785 44.562 34.457 44.5609 34.4356C44.5598 34.4141 44.5583 34.3927 44.5562 34.3713C44.5541 34.35 44.5514 34.3286 44.5483 34.3074C44.5451 34.2861 44.5415 34.265 44.5373 34.2439C44.5331 34.2229 44.5284 34.2019 44.5232 34.1811C44.5179 34.1602 44.5122 34.1396 44.506 34.119C44.4998 34.0985 44.493 34.078 44.4858 34.0578C44.4785 34.0376 44.4708 34.0175 44.4626 33.9977C44.4543 33.9779 44.4457 33.9582 44.4365 33.9388C44.4273 33.9194 44.4176 33.9002 44.4075 33.8813C44.3974 33.8623 44.3868 33.8436 44.3758 33.8252C44.3647 33.8068 44.3532 33.7887 44.3413 33.7708C44.3294 33.7529 44.317 33.7354 44.3042 33.7181C44.2914 33.7009 44.2782 33.684 44.2646 33.6673C44.251 33.6507 44.2369 33.6345 44.2225 33.6186C44.208 33.6027 44.1932 33.5871 44.1781 33.5719C44.1629 33.5567 44.1473 33.5419 44.1314 33.5275C44.1155 33.5131 44.0992 33.4991 44.0827 33.4854C44.066 33.4718 44.0491 33.4586 44.0318 33.4458C44.0146 33.433 43.997 33.4206 43.9792 33.4087C43.9613 33.3968 43.9432 33.3852 43.9248 33.3742C43.9063 33.3632 43.8876 33.3526 43.8687 33.3425C43.8498 33.3323 43.8306 33.3227 43.8112 33.3135C43.7917 33.3043 43.7721 33.2956 43.7523 33.2874C43.7324 33.2792 43.7124 33.2715 43.6922 33.2642C43.6719 33.257 43.6516 33.2503 43.631 33.244C43.6104 33.2377 43.5897 33.232 43.5689 33.2268C43.5481 33.2216 43.5271 33.2169 43.5061 33.2127C43.485 33.2085 43.4638 33.2048 43.4426 33.2017C43.4213 33.1985 43.4 33.1959 43.3787 33.1938C43.3573 33.1917 43.3359 33.1901 43.3144 33.1891C43.2929 33.188 43.2715 33.1875 43.25 33.1875Z"   fill="#FFFFFF" ></path></svg>