<svg xmlns="http://www.w3.org/2000/svg" xmlns:xlink="http://www.w3.org/1999/xlink" width="75" height="75" viewBox="0 0 75 75" fill="none"><rect  x="0" y="0" width="75" height="75" rx="11"    fill="#EA75FF" ></rect><path d="M45.1573 26.0233C46.3878 26.0233 47.3886 25.0718 47.3886 23.8946L47.3886 21.7659C47.3886 20.5888 46.3878 19.6372 45.1573 19.6372C43.9228 19.6372 42.9261 20.5888 42.9261 21.7659L42.9261 23.8946C42.9261 25.0718 43.9269 26.0233 45.1573 26.0233ZM30.806 26.0233C32.0364 26.0233 33.0372 25.0718 33.0372 23.8946L33.0372 21.7659C33.0372 20.5888 32.0364 19.6372 30.806 19.6372C29.5714 19.6372 28.5747 20.5888 28.5747 21.7659L28.5747 23.8946C28.5747 25.0718 29.5714 26.0233 30.806 26.0233Z"   fill="#FFFFFF" ></path><path d="M48.8528 23.0088L48.8528 24.3172C48.8528 25.966 47.1876 27.3072 45.1368 27.3072C43.0819 27.3072 41.4167 25.9701 41.4167 24.3172L41.4167 22.8242L34.4933 22.8242L34.4933 24.3172C34.4933 25.966 32.828 27.3072 30.7772 27.3072C28.7224 27.3072 27.0571 25.9701 27.0571 24.3172L27.0571 23.0334C25.1089 23.6363 23.6938 25.4574 23.6938 27.6148L23.6938 51.5721C23.6938 54.2176 25.8267 56.3627 28.4599 56.3627L47.5321 56.3627C50.1653 56.3627 52.2981 54.2176 52.2981 51.5721L52.2981 27.6148C52.3022 25.4287 50.8462 23.583 48.8528 23.0088ZM47.0851 50.44L28.9151 50.44C28.1604 50.44 27.5534 49.8084 27.5534 49.025C27.5534 48.2457 28.1646 47.61 28.9151 47.61L47.0892 47.61C47.8438 47.61 48.4509 48.2416 48.4509 49.025C48.4509 49.8084 47.8398 50.44 47.0851 50.44ZM47.0851 42.9342L28.9151 42.9342C28.1604 42.9342 27.5534 42.3025 27.5534 41.5191C27.5534 40.7398 28.1646 40.1041 28.9151 40.1041L47.0892 40.1041C47.8438 40.1041 48.4509 40.7357 48.4509 41.5191C48.4509 42.3025 47.8398 42.9342 47.0851 42.9342ZM47.0851 35.4283L28.9151 35.4283C28.1604 35.4283 27.5534 34.7967 27.5534 34.0133C27.5534 33.234 28.1646 32.5982 28.9151 32.5982L47.0892 32.5982C47.8438 32.5982 48.4509 33.2299 48.4509 34.0133C48.4509 34.7967 47.8398 35.4283 47.0851 35.4283Z"   fill="#FFFFFF" ></path></svg>